<svg width="497" height="207" viewBox="0 0 497 207" fill="none" xmlns="http://www.w3.org/2000/svg">
<path d="M39.3031 7.50128C36.0832 11.6383 33.2859 15.244 33.0847 15.5177L32.7224 16.0167L35.4392 19.3649C36.9284 21.2 38.317 22.9385 38.5384 23.196C38.7598 23.4697 38.8403 23.6467 38.7396 23.5984C38.4176 23.4375 27.7718 19.6064 27.6511 19.6064C27.5907 19.6064 27.5907 20.0893 27.6511 20.6849C27.7114 21.2966 27.8724 25.5945 28.0133 30.2627C28.1341 34.947 28.3152 38.762 28.3957 38.762C28.456 38.762 30.7905 37.9893 33.5274 37.0557C36.2845 36.122 38.7396 35.285 38.9811 35.2045C39.4037 35.0757 39.3434 35.2045 38.5384 36.3957C38.0353 37.1201 36.9687 38.6815 36.1838 39.8405L34.7349 41.9814H33.789C33.0444 41.9814 32.7426 42.0619 32.3199 42.3999C31.5955 42.9955 31.5955 43.8648 32.3401 44.4604C32.6218 44.6857 32.8231 44.9111 32.7828 44.9433C32.7426 44.9594 31.9778 45.233 31.0923 45.5228C25.2965 47.4223 22.8816 49.1447 22.8816 51.3822C22.8816 51.9456 23.2639 53.1528 24.1092 55.2616C26.987 62.4248 31.6357 76.9284 31.1728 77.3147C31.1326 77.3469 30.3276 77.4596 29.3818 77.5562C27.5303 77.7493 26.8662 77.9908 26.5241 78.6025C26.0411 79.4717 26.9467 80.3088 28.617 80.5341C29.261 80.6307 29.3616 80.679 29.1604 80.8722C29.0397 81.001 28.9994 81.2746 29.0598 81.5C29.1805 81.8702 29.1403 81.9024 28.5365 81.9024C27.6511 81.9185 26.2424 82.4336 25.9606 82.8682C25.8399 83.0453 25.7594 83.3511 25.7996 83.5443C25.86 83.8341 25.538 83.9628 23.1834 84.655C21.6942 85.0735 20.1044 85.6048 19.6214 85.8462C17.1059 87.0213 17.4077 88.7759 20.3056 89.9349C20.9295 90.1924 24.2299 91.3192 27.6309 92.446L33.8494 94.5065L32.6621 94.7962C31.3338 95.1343 30.7905 95.5528 30.7905 96.3094C30.7905 96.9372 31.2332 97.2913 32.5212 97.6615L33.5073 97.9352L33.5677 102.99C33.8092 122.693 29.6836 146.71 24.2903 156.963C23.4853 158.477 23.4048 158.573 22.4992 158.943C21.2314 159.459 20.8892 159.909 20.8088 161.165C20.7886 161.809 20.6276 162.372 20.4063 162.63C20.1648 162.919 20.044 163.418 20.0239 164.207C20.0038 164.883 19.8629 165.624 19.6617 165.994C18.8366 167.507 16.0594 171.097 10.9075 177.31C7.22474 181.753 5.77578 184.119 5.11168 186.711C4.64881 188.53 4.80981 189.834 5.67516 191.202C6.09778 191.862 6.62101 192.409 7.16437 192.731C8.15047 193.327 9.05607 194.212 9.05607 194.599C9.05607 194.808 8.79445 194.921 7.88885 195.065C5.69529 195.42 2.91811 196.047 1.81127 196.45C-0.0200588 197.126 6.57058e-05 197.078 6.57058e-05 199.412C6.57058e-05 201.746 -0.0401832 201.698 1.87164 202.39C6.50026 204.096 19.6818 205.384 36.9888 205.851C61.6211 206.511 88.2257 204.917 95.1284 202.39C97.0402 201.698 96.9999 201.746 96.9999 199.412C96.9999 197.078 97.0402 197.126 95.1284 196.434C93.9209 195.983 90.0369 195.146 88.3665 194.969C87.0987 194.84 87.0585 194.615 88.1854 193.81C90.057 192.474 90.9827 191.605 91.5663 190.671C93.136 188.063 93.1763 185.375 91.667 182.993C91.4053 182.59 89.8558 180.82 88.2257 179.049C82.0676 172.385 78.5056 168.215 77.2377 166.171C76.956 165.72 76.6742 164.932 76.6139 164.352C76.5334 163.805 76.3522 163.145 76.1912 162.903C76.0504 162.662 75.8693 162.018 75.8089 161.471C75.6881 160.296 75.2051 159.539 74.2995 159.088C72.7902 158.316 70.1338 152.843 67.739 145.486C63.6336 132.882 59.9709 111.956 59.9709 100.961V97.8708L60.8363 97.6937C62.1243 97.4523 62.7884 96.9694 62.7884 96.3094C62.7884 95.4884 62.245 95.1021 60.6552 94.7801C59.4075 94.5226 59.3068 94.4743 59.7697 94.3294C60.0514 94.2489 62.9091 93.4119 66.1089 92.4782C73.0518 90.4661 73.3738 90.3534 74.219 89.8383C75.6278 88.9852 75.8089 88.0032 74.7222 87.0374C73.8568 86.2647 73.2933 86.0233 69.5301 84.7838C66.934 83.9306 66.7126 83.8341 66.5919 83.3994C66.5315 83.1258 66.4108 82.836 66.3101 82.7234C66.0485 82.3692 64.5392 81.9024 63.6336 81.9024C62.8286 81.9024 62.7884 81.8863 62.9896 81.5805C63.1305 81.3551 63.1506 81.1619 62.9896 80.9527C62.8085 80.6629 62.8689 80.6307 63.7342 80.518C64.9014 80.3893 65.3844 80.2122 65.8473 79.7454C66.8132 78.8117 65.7869 77.8459 63.4927 77.5401L61.9834 77.3308V76.7513C61.9834 75.1255 65.4448 61.7809 67.8597 54.1348C69.6105 48.5491 69.3087 48.2593 58.2 45.0077L57.717 44.8789L58.2402 44.3799C59.327 43.3658 58.5622 41.9814 56.9321 41.9814H56.1473L54.0342 38.601C52.867 36.7337 51.9815 35.2206 52.062 35.2206C52.1627 35.2206 57.556 36.8947 62.3456 38.3917C62.5267 38.4561 62.5871 36.4762 62.5871 28.7978C62.5871 23.4697 62.5066 19.1234 62.4261 19.1234C62.3456 19.1234 59.9106 20.1215 57.0529 21.3448C54.1751 22.5843 51.7803 23.5663 51.7602 23.5341C51.7199 23.518 52.8469 21.699 54.2556 19.4937L56.8114 15.5016L51.8205 8.90173C49.0635 5.26378 46.4272 1.78679 45.9844 1.1429L45.1593 0L39.3031 7.50128Z" fill="white"/>
<path d="M116.944 180C117.584 179.616 118.139 178.891 118.608 177.824C119.12 176.757 119.547 175.541 119.888 174.176C120.272 172.811 120.549 171.403 120.72 169.952C120.891 168.459 120.976 167.093 120.976 165.856C120.976 163.936 120.763 162.101 120.336 160.352C119.952 158.603 119.397 157.28 118.672 156.384C119.355 155.701 119.909 154.805 120.336 153.696C120.805 152.544 121.168 151.328 121.424 150.048C121.68 148.725 121.851 147.381 121.936 146.016C122.021 144.651 122.064 143.371 122.064 142.176C122.064 141.195 122.043 140.341 122 139.616C121.957 138.891 121.915 138.336 121.872 137.952C120.891 137.611 119.867 136.907 118.8 135.84C117.776 134.773 117.008 133.621 116.496 132.384C119.227 132.683 121.808 132.896 124.24 133.024C126.715 133.109 129.04 133.152 131.216 133.152C135.867 133.152 139.621 133.003 142.48 132.704C145.339 132.405 147.6 132.256 149.264 132.256C149.605 132.256 149.904 132.277 150.16 132.32C150.416 132.32 150.651 132.341 150.864 132.384C150.608 132.896 150.331 133.856 150.032 135.264C149.776 136.672 149.52 138.208 149.264 139.872C149.008 141.536 148.773 143.157 148.56 144.736C148.389 146.315 148.261 147.509 148.176 148.32L147.728 148.512C146.235 147.403 145.147 146.187 144.464 144.864C143.824 143.499 143.333 141.835 142.992 139.872C142.395 139.403 141.648 139.104 140.752 138.976C139.856 138.848 138.725 138.784 137.36 138.784C136.251 138.784 135.184 138.805 134.16 138.848C133.136 138.891 132.325 138.912 131.728 138.912C131.515 140.149 131.323 141.579 131.152 143.2C131.024 144.821 130.896 146.549 130.768 148.384C130.683 150.219 130.597 152.139 130.512 154.144C130.469 156.107 130.448 158.069 130.448 160.032C130.448 162.72 130.469 165.28 130.512 167.712C130.597 170.101 130.725 172.192 130.896 173.984L141.712 175.072C142.309 172.427 143.355 170.08 144.848 168.032C146.384 165.984 148.027 164 149.776 162.08L150.16 162.208C150.032 163.189 149.947 164.171 149.904 165.152C149.861 166.091 149.84 167.008 149.84 167.904C149.84 170.123 149.947 172.128 150.16 173.92C150.373 175.712 150.629 177.056 150.928 177.952C150.203 178.037 149.477 178.165 148.752 178.336C148.069 178.464 147.323 178.699 146.512 179.04C145.701 179.381 144.827 179.851 143.888 180.448C142.992 181.045 141.989 181.813 140.88 182.752C137.296 181.685 133.755 180.875 130.256 180.32C126.757 179.808 123.6 179.552 120.784 179.552C119.419 179.552 118.16 179.765 117.008 180.192L116.944 180ZM173.778 185.952C174.034 185.099 174.268 184.032 174.482 182.752C174.695 181.515 174.866 180.277 174.994 179.04C175.122 177.76 175.228 176.587 175.314 175.52C175.399 174.453 175.442 173.685 175.442 173.216C175.442 170.784 175.42 168.352 175.378 165.92C175.378 163.488 175.378 161.056 175.378 158.624L174.546 157.728L166.674 161.248V174.368C166.674 177.056 167.25 178.613 168.402 179.04V180H156.626V179.04C157.138 178.827 157.543 178.4 157.842 177.76C158.183 177.077 158.354 176.139 158.354 174.944V141.28C158.354 140.213 158.332 139.253 158.29 138.4C158.247 137.547 158.14 136.757 157.97 136.032C157.842 135.307 157.65 134.603 157.394 133.92C157.138 133.237 156.818 132.533 156.434 131.808C157.287 132.107 158.29 132.256 159.442 132.256C160.85 132.256 162.322 132.021 163.858 131.552C165.436 131.083 167.122 130.421 168.914 129.568C168.06 130.592 167.463 131.957 167.122 133.664C166.823 135.371 166.674 137.333 166.674 139.552V156.832C168.508 155.637 170.151 154.443 171.602 153.248C173.052 152.053 174.546 150.645 176.082 149.024C176.807 149.707 177.468 150.325 178.066 150.88C178.663 151.392 179.26 151.861 179.858 152.288C180.498 152.715 181.159 153.141 181.842 153.568C182.524 153.952 183.314 154.357 184.21 154.784C184.039 155.381 183.89 156.021 183.762 156.704C183.676 157.344 183.591 158.176 183.506 159.2C183.463 160.224 183.42 161.483 183.378 162.976C183.335 164.469 183.314 166.325 183.314 168.544C183.314 170.421 183.314 171.979 183.314 173.216C183.356 174.411 183.399 175.392 183.442 176.16C183.484 176.928 183.548 177.568 183.634 178.08C183.719 178.549 183.804 178.997 183.89 179.424C183.036 179.723 182.162 180.128 181.266 180.64C180.412 181.152 179.538 181.728 178.642 182.368C177.788 183.008 176.978 183.669 176.21 184.352C175.442 185.035 174.759 185.696 174.162 186.336L173.778 185.952ZM202.604 182.048C201.793 181.451 200.791 180.896 199.596 180.384C198.401 179.872 197.164 179.445 195.884 179.104C194.647 178.72 193.431 178.421 192.236 178.208C191.084 177.995 190.124 177.888 189.356 177.888C189.697 177.333 189.996 176.565 190.252 175.584C190.508 174.56 190.7 173.472 190.828 172.32C190.999 171.125 191.105 169.909 191.148 168.672C191.233 167.435 191.276 166.304 191.276 165.28C191.276 162.677 191.105 160.523 190.764 158.816C190.465 157.067 190.167 155.701 189.868 154.72C191.703 154.379 193.367 153.717 194.86 152.736C196.396 151.755 197.911 150.517 199.404 149.024C201.153 149.365 203.308 149.664 205.868 149.92C208.428 150.133 210.967 150.283 213.484 150.368C213.356 151.136 213.292 152.096 213.292 153.248C213.292 154.144 213.335 155.125 213.42 156.192C213.505 157.216 213.612 158.24 213.74 159.264C213.868 160.288 214.039 161.269 214.252 162.208C214.465 163.147 214.7 163.957 214.956 164.64C212.353 164.853 209.708 165.152 207.02 165.536C204.332 165.877 201.708 166.261 199.148 166.688C199.105 167.925 199.02 169.141 198.892 170.336C198.764 171.531 198.657 172.576 198.572 173.472C199.084 173.685 199.724 173.877 200.492 174.048C201.303 174.219 202.156 174.389 203.052 174.56C203.948 174.688 204.823 174.816 205.676 174.944C206.529 175.029 207.255 175.093 207.852 175.136C208.065 173.813 208.577 172.683 209.388 171.744C210.241 170.805 211.671 170.037 213.676 169.44C213.633 169.952 213.612 170.464 213.612 170.976C213.612 171.445 213.612 171.915 213.612 172.384C213.612 173.835 213.655 174.987 213.74 175.84C213.868 176.651 214.081 177.461 214.38 178.272C213.569 178.357 212.609 178.528 211.5 178.784C210.391 178.997 209.281 179.296 208.172 179.68C207.063 180.021 205.996 180.384 204.972 180.768C203.991 181.195 203.201 181.621 202.604 182.048ZM198.508 154.784C198.721 156.576 198.871 158.155 198.956 159.52C199.084 160.885 199.169 162.144 199.212 163.296L206.7 161.44C206.487 160.587 206.295 159.691 206.124 158.752C205.996 157.813 205.932 156.853 205.932 155.872C204.951 155.872 203.756 155.787 202.348 155.616C200.983 155.403 199.703 155.125 198.508 154.784ZM229.16 154.208C229.075 154.891 229.011 155.552 228.968 156.192C228.968 156.832 228.968 157.579 228.968 158.432C228.968 159.285 228.989 160.139 229.032 160.992C229.075 161.845 229.139 162.613 229.224 163.296C230.035 162.997 230.867 162.741 231.72 162.528C232.616 162.315 233.597 162.123 234.664 161.952C235.773 161.781 237.011 161.632 238.376 161.504C239.741 161.376 241.341 161.248 243.176 161.12C243.048 162.613 242.984 164.789 242.984 167.648C242.984 170.08 243.027 172.256 243.112 174.176C243.197 176.053 243.347 177.483 243.56 178.464C242.237 178.464 240.893 178.549 239.528 178.72C238.163 178.891 236.861 179.125 235.624 179.424C234.387 179.723 233.235 180.085 232.168 180.512C231.101 180.939 230.205 181.408 229.48 181.92C228.968 181.451 228.392 181.045 227.752 180.704C227.155 180.363 226.429 180.085 225.576 179.872C224.723 179.616 223.72 179.424 222.568 179.296C221.416 179.125 220.051 178.997 218.472 178.912C218.557 177.589 218.813 176.245 219.24 174.88C219.709 173.472 220.285 172.341 220.968 171.488C221.949 171.488 223.485 171.851 225.576 172.576C227.667 173.301 230.44 174.432 233.896 175.968C234.152 174.603 234.344 173.365 234.472 172.256C234.6 171.104 234.664 169.909 234.664 168.672C234.664 167.904 234.664 167.349 234.664 167.008C234.664 166.667 234.643 166.347 234.6 166.048C232.723 166.219 230.547 166.539 228.072 167.008C225.597 167.435 223.272 167.947 221.096 168.544C221.267 166.709 221.373 165.301 221.416 164.32C221.459 163.296 221.48 162.379 221.48 161.568C221.48 159.648 221.373 157.963 221.16 156.512C220.989 155.061 220.691 153.717 220.264 152.48C221.885 152.48 223.635 152.203 225.512 151.648C227.389 151.093 229.736 150.219 232.552 149.024C235.24 150.389 239.251 151.264 244.584 151.648C243.816 153.483 242.941 154.827 241.96 155.68C240.979 156.491 239.763 156.896 238.312 156.896C237.672 156.896 236.947 156.832 236.136 156.704C235.325 156.576 234.493 156.384 233.64 156.128C232.829 155.872 232.019 155.595 231.208 155.296C230.44 154.955 229.757 154.592 229.16 154.208ZM258.598 154.208C258.512 154.891 258.448 155.552 258.406 156.192C258.406 156.832 258.406 157.579 258.406 158.432C258.406 159.285 258.427 160.139 258.47 160.992C258.512 161.845 258.576 162.613 258.662 163.296C259.472 162.997 260.304 162.741 261.158 162.528C262.054 162.315 263.035 162.123 264.102 161.952C265.211 161.781 266.448 161.632 267.814 161.504C269.179 161.376 270.779 161.248 272.614 161.12C272.486 162.613 272.422 164.789 272.422 167.648C272.422 170.08 272.464 172.256 272.55 174.176C272.635 176.053 272.784 177.483 272.998 178.464C271.675 178.464 270.331 178.549 268.966 178.72C267.6 178.891 266.299 179.125 265.062 179.424C263.824 179.723 262.672 180.085 261.606 180.512C260.539 180.939 259.643 181.408 258.918 181.92C258.406 181.451 257.83 181.045 257.19 180.704C256.592 180.363 255.867 180.085 255.014 179.872C254.16 179.616 253.158 179.424 252.006 179.296C250.854 179.125 249.488 178.997 247.91 178.912C247.995 177.589 248.251 176.245 248.678 174.88C249.147 173.472 249.723 172.341 250.406 171.488C251.387 171.488 252.923 171.851 255.014 172.576C257.104 173.301 259.878 174.432 263.333 175.968C263.59 174.603 263.782 173.365 263.91 172.256C264.038 171.104 264.102 169.909 264.102 168.672C264.102 167.904 264.102 167.349 264.102 167.008C264.102 166.667 264.08 166.347 264.038 166.048C262.16 166.219 259.984 166.539 257.51 167.008C255.035 167.435 252.71 167.947 250.534 168.544C250.704 166.709 250.811 165.301 250.854 164.32C250.896 163.296 250.918 162.379 250.918 161.568C250.918 159.648 250.811 157.963 250.598 156.512C250.427 155.061 250.128 153.717 249.702 152.48C251.323 152.48 253.072 152.203 254.95 151.648C256.827 151.093 259.174 150.219 261.99 149.024C264.678 150.389 268.688 151.264 274.022 151.648C273.254 153.483 272.379 154.827 271.398 155.68C270.416 156.491 269.2 156.896 267.75 156.896C267.11 156.896 266.384 156.832 265.574 156.704C264.763 156.576 263.931 156.384 263.078 156.128C262.267 155.872 261.456 155.595 260.646 155.296C259.878 154.955 259.195 154.592 258.598 154.208ZM328.547 183.584C326.115 182.731 323.704 181.792 321.315 180.768C318.968 179.787 316.643 178.613 314.339 177.248C313.784 177.803 313.294 178.272 312.867 178.656C312.44 179.04 311.992 179.381 311.523 179.68C311.054 179.936 310.542 180.149 309.987 180.32C309.475 180.533 308.856 180.725 308.131 180.896C308.558 180.384 308.856 179.765 309.027 179.04C309.198 178.315 309.283 177.568 309.283 176.8C309.283 175.563 309.112 174.368 308.771 173.216C308.472 172.021 308.195 171.019 307.939 170.208L306.403 165.344C305.166 166.965 303.928 168.757 302.691 170.72C301.496 172.683 300.451 174.56 299.555 176.352C298.83 175.328 297.848 173.877 296.611 172C295.416 170.123 294.072 168.096 292.579 165.92L291.555 169.248C291.299 170.101 291.086 170.955 290.915 171.808C290.787 172.661 290.723 173.536 290.723 174.432C290.723 175.755 290.894 177.056 291.235 178.336C291.576 179.616 292.131 180.811 292.899 181.92C292.046 181.621 291.32 181.323 290.723 181.024C290.168 180.725 289.635 180.384 289.123 180C288.654 179.616 288.163 179.211 287.651 178.784C287.182 178.315 286.627 177.781 285.987 177.184C284.195 178.891 282.424 180.085 280.675 180.768C278.926 181.493 276.963 181.877 274.787 181.92C275.598 181.792 276.451 181.259 277.347 180.32C278.243 179.424 279.118 178.251 279.971 176.8C280.824 175.307 281.635 173.621 282.403 171.744C283.214 169.867 283.918 167.883 284.515 165.792L286.563 158.624C285.07 157.045 283.448 155.701 281.699 154.592C279.95 153.44 278.371 152.864 276.963 152.864C276.878 152.864 276.771 152.864 276.643 152.864C276.515 152.864 276.259 152.885 275.875 152.928L275.811 152.736C277.646 151.797 279.352 151.328 280.931 151.328C281.998 151.328 283.086 151.541 284.195 151.968C285.304 152.352 286.584 152.949 288.035 153.76L291.491 141.92C291.704 141.195 291.854 140.555 291.939 140C292.024 139.445 292.067 138.997 292.067 138.656C292.067 137.76 291.79 137.12 291.235 136.736C290.723 136.352 289.784 136.16 288.419 136.16C287.566 136.16 286.648 136.224 285.667 136.352C284.686 136.48 283.512 136.672 282.147 136.928C282.403 136.544 283.022 136.096 284.003 135.584C284.984 135.072 286.158 134.581 287.523 134.112C288.931 133.643 290.424 133.259 292.003 132.96C293.624 132.619 295.182 132.448 296.675 132.448C297.784 132.448 298.851 132.576 299.875 132.832C300.899 133.088 301.667 133.536 302.179 134.176C302.947 134.133 303.779 134.027 304.675 133.856C305.571 133.685 306.424 133.493 307.235 133.28C308.046 133.024 308.771 132.789 309.411 132.576C310.051 132.32 310.478 132.128 310.691 132C310.094 132.853 309.646 133.877 309.347 135.072C309.091 136.224 308.963 137.483 308.963 138.848C308.963 140.597 309.155 142.432 309.539 144.352C309.923 146.229 310.371 147.979 310.883 149.6C311.438 151.221 312.014 152.608 312.611 153.76C313.208 154.912 313.72 155.616 314.147 155.872C314.147 158.389 314.574 161.056 315.427 163.872C316.323 166.688 317.454 169.376 318.819 171.936C320.227 174.496 321.784 176.8 323.491 178.848C325.24 180.853 326.947 182.368 328.611 183.392L328.547 183.584ZM299.491 165.856C300.216 164.875 301.027 163.829 301.923 162.72C302.862 161.568 303.715 160.437 304.483 159.328L299.555 143.328L294.499 159.84C295.352 160.736 296.206 161.739 297.059 162.848C297.955 163.957 298.766 164.96 299.491 165.856ZM344.577 132.704C343.681 133.301 342.913 134.112 342.273 135.136C341.676 136.117 341.185 137.205 340.801 138.4C340.46 139.552 340.204 140.768 340.033 142.048C339.862 143.285 339.777 144.48 339.777 145.632C339.777 146.443 339.798 147.317 339.841 148.256C339.926 149.152 340.033 150.091 340.161 151.072C340.332 152.011 340.524 152.949 340.737 153.888C340.993 154.784 341.292 155.616 341.633 156.384C340.95 157.536 340.481 158.923 340.225 160.544C340.012 162.165 339.905 163.787 339.905 165.408C339.905 168.139 340.246 170.741 340.929 173.216C341.612 175.648 343.041 178.037 345.217 180.384C342.913 180.085 340.886 179.893 339.137 179.808C337.43 179.68 335.873 179.616 334.465 179.616C332.545 179.616 330.881 179.68 329.473 179.808C328.065 179.936 326.657 180.107 325.249 180.32C326.145 179.765 326.977 179.04 327.745 178.144C328.513 177.205 329.174 176.181 329.729 175.072C330.284 173.963 330.71 172.789 331.009 171.552C331.35 170.315 331.521 169.099 331.521 167.904C331.521 165.728 331.265 163.616 330.753 161.568C330.241 159.477 329.43 157.749 328.321 156.384C329.516 154.165 330.305 152.139 330.689 150.304C331.073 148.469 331.265 146.571 331.265 144.608C331.265 143.413 331.201 142.133 331.073 140.768C329.409 140.085 328.278 139.019 327.681 137.568C327.084 136.075 326.7 134.432 326.529 132.64C327.937 133.024 329.238 133.301 330.433 133.472C331.67 133.643 332.844 133.728 333.953 133.728C335.916 133.728 337.729 133.621 339.393 133.408C341.057 133.152 342.785 132.917 344.577 132.704ZM349.728 178.592C350.453 177.355 351.328 176.139 352.352 174.944C353.419 173.707 354.592 172.747 355.872 172.064C356.128 172.405 356.512 172.811 357.024 173.28C357.579 173.749 358.155 174.219 358.752 174.688C359.392 175.157 359.989 175.605 360.544 176.032C361.141 176.416 361.589 176.693 361.888 176.864C360.437 177.888 359.2 178.891 358.176 179.872C357.195 180.811 356.341 182.005 355.616 183.456C355.36 183.157 354.955 182.773 354.4 182.304C353.888 181.877 353.333 181.429 352.736 180.96C352.139 180.491 351.563 180.043 351.008 179.616C350.453 179.189 350.027 178.848 349.728 178.592ZM376.238 159.456C377.219 157.877 378.136 156.213 378.99 154.464C379.843 152.715 380.632 150.859 381.358 148.896C382.168 149.408 383.32 149.941 384.814 150.496C386.307 151.008 387.95 151.477 389.742 151.904C389.528 153.696 389.144 155.339 388.59 156.832C388.035 158.283 387.331 159.499 386.478 160.48L382.19 158.24H381.422L376.238 165.536V174.368C376.238 175.861 376.494 176.949 377.006 177.632C377.56 178.272 378.52 178.699 379.885 178.912V180H366.19V179.04C367.342 178.613 367.918 177.248 367.918 174.944V152.608L365.549 151.584V150.88C367.043 150.667 368.664 150.389 370.414 150.048C372.163 149.664 373.72 149.301 375.086 148.96L376.238 150.88V159.456ZM391.152 151.648C392.048 151.563 393.051 151.435 394.16 151.264C395.269 151.051 396.379 150.816 397.488 150.56C398.597 150.304 399.621 150.048 400.56 149.792C401.499 149.493 402.245 149.216 402.8 148.96C402.715 149.685 402.629 150.347 402.544 150.944C402.501 151.541 402.459 152.181 402.416 152.864C402.416 153.547 402.395 154.293 402.352 155.104C402.352 155.915 402.352 156.875 402.352 157.984V170.912L405.04 172.96L411.184 170.272V160.288C411.184 158.837 411.141 157.643 411.056 156.704C411.013 155.765 410.885 155.019 410.672 154.464C410.459 153.909 410.16 153.504 409.776 153.248C409.435 152.949 408.944 152.715 408.304 152.544V151.712C410.352 151.584 412.357 151.285 414.32 150.816C416.325 150.347 418.053 149.749 419.504 149.024V164.128C419.504 166.133 419.547 167.776 419.632 169.056C419.717 170.293 419.867 171.296 420.08 172.064C420.293 172.832 420.571 173.387 420.912 173.728C421.296 174.069 421.787 174.304 422.384 174.432V175.136C421.829 175.392 421.211 175.776 420.528 176.288C419.845 176.8 419.184 177.376 418.544 178.016C417.904 178.656 417.328 179.317 416.816 180C416.304 180.64 415.92 181.237 415.664 181.792C414.256 180.597 413.232 179.488 412.592 178.464C411.995 177.44 411.589 176.181 411.376 174.688C410.096 175.328 408.965 175.925 407.984 176.48C407.045 177.035 406.171 177.589 405.36 178.144C404.592 178.699 403.867 179.275 403.184 179.872C402.544 180.469 401.883 181.109 401.2 181.792C400.347 181.024 399.579 180.384 398.896 179.872C398.256 179.317 397.616 178.827 396.976 178.4C396.379 177.973 395.76 177.589 395.12 177.248C394.523 176.864 393.84 176.459 393.072 176.032C393.243 175.776 393.392 175.2 393.52 174.304C393.691 173.408 393.84 172.32 393.968 171.04C394.096 169.76 394.181 168.395 394.224 166.944C394.309 165.451 394.352 164.021 394.352 162.656C394.352 161.12 394.288 159.797 394.16 158.688C394.075 157.536 393.904 156.555 393.648 155.744C393.392 154.933 393.051 154.272 392.624 153.76C392.24 153.205 391.728 152.736 391.088 152.352L391.152 151.648Z" fill="white"/>
<path d="M115.746 189.143L117.258 189.139L117.277 196.195C117.278 196.591 117.273 197.035 117.262 197.527C117.251 198.02 117.234 198.47 117.212 198.878C117.201 199.286 117.183 199.586 117.16 199.778L117.232 199.778L124.278 189.121L126.078 189.116L126.112 201.968L124.6 201.972L124.581 194.988C124.58 194.544 124.585 194.07 124.596 193.566C124.618 193.062 124.641 192.6 124.664 192.18C124.687 191.76 124.704 191.46 124.716 191.28L124.644 191.28L117.58 201.991L115.78 201.995L115.746 189.143ZM135.223 192.297L135.226 193.629L130.924 193.64L130.946 201.956L129.362 201.96L129.337 192.312L135.223 192.297ZM141.713 192.1C142.901 192.097 143.857 192.508 144.579 193.334C145.313 194.16 145.682 195.407 145.686 197.075C145.691 198.719 145.328 199.968 144.598 200.822C143.88 201.676 142.922 202.105 141.722 202.108C140.978 202.11 140.359 201.973 139.866 201.698C139.386 201.412 139.007 201.083 138.73 200.711L138.622 200.712C138.646 200.916 138.671 201.174 138.696 201.486C138.721 201.797 138.733 202.067 138.734 202.295L138.744 206.255L137.16 206.26L137.124 192.292L138.42 192.288L138.639 193.602L138.711 193.601C138.998 193.181 139.375 192.826 139.843 192.537C140.31 192.247 140.933 192.102 141.713 192.1ZM141.429 193.432C140.445 193.435 139.75 193.713 139.343 194.266C138.949 194.819 138.741 195.659 138.72 196.787L138.72 197.093C138.724 198.281 138.918 199.199 139.304 199.846C139.701 200.481 140.428 200.797 141.484 200.794C142.072 200.793 142.552 200.629 142.923 200.304C143.306 199.979 143.587 199.541 143.765 198.988C143.956 198.424 144.05 197.782 144.048 197.062C144.046 195.958 143.827 195.076 143.393 194.417C142.972 193.758 142.317 193.43 141.429 193.432ZM151.852 192.091C153.028 192.088 153.898 192.344 154.464 192.858C155.029 193.373 155.313 194.194 155.316 195.322L155.333 201.892L154.181 201.895L153.872 200.528L153.8 200.528C153.381 201.057 152.938 201.448 152.471 201.702C152.015 201.955 151.38 202.082 150.564 202.085C149.688 202.087 148.961 201.861 148.384 201.406C147.807 200.94 147.517 200.215 147.514 199.231C147.512 198.271 147.888 197.532 148.642 197.014C149.397 196.484 150.56 196.193 152.132 196.14L153.77 196.082L153.769 195.506C153.766 194.702 153.591 194.145 153.242 193.834C152.893 193.522 152.401 193.368 151.765 193.369C151.261 193.371 150.781 193.45 150.326 193.607C149.87 193.752 149.444 193.921 149.049 194.114L148.56 192.928C148.979 192.699 149.477 192.505 150.052 192.348C150.628 192.178 151.228 192.093 151.852 192.091ZM152.333 197.238C151.133 197.289 150.3 197.483 149.833 197.82C149.377 198.158 149.151 198.632 149.152 199.244C149.154 199.784 149.317 200.18 149.641 200.431C149.978 200.682 150.404 200.807 150.92 200.806C151.736 200.803 152.414 200.58 152.953 200.134C153.491 199.677 153.76 198.98 153.757 198.044L153.755 197.18L152.333 197.238ZM166.089 188.22C166.008 189.12 165.704 189.805 165.177 190.274C164.662 190.732 163.835 190.962 162.695 190.965C161.519 190.968 160.684 190.742 160.191 190.287C159.71 189.833 159.438 189.149 159.375 188.237L160.851 188.234C160.913 188.881 161.082 189.319 161.359 189.546C161.647 189.762 162.104 189.868 162.728 189.867C163.28 189.865 163.711 189.75 164.023 189.521C164.346 189.281 164.537 188.848 164.595 188.224L166.089 188.22ZM159.797 198.118C159.798 198.262 159.792 198.478 159.781 198.766C159.77 199.055 159.752 199.343 159.729 199.631C159.718 199.919 159.707 200.147 159.695 200.315L164.84 192.219L166.784 192.214L166.809 201.862L165.333 201.866L165.318 196.178C165.318 195.986 165.317 195.734 165.316 195.422C165.327 195.11 165.339 194.804 165.35 194.504C165.361 194.192 165.372 193.958 165.384 193.802L160.275 201.879L158.313 201.884L158.288 192.236L159.782 192.232L159.797 198.118ZM178.25 192.184L179.978 192.18L175.868 196.834L180.345 201.827L178.509 201.832L174.14 196.947L174.153 201.843L172.569 201.847L172.544 192.199L174.128 192.195L174.14 196.875L178.25 192.184ZM186.661 191.982C187.849 191.979 188.804 192.391 189.526 193.217C190.26 194.043 190.629 195.29 190.634 196.958C190.638 198.602 190.275 199.851 189.545 200.705C188.828 201.559 187.869 201.987 186.669 201.99C185.925 201.992 185.306 201.856 184.814 201.581C184.333 201.294 183.954 200.965 183.677 200.594L183.569 200.594C183.594 200.798 183.618 201.056 183.643 201.368C183.668 201.68 183.681 201.95 183.681 202.178L183.691 206.138L182.107 206.142L182.071 192.174L183.367 192.171L183.586 193.484L183.658 193.484C183.945 193.063 184.322 192.708 184.79 192.419C185.257 192.13 185.881 191.984 186.661 191.982ZM186.376 193.315C185.392 193.318 184.697 193.595 184.29 194.148C183.896 194.702 183.688 195.542 183.667 196.67L183.668 196.976C183.671 198.164 183.865 199.082 184.251 199.729C184.648 200.364 185.375 200.68 186.431 200.677C187.019 200.675 187.499 200.512 187.87 200.187C188.253 199.862 188.534 199.423 188.713 198.871C188.903 198.306 188.997 197.664 188.996 196.944C188.993 195.84 188.774 194.959 188.341 194.3C187.919 193.641 187.264 193.313 186.376 193.315ZM196.799 191.974C197.975 191.971 198.845 192.226 199.411 192.741C199.976 193.256 200.26 194.077 200.263 195.205L200.28 201.775L199.128 201.778L198.819 200.411L198.747 200.411C198.328 200.94 197.885 201.331 197.418 201.584C196.963 201.837 196.327 201.965 195.511 201.967C194.635 201.969 193.908 201.743 193.331 201.289C192.754 200.822 192.464 200.097 192.461 199.113C192.459 198.153 192.835 197.414 193.59 196.896C194.344 196.366 195.507 196.075 197.079 196.023L198.717 195.965L198.716 195.389C198.714 194.585 198.538 194.027 198.189 193.716C197.841 193.405 197.348 193.25 196.712 193.252C196.208 193.253 195.728 193.333 195.273 193.49C194.817 193.635 194.392 193.804 193.996 193.997L193.507 192.81C193.926 192.581 194.424 192.388 194.999 192.231C195.575 192.061 196.175 191.975 196.799 191.974ZM197.28 197.121C196.08 197.172 195.247 197.366 194.78 197.703C194.325 198.04 194.098 198.515 194.099 199.127C194.101 199.667 194.264 200.062 194.589 200.314C194.925 200.565 195.352 200.69 195.868 200.688C196.684 200.686 197.361 200.462 197.9 200.017C198.439 199.56 198.707 198.863 198.704 197.927L198.702 197.063L197.28 197.121ZM207.131 201.937C206.279 201.939 205.516 201.767 204.843 201.421C204.182 201.075 203.659 200.536 203.273 199.805C202.899 199.074 202.711 198.138 202.708 196.998C202.705 195.81 202.9 194.844 203.294 194.099C203.688 193.354 204.221 192.806 204.892 192.457C205.575 192.107 206.349 191.931 207.213 191.929C207.705 191.927 208.179 191.98 208.635 192.087C209.091 192.182 209.464 192.301 209.752 192.444L209.269 193.759C208.981 193.652 208.645 193.551 208.261 193.456C207.876 193.361 207.516 193.314 207.18 193.315C205.284 193.32 204.339 194.54 204.346 196.976C204.349 198.14 204.579 199.034 205.037 199.656C205.506 200.267 206.197 200.571 207.109 200.569C207.637 200.568 208.099 200.512 208.495 200.403C208.902 200.294 209.274 200.161 209.61 200.004L209.613 201.408C209.29 201.577 208.93 201.704 208.534 201.789C208.151 201.886 207.683 201.935 207.131 201.937ZM213.393 197.978C213.393 198.122 213.388 198.339 213.376 198.627C213.365 198.915 213.348 199.203 213.325 199.491C213.313 199.779 213.302 200.007 213.291 200.175L218.435 192.079L220.379 192.074L220.405 201.722L218.929 201.726L218.914 196.038C218.913 195.846 218.913 195.594 218.912 195.282C218.923 194.97 218.934 194.664 218.945 194.364C218.957 194.052 218.968 193.818 218.98 193.662L213.871 201.739L211.909 201.744L211.883 192.096L213.377 192.093L213.393 197.978ZM231.214 194.476C231.216 195.076 231.037 195.544 230.678 195.881C230.319 196.218 229.857 196.448 229.294 196.569L229.294 196.641C229.894 196.723 230.417 196.938 230.861 197.285C231.306 197.62 231.53 198.147 231.532 198.867C231.534 199.683 231.229 200.362 230.619 200.904C230.02 201.433 229.025 201.7 227.633 201.703L223.475 201.714L223.45 192.066L227.59 192.055C228.274 192.054 228.886 192.13 229.426 192.285C229.979 192.427 230.411 192.678 230.724 193.037C231.049 193.384 231.213 193.864 231.214 194.476ZM229.613 194.678C229.611 194.222 229.443 193.893 229.106 193.689C228.781 193.474 228.247 193.368 227.503 193.37L225.037 193.376L225.044 196.022L227.222 196.016C228.818 196.012 229.615 195.566 229.613 194.678ZM229.894 198.871C229.892 198.319 229.681 197.924 229.26 197.685C228.84 197.446 228.222 197.328 227.406 197.33L225.048 197.336L225.056 200.432L227.45 200.426C228.242 200.424 228.847 200.308 229.267 200.079C229.686 199.838 229.895 199.435 229.894 198.871ZM242.221 196.823C242.226 198.419 241.821 199.656 241.007 200.534C240.205 201.413 239.114 201.853 237.734 201.857C236.882 201.859 236.12 201.669 235.447 201.287C234.786 200.893 234.262 200.324 233.877 199.581C233.491 198.826 233.296 197.915 233.293 196.847C233.289 195.251 233.688 194.019 234.49 193.153C235.292 192.287 236.382 191.852 237.762 191.849C238.638 191.847 239.407 192.043 240.068 192.437C240.741 192.819 241.264 193.382 241.638 194.125C242.024 194.856 242.219 195.755 242.221 196.823ZM234.931 196.842C234.934 197.982 235.159 198.888 235.604 199.559C236.062 200.217 236.783 200.545 237.767 200.543C238.739 200.54 239.452 200.208 239.906 199.547C240.361 198.874 240.586 197.967 240.583 196.827C240.58 195.688 240.35 194.794 239.892 194.147C239.435 193.5 238.714 193.178 237.73 193.181C236.746 193.184 236.033 193.509 235.59 194.159C235.148 194.808 234.928 195.702 234.931 196.842ZM247.28 200.211C247.281 200.451 247.234 200.718 247.141 201.011C247.048 201.304 246.932 201.594 246.792 201.882C246.652 202.169 246.495 202.436 246.32 202.683C246.15 202.929 245.987 203.126 245.829 203.273L244.044 203.067C244.231 202.92 244.404 202.755 244.562 202.573C244.719 202.391 244.865 202.2 245 202.001C244.783 201.984 244.583 201.926 244.401 201.827C244.225 201.727 244.073 201.599 243.943 201.441C243.814 201.283 243.714 201.102 243.643 200.897C243.572 200.686 243.537 200.461 243.536 200.22C243.535 200.021 243.567 199.816 243.631 199.605C243.695 199.388 243.797 199.188 243.937 199.006C244.083 198.824 244.276 198.675 244.516 198.557C244.756 198.439 245.052 198.38 245.403 198.379C245.72 198.378 245.995 198.421 246.23 198.508C246.47 198.596 246.667 198.721 246.82 198.885C246.972 199.042 247.087 199.236 247.164 199.464C247.241 199.686 247.279 199.935 247.28 200.211ZM259.992 191.971L260.018 201.619L258.434 201.623L258.412 193.325L253.426 193.338L253.448 201.636L251.864 201.64L251.838 191.992L259.992 191.971ZM271.471 196.747C271.475 198.343 271.071 199.58 270.257 200.458C269.455 201.336 268.364 201.777 266.984 201.781C266.132 201.783 265.37 201.593 264.697 201.211C264.036 200.816 263.512 200.248 263.126 199.505C262.74 198.75 262.546 197.838 262.543 196.77C262.539 195.174 262.938 193.943 263.74 193.077C264.541 192.211 265.632 191.776 267.012 191.772C267.888 191.77 268.657 191.966 269.318 192.36C269.991 192.743 270.514 193.305 270.888 194.048C271.274 194.779 271.468 195.679 271.471 196.747ZM264.181 196.766C264.184 197.906 264.409 198.811 264.854 199.482C265.312 200.141 266.033 200.469 267.017 200.466C267.989 200.464 268.702 200.132 269.156 199.471C269.611 198.798 269.836 197.891 269.833 196.751C269.83 195.611 269.6 194.718 269.142 194.071C268.685 193.424 267.964 193.102 266.98 193.105C265.996 193.107 265.283 193.433 264.84 194.082C264.398 194.731 264.178 195.626 264.181 196.766ZM273.475 195.788C273.47 193.676 273.783 192.031 274.416 190.853C275.049 189.663 276.073 188.917 277.488 188.613C278.268 188.443 279.03 188.291 279.773 188.157C280.517 188.023 281.213 187.901 281.86 187.792L282.134 189.177C281.714 189.238 281.24 189.317 280.713 189.415C280.185 189.5 279.663 189.591 279.147 189.689C278.632 189.774 278.188 189.859 277.816 189.944C277.036 190.114 276.419 190.524 275.965 191.173C275.511 191.81 275.255 192.807 275.199 194.163L275.307 194.163C275.474 193.934 275.702 193.7 275.989 193.459C276.289 193.218 276.642 193.013 277.05 192.844C277.469 192.675 277.943 192.59 278.471 192.589C279.719 192.585 280.662 192.985 281.3 193.787C281.938 194.59 282.259 195.633 282.262 196.917C282.265 197.985 282.081 198.879 281.711 199.6C281.341 200.321 280.826 200.862 280.167 201.224C279.508 201.574 278.741 201.75 277.865 201.752C276.533 201.756 275.469 201.248 274.675 200.23C273.88 199.213 273.48 197.732 273.475 195.788ZM277.987 200.438C278.767 200.436 279.397 200.182 279.875 199.677C280.354 199.172 280.592 198.307 280.589 197.083C280.586 196.099 280.398 195.326 280.025 194.763C279.663 194.187 279.062 193.901 278.222 193.903C277.694 193.905 277.215 194.026 276.783 194.267C276.352 194.496 275.993 194.761 275.705 195.062C275.418 195.363 275.215 195.615 275.095 195.819C275.097 196.407 275.14 196.977 275.226 197.529C275.311 198.081 275.457 198.578 275.662 199.022C275.879 199.453 276.174 199.801 276.546 200.064C276.931 200.315 277.411 200.439 277.987 200.438ZM288.47 191.716C289.298 191.714 290.006 191.892 290.595 192.251C291.196 192.609 291.654 193.118 291.967 193.777C292.293 194.424 292.457 195.186 292.459 196.062L292.462 197.016L285.856 197.033C285.883 198.125 286.161 198.959 286.69 199.533C287.232 200.096 287.983 200.376 288.943 200.373C289.555 200.372 290.094 200.316 290.562 200.207C291.042 200.086 291.533 199.916 292.037 199.699L292.04 201.085C291.549 201.302 291.063 201.46 290.584 201.557C290.104 201.666 289.534 201.722 288.874 201.723C287.962 201.726 287.152 201.542 286.443 201.172C285.746 200.802 285.198 200.251 284.8 199.52C284.414 198.777 284.22 197.872 284.217 196.804C284.215 195.748 284.386 194.841 284.732 194.084C285.09 193.327 285.587 192.744 286.222 192.334C286.869 191.925 287.618 191.719 288.47 191.716ZM288.455 193.012C287.699 193.014 287.1 193.262 286.657 193.755C286.227 194.236 285.97 194.909 285.889 195.773L290.803 195.76C290.788 194.944 290.595 194.285 290.221 193.782C289.848 193.267 289.259 193.01 288.455 193.012ZM306.479 191.849L302.513 196.54L306.846 201.497L305.046 201.501L300.857 196.616L300.87 201.512L299.394 201.516L299.381 196.62L295.218 201.527L293.418 201.532L297.725 196.552L293.735 191.883L295.463 191.878L299.381 196.548L299.369 191.868L300.845 191.864L300.857 196.544L304.769 191.854L306.479 191.849ZM315.569 191.826L315.59 200.142L316.994 200.138L317.006 204.818L315.476 204.822L315.468 201.474L308.754 201.492L308.763 204.84L307.251 204.843L307.238 200.163L308.012 200.161C308.837 199.019 309.452 197.722 309.856 196.269C310.272 194.804 310.484 193.327 310.493 191.839L315.569 191.826ZM311.9 193.077C311.854 193.893 311.73 194.74 311.528 195.616C311.327 196.481 311.065 197.309 310.743 198.102C310.433 198.895 310.069 199.58 309.65 200.157L314.06 200.146L314.042 193.072L311.9 193.077ZM322.517 191.646C323.693 191.642 324.564 191.898 325.129 192.413C325.694 192.927 325.979 193.749 325.982 194.877L325.999 201.446L324.847 201.45L324.537 200.082L324.465 200.082C324.047 200.612 323.604 201.003 323.136 201.256C322.681 201.509 322.045 201.637 321.229 201.639C320.353 201.641 319.627 201.415 319.049 200.961C318.472 200.494 318.182 199.769 318.18 198.785C318.177 197.825 318.553 197.086 319.308 196.568C320.063 196.038 321.226 195.747 322.798 195.695L324.436 195.637L324.434 195.061C324.432 194.257 324.256 193.699 323.908 193.388C323.559 193.077 323.066 192.922 322.43 192.924C321.926 192.925 321.447 193.004 320.991 193.162C320.535 193.307 320.11 193.476 319.714 193.669L319.225 192.482C319.645 192.253 320.142 192.06 320.718 191.902C321.293 191.733 321.893 191.647 322.517 191.646ZM322.999 196.792C321.799 196.843 320.965 197.038 320.498 197.375C320.043 197.712 319.816 198.187 319.818 198.799C319.819 199.339 319.982 199.734 320.307 199.985C320.644 200.236 321.07 200.361 321.586 200.36C322.402 200.358 323.079 200.134 323.618 199.689C324.157 199.231 324.425 198.535 324.423 197.599L324.42 196.735L322.999 196.792ZM336.755 187.774C336.673 188.675 336.369 189.359 335.842 189.829C335.327 190.286 334.5 190.516 333.36 190.519C332.184 190.522 331.349 190.296 330.856 189.842C330.375 189.387 330.103 188.704 330.041 187.792L331.517 187.788C331.579 188.436 331.748 188.873 332.024 189.101C332.313 189.316 332.769 189.423 333.393 189.421C333.945 189.42 334.377 189.305 334.688 189.076C335.012 188.835 335.203 188.402 335.261 187.778L336.755 187.774ZM330.463 197.673C330.463 197.817 330.458 198.033 330.446 198.321C330.435 198.609 330.418 198.897 330.395 199.185C330.383 199.473 330.372 199.701 330.36 199.869L335.505 191.774L337.449 191.769L337.475 201.417L335.999 201.42L335.984 195.732C335.983 195.54 335.982 195.288 335.982 194.976C335.993 194.664 336.004 194.358 336.015 194.058C336.026 193.746 336.038 193.512 336.049 193.356L330.941 201.434L328.979 201.439L328.953 191.791L330.447 191.787L330.463 197.673ZM341.697 191.757L343.389 191.753L345.491 197.238C345.673 197.717 345.836 198.179 345.981 198.622C346.126 199.054 346.235 199.468 346.308 199.863L346.38 199.863C346.452 199.563 346.565 199.173 346.719 198.692C346.874 198.2 347.035 197.708 347.201 197.215L349.149 191.738L350.859 191.734L346.73 202.724C346.396 203.637 345.96 204.364 345.421 204.906C344.895 205.447 344.164 205.719 343.228 205.722C342.94 205.722 342.688 205.705 342.471 205.67C342.255 205.646 342.069 205.617 341.913 205.581L341.91 204.321C342.042 204.345 342.198 204.368 342.378 204.392C342.57 204.415 342.768 204.427 342.972 204.426C343.524 204.425 343.968 204.268 344.303 203.955C344.65 203.642 344.919 203.227 345.11 202.711L345.61 201.431L341.697 191.757ZM360.149 194.139C360.151 194.739 359.972 195.208 359.613 195.545C359.254 195.882 358.792 196.111 358.229 196.232L358.229 196.304C358.829 196.387 359.352 196.601 359.797 196.948C360.241 197.283 360.465 197.81 360.467 198.53C360.469 199.346 360.165 200.025 359.554 200.567C358.955 201.096 357.96 201.363 356.568 201.367L352.41 201.378L352.385 191.73L356.525 191.719C357.209 191.717 357.821 191.793 358.361 191.948C358.914 192.091 359.347 192.341 359.659 192.701C359.984 193.048 360.148 193.527 360.149 194.139ZM358.548 194.341C358.547 193.885 358.378 193.556 358.041 193.353C357.717 193.138 357.182 193.031 356.438 193.033L353.972 193.039L353.979 195.685L356.157 195.68C357.753 195.676 358.55 195.229 358.548 194.341ZM358.829 198.535C358.827 197.983 358.616 197.587 358.196 197.348C357.775 197.11 357.157 196.991 356.341 196.993L353.983 196.999L353.991 200.095L356.385 200.089C357.177 200.087 357.782 199.972 358.202 199.742C358.621 199.501 358.83 199.099 358.829 198.535ZM366.481 191.513C367.309 191.511 368.018 191.689 368.607 192.047C369.208 192.406 369.665 192.914 369.979 193.574C370.305 194.221 370.469 194.982 370.471 195.858L370.473 196.812L363.867 196.83C363.894 197.922 364.172 198.755 364.702 199.329C365.243 199.892 365.994 200.172 366.954 200.17C367.566 200.168 368.106 200.113 368.574 200.003C369.053 199.882 369.545 199.713 370.048 199.495L370.052 200.881C369.561 201.099 369.075 201.256 368.595 201.353C368.115 201.463 367.546 201.518 366.886 201.52C365.974 201.522 365.163 201.338 364.454 200.968C363.757 200.598 363.21 200.047 362.812 199.316C362.426 198.573 362.232 197.668 362.229 196.6C362.226 195.544 362.398 194.637 362.744 193.881C363.102 193.124 363.598 192.54 364.233 192.131C364.88 191.721 365.629 191.515 366.481 191.513ZM366.467 192.809C365.711 192.811 365.112 193.058 364.669 193.552C364.238 194.033 363.982 194.705 363.9 195.57L368.814 195.557C368.8 194.741 368.606 194.081 368.233 193.578C367.86 193.063 367.271 192.807 366.467 192.809ZM377.506 191.484C378.694 191.481 379.649 191.892 380.371 192.719C381.105 193.545 381.474 194.792 381.479 196.46C381.483 198.104 381.12 199.353 380.39 200.206C379.673 201.06 378.714 201.489 377.514 201.492C376.77 201.494 376.151 201.358 375.659 201.083C375.178 200.796 374.799 200.467 374.522 200.096L374.414 200.096C374.439 200.3 374.463 200.558 374.488 200.87C374.513 201.182 374.526 201.452 374.526 201.68L374.537 205.64L372.953 205.644L372.916 191.676L374.212 191.673L374.432 192.986L374.504 192.986C374.79 192.565 375.167 192.21 375.635 191.921C376.102 191.632 376.726 191.486 377.506 191.484ZM377.221 192.817C376.237 192.819 375.542 193.097 375.135 193.65C374.741 194.203 374.533 195.044 374.512 196.172L374.513 196.478C374.516 197.666 374.71 198.583 375.096 199.23C375.493 199.865 376.22 200.181 377.276 200.179C377.864 200.177 378.344 200.014 378.715 199.689C379.098 199.364 379.379 198.925 379.558 198.373C379.748 197.808 379.842 197.166 379.841 196.446C379.838 195.342 379.619 194.46 379.186 193.802C378.764 193.143 378.109 192.814 377.221 192.817ZM387.716 191.457C388.544 191.455 389.252 191.633 389.841 191.992C390.442 192.35 390.899 192.859 391.213 193.518C391.539 194.165 391.703 194.927 391.705 195.803L391.708 196.757L385.102 196.774C385.129 197.866 385.407 198.699 385.936 199.274C386.478 199.837 387.228 200.117 388.188 200.114C388.8 200.113 389.34 200.057 389.808 199.948C390.288 199.827 390.779 199.657 391.283 199.44L391.286 200.826C390.795 201.043 390.309 201.201 389.829 201.298C389.35 201.407 388.78 201.463 388.12 201.464C387.208 201.467 386.397 201.283 385.688 200.913C384.991 200.542 384.444 199.992 384.046 199.261C383.66 198.518 383.466 197.612 383.463 196.544C383.46 195.488 383.632 194.582 383.978 193.825C384.336 193.068 384.832 192.485 385.467 192.075C386.114 191.666 386.864 191.46 387.716 191.457ZM387.701 192.753C386.945 192.755 386.346 193.003 385.903 193.496C385.472 193.977 385.216 194.65 385.134 195.514L390.048 195.501C390.034 194.685 389.84 194.026 389.467 193.523C389.094 193.008 388.505 192.751 387.701 192.753ZM395.734 191.616L395.745 195.63L400.983 195.617L400.972 191.603L402.556 191.599L402.582 201.247L400.998 201.251L400.986 196.949L395.748 196.962L395.76 201.264L394.176 201.268L394.15 191.621L395.734 191.616ZM407.195 191.586L407.206 195.6L412.444 195.587L412.433 191.573L414.017 191.569L414.042 201.217L412.458 201.221L412.447 196.919L407.209 196.932L407.22 201.234L405.636 201.239L405.611 191.591L407.195 191.586ZM425.473 196.345C425.477 197.941 425.072 199.178 424.258 200.056C423.457 200.934 422.366 201.375 420.986 201.378C420.134 201.381 419.371 201.191 418.698 200.808C418.037 200.414 417.514 199.846 417.128 199.103C416.742 198.348 416.548 197.436 416.545 196.368C416.541 194.772 416.939 193.541 417.741 192.675C418.543 191.809 419.634 191.374 421.014 191.37C421.89 191.368 422.658 191.564 423.319 191.958C423.992 192.341 424.516 192.903 424.89 193.646C425.276 194.377 425.47 195.277 425.473 196.345ZM418.183 196.364C418.186 197.504 418.41 198.409 418.856 199.08C419.314 199.739 420.034 200.067 421.018 200.064C421.99 200.062 422.704 199.73 423.158 199.069C423.612 198.396 423.838 197.489 423.835 196.349C423.832 195.209 423.601 194.316 423.144 193.669C422.686 193.022 421.965 192.7 420.981 192.702C419.997 192.705 419.284 193.031 418.842 193.68C418.399 194.329 418.18 195.224 418.183 196.364Z" fill="white"/>
</svg>
