<svg width="173" height="33" viewBox="0 0 173 33" fill="none" xmlns="http://www.w3.org/2000/svg">
<path d="M0.656 29C1.016 28.784 1.328 28.376 1.592 27.776C1.88 27.176 2.12 26.492 2.312 25.724C2.528 24.956 2.684 24.164 2.78 23.348C2.876 22.508 2.924 21.74 2.924 21.044C2.924 19.964 2.804 18.932 2.564 17.948C2.348 16.964 2.036 16.22 1.628 15.716C2.012 15.332 2.324 14.828 2.564 14.204C2.828 13.556 3.032 12.872 3.176 12.152C3.32 11.408 3.416 10.652 3.464 9.884C3.512 9.116 3.536 8.396 3.536 7.724C3.536 7.172 3.524 6.692 3.5 6.284C3.476 5.876 3.452 5.564 3.428 5.348C2.876 5.156 2.3 4.76 1.7 4.16C1.124 3.56 0.692 2.912 0.404 2.216C1.94 2.384 3.392 2.504 4.76 2.576C6.152 2.624 7.46 2.648 8.684 2.648C11.3 2.648 13.412 2.564 15.02 2.396C16.628 2.228 17.9 2.144 18.836 2.144C19.028 2.144 19.196 2.156 19.34 2.18C19.484 2.18 19.616 2.192 19.736 2.216C19.592 2.504 19.436 3.044 19.268 3.836C19.124 4.628 18.98 5.492 18.836 6.428C18.692 7.364 18.56 8.276 18.44 9.164C18.344 10.052 18.272 10.724 18.224 11.18L17.972 11.288C17.132 10.664 16.52 9.98 16.136 9.236C15.776 8.468 15.5 7.532 15.308 6.428C14.972 6.164 14.552 5.996 14.048 5.924C13.544 5.852 12.908 5.816 12.14 5.816C11.516 5.816 10.916 5.828 10.34 5.852C9.764 5.876 9.308 5.888 8.972 5.888C8.852 6.584 8.744 7.388 8.648 8.3C8.576 9.212 8.504 10.184 8.432 11.216C8.384 12.248 8.336 13.328 8.288 14.456C8.264 15.56 8.252 16.664 8.252 17.768C8.252 19.28 8.264 20.72 8.288 22.088C8.336 23.432 8.408 24.608 8.504 25.616L14.588 26.228C14.924 24.74 15.512 23.42 16.352 22.268C17.216 21.116 18.14 20 19.124 18.92L19.34 18.992C19.268 19.544 19.22 20.096 19.196 20.648C19.172 21.176 19.16 21.692 19.16 22.196C19.16 23.444 19.22 24.572 19.34 25.58C19.46 26.588 19.604 27.344 19.772 27.848C19.364 27.896 18.956 27.968 18.548 28.064C18.164 28.136 17.744 28.268 17.288 28.46C16.832 28.652 16.34 28.916 15.812 29.252C15.308 29.588 14.744 30.02 14.12 30.548C12.104 29.948 10.112 29.492 8.144 29.18C6.176 28.892 4.4 28.748 2.816 28.748C2.048 28.748 1.34 28.868 0.692 29.108L0.656 29ZM32.6248 32.348C32.7688 31.868 32.9008 31.268 33.0208 30.548C33.1408 29.852 33.2368 29.156 33.3088 28.46C33.3808 27.74 33.4408 27.08 33.4888 26.48C33.5368 25.88 33.5608 25.448 33.5608 25.184C33.5608 23.816 33.5488 22.448 33.5248 21.08C33.5248 19.712 33.5248 18.344 33.5248 16.976L33.0568 16.472L28.6288 18.452V25.832C28.6288 27.344 28.9528 28.22 29.6008 28.46V29H22.9768V28.46C23.2648 28.34 23.4928 28.1 23.6608 27.74C23.8528 27.356 23.9488 26.828 23.9488 26.156V7.22C23.9488 6.62 23.9368 6.08 23.9128 5.6C23.8888 5.12 23.8288 4.676 23.7328 4.268C23.6608 3.86 23.5528 3.464 23.4088 3.08C23.2648 2.696 23.0848 2.3 22.8688 1.892C23.3488 2.06 23.9128 2.144 24.5608 2.144C25.3528 2.144 26.1808 2.012 27.0448 1.748C27.9328 1.484 28.8808 1.112 29.8888 0.631998C29.4088 1.208 29.0728 1.976 28.8808 2.936C28.7128 3.896 28.6288 5 28.6288 6.248V15.968C29.6608 15.296 30.5848 14.624 31.4008 13.952C32.2168 13.28 33.0568 12.488 33.9208 11.576C34.3288 11.96 34.7008 12.308 35.0368 12.62C35.3728 12.908 35.7088 13.172 36.0448 13.412C36.4048 13.652 36.7768 13.892 37.1608 14.132C37.5448 14.348 37.9888 14.576 38.4928 14.816C38.3968 15.152 38.3128 15.512 38.2408 15.896C38.1928 16.256 38.1448 16.724 38.0968 17.3C38.0728 17.876 38.0488 18.584 38.0248 19.424C38.0008 20.264 37.9888 21.308 37.9888 22.556C37.9888 23.612 37.9888 24.488 37.9888 25.184C38.0128 25.856 38.0368 26.408 38.0608 26.84C38.0848 27.272 38.1208 27.632 38.1688 27.92C38.2168 28.184 38.2648 28.436 38.3128 28.676C37.8328 28.844 37.3408 29.072 36.8368 29.36C36.3568 29.648 35.8648 29.972 35.3608 30.332C34.8808 30.692 34.4248 31.064 33.9928 31.448C33.5608 31.832 33.1768 32.204 32.8408 32.564L32.6248 32.348ZM48.8398 30.152C48.3838 29.816 47.8198 29.504 47.1478 29.216C46.4758 28.928 45.7798 28.688 45.0598 28.496C44.3638 28.28 43.6798 28.112 43.0078 27.992C42.3598 27.872 41.8198 27.812 41.3878 27.812C41.5798 27.5 41.7478 27.068 41.8918 26.516C42.0358 25.94 42.1438 25.328 42.2158 24.68C42.3118 24.008 42.3718 23.324 42.3958 22.628C42.4438 21.932 42.4678 21.296 42.4678 20.72C42.4678 19.256 42.3718 18.044 42.1798 17.084C42.0118 16.1 41.8438 15.332 41.6758 14.78C42.7078 14.588 43.6438 14.216 44.4838 13.664C45.3478 13.112 46.1998 12.416 47.0398 11.576C48.0238 11.768 49.2358 11.936 50.6758 12.08C52.1158 12.2 53.5438 12.284 54.9598 12.332C54.8878 12.764 54.8518 13.304 54.8518 13.952C54.8518 14.456 54.8758 15.008 54.9238 15.608C54.9718 16.184 55.0318 16.76 55.1038 17.336C55.1758 17.912 55.2718 18.464 55.3918 18.992C55.5118 19.52 55.6438 19.976 55.7878 20.36C54.3238 20.48 52.8358 20.648 51.3238 20.864C49.8118 21.056 48.3358 21.272 46.8958 21.512C46.8718 22.208 46.8238 22.892 46.7518 23.564C46.6798 24.236 46.6198 24.824 46.5718 25.328C46.8598 25.448 47.2198 25.556 47.6518 25.652C48.1078 25.748 48.5878 25.844 49.0918 25.94C49.5958 26.012 50.0878 26.084 50.5678 26.156C51.0478 26.204 51.4558 26.24 51.7918 26.264C51.9118 25.52 52.1998 24.884 52.6558 24.356C53.1358 23.828 53.9398 23.396 55.0678 23.06C55.0438 23.348 55.0318 23.636 55.0318 23.924C55.0318 24.188 55.0318 24.452 55.0318 24.716C55.0318 25.532 55.0558 26.18 55.1038 26.66C55.1758 27.116 55.2958 27.572 55.4638 28.028C55.0078 28.076 54.4678 28.172 53.8438 28.316C53.2198 28.436 52.5958 28.604 51.9718 28.82C51.3478 29.012 50.7478 29.216 50.1718 29.432C49.6198 29.672 49.1758 29.912 48.8398 30.152ZM46.5358 14.816C46.6558 15.824 46.7398 16.712 46.7878 17.48C46.8598 18.248 46.9078 18.956 46.9318 19.604L51.1438 18.56C51.0238 18.08 50.9158 17.576 50.8198 17.048C50.7478 16.52 50.7118 15.98 50.7118 15.428C50.1598 15.428 49.4878 15.38 48.6958 15.284C47.9278 15.164 47.2078 15.008 46.5358 14.816ZM63.7775 14.492C63.7295 14.876 63.6935 15.248 63.6695 15.608C63.6695 15.968 63.6695 16.388 63.6695 16.868C63.6695 17.348 63.6815 17.828 63.7055 18.308C63.7295 18.788 63.7655 19.22 63.8135 19.604C64.2695 19.436 64.7375 19.292 65.2175 19.172C65.7215 19.052 66.2735 18.944 66.8735 18.848C67.4975 18.752 68.1935 18.668 68.9615 18.596C69.7295 18.524 70.6295 18.452 71.6615 18.38C71.5895 19.22 71.5535 20.444 71.5535 22.052C71.5535 23.42 71.5775 24.644 71.6255 25.724C71.6735 26.78 71.7575 27.584 71.8775 28.136C71.1335 28.136 70.3775 28.184 69.6095 28.28C68.8415 28.376 68.1095 28.508 67.4135 28.676C66.7175 28.844 66.0695 29.048 65.4695 29.288C64.8695 29.528 64.3655 29.792 63.9575 30.08C63.6695 29.816 63.3455 29.588 62.9855 29.396C62.6495 29.204 62.2415 29.048 61.7615 28.928C61.2815 28.784 60.7175 28.676 60.0695 28.604C59.4215 28.508 58.6535 28.436 57.7655 28.388C57.8135 27.644 57.9575 26.888 58.1975 26.12C58.4615 25.328 58.7855 24.692 59.1695 24.212C59.7215 24.212 60.5855 24.416 61.7615 24.824C62.9375 25.232 64.4975 25.868 66.4415 26.732C66.5855 25.964 66.6935 25.268 66.7655 24.644C66.8375 23.996 66.8735 23.324 66.8735 22.628C66.8735 22.196 66.8735 21.884 66.8735 21.692C66.8735 21.5 66.8615 21.32 66.8375 21.152C65.7815 21.248 64.5575 21.428 63.1655 21.692C61.7735 21.932 60.4655 22.22 59.2415 22.556C59.3375 21.524 59.3975 20.732 59.4215 20.18C59.4455 19.604 59.4575 19.088 59.4575 18.632C59.4575 17.552 59.3975 16.604 59.2775 15.788C59.1815 14.972 59.0135 14.216 58.7735 13.52C59.6855 13.52 60.6695 13.364 61.7255 13.052C62.7815 12.74 64.1015 12.248 65.6855 11.576C67.1975 12.344 69.4535 12.836 72.4535 13.052C72.0215 14.084 71.5295 14.84 70.9775 15.32C70.4255 15.776 69.7415 16.004 68.9255 16.004C68.5655 16.004 68.1575 15.968 67.7015 15.896C67.2455 15.824 66.7775 15.716 66.2975 15.572C65.8415 15.428 65.3855 15.272 64.9295 15.104C64.4975 14.912 64.1135 14.708 63.7775 14.492ZM80.3361 14.492C80.2881 14.876 80.2521 15.248 80.2281 15.608C80.2281 15.968 80.2281 16.388 80.2281 16.868C80.2281 17.348 80.2401 17.828 80.2641 18.308C80.2881 18.788 80.3241 19.22 80.3721 19.604C80.8281 19.436 81.2961 19.292 81.7761 19.172C82.2801 19.052 82.8321 18.944 83.4321 18.848C84.0561 18.752 84.7521 18.668 85.5201 18.596C86.2881 18.524 87.1881 18.452 88.2201 18.38C88.1481 19.22 88.1121 20.444 88.1121 22.052C88.1121 23.42 88.1361 24.644 88.1841 25.724C88.2321 26.78 88.3161 27.584 88.4361 28.136C87.6921 28.136 86.9361 28.184 86.1681 28.28C85.4001 28.376 84.6681 28.508 83.9721 28.676C83.2761 28.844 82.6281 29.048 82.0281 29.288C81.4281 29.528 80.9241 29.792 80.5161 30.08C80.2281 29.816 79.9041 29.588 79.5441 29.396C79.2081 29.204 78.8001 29.048 78.3201 28.928C77.8401 28.784 77.2761 28.676 76.6281 28.604C75.9801 28.508 75.2121 28.436 74.3241 28.388C74.3721 27.644 74.5161 26.888 74.7561 26.12C75.0201 25.328 75.3441 24.692 75.7281 24.212C76.2801 24.212 77.1441 24.416 78.3201 24.824C79.4961 25.232 81.0561 25.868 83.0001 26.732C83.1441 25.964 83.2521 25.268 83.3241 24.644C83.3961 23.996 83.4321 23.324 83.4321 22.628C83.4321 22.196 83.4321 21.884 83.4321 21.692C83.4321 21.5 83.4201 21.32 83.3961 21.152C82.3401 21.248 81.1161 21.428 79.7241 21.692C78.3321 21.932 77.0241 22.22 75.8001 22.556C75.8961 21.524 75.9561 20.732 75.9801 20.18C76.0041 19.604 76.0161 19.088 76.0161 18.632C76.0161 17.552 75.9561 16.604 75.8361 15.788C75.7401 14.972 75.5721 14.216 75.3321 13.52C76.2441 13.52 77.2281 13.364 78.2841 13.052C79.3401 12.74 80.6601 12.248 82.2441 11.576C83.7561 12.344 86.0121 12.836 89.0121 13.052C88.5801 14.084 88.0881 14.84 87.5361 15.32C86.9841 15.776 86.3001 16.004 85.4841 16.004C85.1241 16.004 84.7161 15.968 84.2601 15.896C83.8041 15.824 83.3361 15.716 82.8561 15.572C82.4001 15.428 81.9441 15.272 81.4881 15.104C81.0561 14.912 80.6721 14.708 80.3361 14.492ZM119.683 31.016C118.315 30.536 116.959 30.008 115.615 29.432C114.295 28.88 112.987 28.22 111.691 27.452C111.379 27.764 111.103 28.028 110.863 28.244C110.623 28.46 110.371 28.652 110.107 28.82C109.843 28.964 109.555 29.084 109.243 29.18C108.955 29.3 108.607 29.408 108.199 29.504C108.439 29.216 108.607 28.868 108.703 28.46C108.799 28.052 108.847 27.632 108.847 27.2C108.847 26.504 108.751 25.832 108.559 25.184C108.391 24.512 108.235 23.948 108.091 23.492L107.227 20.756C106.531 21.668 105.835 22.676 105.139 23.78C104.467 24.884 103.879 25.94 103.375 26.948C102.967 26.372 102.415 25.556 101.719 24.5C101.047 23.444 100.291 22.304 99.4507 21.08L98.8747 22.952C98.7307 23.432 98.6107 23.912 98.5147 24.392C98.4427 24.872 98.4067 25.364 98.4067 25.868C98.4067 26.612 98.5027 27.344 98.6947 28.064C98.8867 28.784 99.1987 29.456 99.6307 30.08C99.1507 29.912 98.7427 29.744 98.4067 29.576C98.0947 29.408 97.7947 29.216 97.5067 29C97.2427 28.784 96.9667 28.556 96.6787 28.316C96.4147 28.052 96.1027 27.752 95.7427 27.416C94.7347 28.376 93.7387 29.048 92.7547 29.432C91.7707 29.84 90.6667 30.056 89.4427 30.08C89.8987 30.008 90.3787 29.708 90.8827 29.18C91.3867 28.676 91.8787 28.016 92.3587 27.2C92.8387 26.36 93.2947 25.412 93.7267 24.356C94.1827 23.3 94.5787 22.184 94.9147 21.008L96.0667 16.976C95.2267 16.088 94.3147 15.332 93.3307 14.708C92.3467 14.06 91.4587 13.736 90.6667 13.736C90.6187 13.736 90.5587 13.736 90.4867 13.736C90.4147 13.736 90.2707 13.748 90.0547 13.772L90.0187 13.664C91.0507 13.136 92.0107 12.872 92.8987 12.872C93.4987 12.872 94.1107 12.992 94.7347 13.232C95.3587 13.448 96.0787 13.784 96.8947 14.24L98.8387 7.58C98.9587 7.172 99.0427 6.812 99.0907 6.5C99.1387 6.188 99.1627 5.936 99.1627 5.744C99.1627 5.24 99.0067 4.88 98.6947 4.664C98.4067 4.448 97.8787 4.34 97.1107 4.34C96.6307 4.34 96.1147 4.376 95.5627 4.448C95.0107 4.52 94.3507 4.628 93.5827 4.772C93.7267 4.556 94.0747 4.304 94.6267 4.016C95.1787 3.728 95.8387 3.452 96.6067 3.188C97.3987 2.924 98.2387 2.708 99.1267 2.54C100.039 2.348 100.915 2.252 101.755 2.252C102.379 2.252 102.979 2.324 103.555 2.468C104.131 2.612 104.563 2.864 104.851 3.224C105.283 3.2 105.751 3.14 106.255 3.044C106.759 2.948 107.239 2.84 107.695 2.72C108.151 2.576 108.559 2.444 108.919 2.324C109.279 2.18 109.519 2.072 109.639 2C109.303 2.48 109.051 3.056 108.883 3.728C108.739 4.376 108.667 5.084 108.667 5.852C108.667 6.836 108.775 7.868 108.991 8.948C109.207 10.004 109.459 10.988 109.747 11.9C110.059 12.812 110.383 13.592 110.719 14.24C111.055 14.888 111.343 15.284 111.583 15.428C111.583 16.844 111.823 18.344 112.303 19.928C112.807 21.512 113.443 23.024 114.211 24.464C115.003 25.904 115.879 27.2 116.839 28.352C117.823 29.48 118.783 30.332 119.719 30.908L119.683 31.016ZM103.339 21.044C103.747 20.492 104.203 19.904 104.707 19.28C105.235 18.632 105.715 17.996 106.147 17.372L103.375 8.372L100.531 17.66C101.011 18.164 101.491 18.728 101.971 19.352C102.475 19.976 102.931 20.54 103.339 21.044ZM128.7 2.396C128.196 2.732 127.764 3.188 127.404 3.764C127.068 4.316 126.792 4.928 126.576 5.6C126.384 6.248 126.24 6.932 126.144 7.652C126.048 8.348 126 9.02 126 9.668C126 10.124 126.012 10.616 126.036 11.144C126.084 11.648 126.144 12.176 126.216 12.728C126.312 13.256 126.42 13.784 126.54 14.312C126.684 14.816 126.852 15.284 127.044 15.716C126.66 16.364 126.396 17.144 126.252 18.056C126.132 18.968 126.072 19.88 126.072 20.792C126.072 22.328 126.264 23.792 126.648 25.184C127.032 26.552 127.836 27.896 129.06 29.216C127.764 29.048 126.624 28.94 125.64 28.892C124.68 28.82 123.804 28.784 123.012 28.784C121.932 28.784 120.996 28.82 120.204 28.892C119.412 28.964 118.62 29.06 117.828 29.18C118.332 28.868 118.8 28.46 119.232 27.956C119.664 27.428 120.036 26.852 120.348 26.228C120.66 25.604 120.9 24.944 121.068 24.248C121.26 23.552 121.356 22.868 121.356 22.196C121.356 20.972 121.212 19.784 120.924 18.632C120.636 17.456 120.18 16.484 119.556 15.716C120.228 14.468 120.672 13.328 120.888 12.296C121.104 11.264 121.212 10.196 121.212 9.092C121.212 8.42 121.176 7.7 121.104 6.932C120.168 6.548 119.532 5.948 119.196 5.132C118.86 4.292 118.644 3.368 118.548 2.36C119.34 2.576 120.072 2.732 120.744 2.828C121.44 2.924 122.1 2.972 122.724 2.972C123.828 2.972 124.848 2.912 125.784 2.792C126.72 2.648 127.692 2.516 128.7 2.396ZM131.597 28.208C132.005 27.512 132.497 26.828 133.073 26.156C133.673 25.46 134.333 24.92 135.053 24.536C135.197 24.728 135.413 24.956 135.701 25.22C136.013 25.484 136.337 25.748 136.673 26.012C137.033 26.276 137.369 26.528 137.681 26.768C138.017 26.984 138.269 27.14 138.437 27.236C137.621 27.812 136.925 28.376 136.349 28.928C135.797 29.456 135.317 30.128 134.909 30.944C134.765 30.776 134.537 30.56 134.225 30.296C133.937 30.056 133.625 29.804 133.289 29.54C132.953 29.276 132.629 29.024 132.317 28.784C132.005 28.544 131.765 28.352 131.597 28.208ZM146.509 17.444C147.061 16.556 147.577 15.62 148.057 14.636C148.537 13.652 148.981 12.608 149.389 11.504C149.845 11.792 150.493 12.092 151.333 12.404C152.173 12.692 153.097 12.956 154.105 13.196C153.985 14.204 153.769 15.128 153.457 15.968C153.145 16.784 152.749 17.468 152.269 18.02L149.857 16.76H149.425L146.509 20.864V25.832C146.509 26.672 146.653 27.284 146.941 27.668C147.253 28.028 147.793 28.268 148.561 28.388V29H140.857V28.46C141.505 28.22 141.829 27.452 141.829 26.156V13.592L140.497 13.016V12.62C141.337 12.5 142.249 12.344 143.233 12.152C144.217 11.936 145.093 11.732 145.861 11.54L146.509 12.62V17.444ZM154.898 13.052C155.402 13.004 155.966 12.932 156.59 12.836C157.214 12.716 157.838 12.584 158.462 12.44C159.086 12.296 159.662 12.152 160.19 12.008C160.718 11.84 161.138 11.684 161.45 11.54C161.402 11.948 161.354 12.32 161.306 12.656C161.282 12.992 161.258 13.352 161.234 13.736C161.234 14.12 161.222 14.54 161.198 14.996C161.198 15.452 161.198 15.992 161.198 16.616V23.888L162.71 25.04L166.166 23.528V17.912C166.166 17.096 166.142 16.424 166.094 15.896C166.07 15.368 165.998 14.948 165.878 14.636C165.758 14.324 165.59 14.096 165.374 13.952C165.182 13.784 164.906 13.652 164.546 13.556V13.088C165.698 13.016 166.826 12.848 167.93 12.584C169.058 12.32 170.03 11.984 170.846 11.576V20.072C170.846 21.2 170.87 22.124 170.918 22.844C170.966 23.54 171.05 24.104 171.17 24.536C171.29 24.968 171.446 25.28 171.638 25.472C171.854 25.664 172.13 25.796 172.466 25.868V26.264C172.154 26.408 171.806 26.624 171.422 26.912C171.038 27.2 170.666 27.524 170.306 27.884C169.946 28.244 169.622 28.616 169.334 29C169.046 29.36 168.83 29.696 168.686 30.008C167.894 29.336 167.318 28.712 166.958 28.136C166.622 27.56 166.394 26.852 166.274 26.012C165.554 26.372 164.918 26.708 164.366 27.02C163.838 27.332 163.346 27.644 162.89 27.956C162.458 28.268 162.05 28.592 161.666 28.928C161.306 29.264 160.934 29.624 160.55 30.008C160.07 29.576 159.638 29.216 159.254 28.928C158.894 28.616 158.534 28.34 158.174 28.1C157.838 27.86 157.49 27.644 157.13 27.452C156.794 27.236 156.41 27.008 155.978 26.768C156.074 26.624 156.158 26.3 156.23 25.796C156.326 25.292 156.41 24.68 156.482 23.96C156.554 23.24 156.602 22.472 156.626 21.656C156.674 20.816 156.698 20.012 156.698 19.244C156.698 18.38 156.662 17.636 156.59 17.012C156.542 16.364 156.446 15.812 156.302 15.356C156.158 14.9 155.966 14.528 155.726 14.24C155.51 13.928 155.222 13.664 154.862 13.448L154.898 13.052Z" fill="#D1A954"/>
</svg>
