<svg width="451" height="214" viewBox="0 0 451 214" fill="none" xmlns="http://www.w3.org/2000/svg">
<g filter="url(#filter0_d)">
<path d="M45.1026 7.49177C41.7352 11.6236 38.8098 15.2247 38.5995 15.498L38.2206 15.9964L41.0617 19.3404C42.6191 21.1732 44.0713 22.9095 44.3028 23.1667C44.5343 23.44 44.6185 23.6168 44.5133 23.5686C44.1765 23.4078 33.0433 19.5816 32.9171 19.5816C32.8539 19.5816 32.8539 20.0639 32.9171 20.6587C32.9802 21.2697 33.1486 25.5621 33.2959 30.2244C33.4222 34.9029 33.6116 38.7131 33.6958 38.7131C33.7589 38.7131 36.2001 37.9413 39.0624 37.0089C41.9457 36.0761 44.5133 35.2402 44.7658 35.1599C45.2078 35.0314 45.1447 35.1599 44.3028 36.3497C43.7767 37.073 42.6612 38.6325 41.8404 39.7902L40.3251 41.9282H39.336C38.5574 41.9282 38.2417 42.0088 37.7996 42.3462C37.0421 42.9412 37.0421 43.8092 37.8207 44.4042C38.1154 44.6292 38.3259 44.8542 38.2838 44.8863C38.2417 44.9025 37.4418 45.1757 36.5159 45.4651C30.4547 47.3623 27.9292 49.0824 27.9292 51.3172C27.9292 51.8799 28.3291 53.0855 29.213 55.1918C32.2226 62.3457 37.0842 76.8311 36.6001 77.217C36.558 77.2491 35.7162 77.3617 34.7269 77.4582C32.7908 77.6508 32.0963 77.892 31.7385 78.5029C31.2334 79.3712 32.1805 80.2071 33.9273 80.4321C34.6006 80.5286 34.706 80.5768 34.4955 80.7698C34.3692 80.8987 34.3271 81.1719 34.3903 81.3969C34.5166 81.7666 34.4745 81.7987 33.8431 81.7987C32.9171 81.8149 31.4439 82.3293 31.1492 82.7634C31.0229 82.9402 30.9388 83.2455 30.9808 83.4384C31.044 83.7279 30.7072 83.8564 28.2449 84.5479C26.6875 84.9659 25.0248 85.4965 24.5197 85.7377C21.889 86.9113 22.2047 88.6634 25.2353 89.8211C25.8877 90.0782 29.3393 91.2035 32.896 92.3289L39.3991 94.387L38.1575 94.6764C36.7685 95.0141 36.2001 95.432 36.2001 96.1876C36.2001 96.8144 36.6632 97.1683 38.0101 97.538L39.0413 97.8112L39.1045 102.86C39.3571 122.538 35.0427 146.524 29.4024 156.764C28.5606 158.277 28.4764 158.372 27.5293 158.742C26.2034 159.257 25.8456 159.707 25.7615 160.961C25.7404 161.604 25.572 162.167 25.3405 162.424C25.088 162.713 24.9617 163.211 24.9407 163.999C24.9196 164.674 24.7723 165.415 24.5618 165.784C23.699 167.295 20.7946 170.88 15.407 177.086C11.5555 181.523 10.0402 183.886 9.34572 186.475C8.86166 188.292 9.03001 189.594 9.93499 190.96C10.377 191.619 10.9242 192.165 11.4924 192.487C12.5236 193.082 13.4707 193.966 13.4707 194.353C13.4707 194.562 13.1971 194.674 12.25 194.818C9.95604 195.173 7.05172 195.799 5.89419 196.201C3.97902 196.877 4.00007 196.829 4.00007 199.16C4.00007 201.491 3.95798 201.443 5.95734 202.134C10.7979 203.838 24.5829 205.124 42.6823 205.591C68.4422 206.25 96.2651 204.658 103.484 202.134C105.483 201.443 105.441 201.491 105.441 199.16C105.441 196.829 105.483 196.877 103.484 196.185C102.221 195.735 98.1592 194.899 96.4124 194.722C95.0866 194.594 95.0446 194.369 96.2227 193.565C98.18 192.231 99.1485 191.363 99.7587 190.43C101.4 187.825 101.442 185.14 99.864 182.762C99.5903 182.359 97.9695 180.591 96.2651 178.823C89.8249 172.167 86.1 168.002 84.7738 165.961C84.4792 165.51 84.1847 164.723 84.1215 164.144C84.0375 163.598 83.8477 162.939 83.6797 162.697C83.5324 162.456 83.3427 161.813 83.2799 161.267C83.1534 160.093 82.6484 159.337 81.7012 158.887C80.1228 158.116 77.3448 152.65 74.8404 145.302C70.5468 132.714 66.7166 111.814 66.7166 100.833V97.7468L67.6214 97.57C68.9685 97.3288 69.6632 96.8468 69.6632 96.1876C69.6632 95.3676 69.0949 94.9817 67.4322 94.6602C66.1271 94.4031 66.0223 94.3549 66.5061 94.2102C66.8007 94.1296 69.7893 93.2937 73.1356 92.3613C80.3966 90.3518 80.7331 90.2391 81.6171 89.7247C83.0902 88.8726 83.2799 87.8919 82.1434 86.9272C81.2381 86.1557 80.6491 85.9145 76.7133 84.6765C73.9984 83.8244 73.7671 83.7279 73.6406 83.2937C73.5774 83.0205 73.4514 82.7311 73.3461 82.6187C73.0724 82.2649 71.494 81.7987 70.5468 81.7987C69.7052 81.7987 69.6632 81.7828 69.8737 81.4772C70.021 81.2522 70.0418 81.0592 69.8737 80.8504C69.684 80.561 69.7472 80.5286 70.652 80.4163C71.873 80.2874 72.3781 80.1107 72.8619 79.6445C73.8724 78.7121 72.7991 77.7473 70.3995 77.442L68.8212 77.2329V76.6543C68.8212 75.0304 72.4413 61.7027 74.9664 54.0661C76.7977 48.4877 76.482 48.1982 64.8646 44.9507L64.3595 44.8222L64.9066 44.3236C66.0431 43.3109 65.2436 41.9282 63.5388 41.9282H62.718L60.5082 38.5522C59.2876 36.6874 58.3616 35.1761 58.4456 35.1761C58.5509 35.1761 64.1911 36.848 69.2002 38.343C69.3895 38.4075 69.4527 36.43 69.4527 28.7614C69.4527 23.44 69.3682 19.0992 69.2842 19.0992C69.2002 19.0992 66.6534 20.096 63.6652 21.3178C60.6554 22.5557 58.1511 23.5365 58.1299 23.5043C58.0878 23.4882 59.2664 21.6716 60.7395 19.469L63.4123 15.482L58.1931 8.89046C55.3098 5.25711 52.5529 1.78453 52.0899 1.14145L51.2271 0L45.1026 7.49177Z" fill="#D1A954"/>
<path d="M126.28 179.773C126.945 179.389 127.522 178.665 128.009 177.6C128.541 176.534 128.985 175.32 129.34 173.956C129.739 172.593 130.027 171.187 130.205 169.738C130.383 168.246 130.471 166.882 130.471 165.647C130.471 163.729 130.249 161.896 129.806 160.15C129.406 158.403 128.83 157.082 128.076 156.187C128.786 155.504 129.362 154.61 129.806 153.502C130.293 152.352 130.67 151.137 130.937 149.859C131.203 148.537 131.381 147.195 131.469 145.832C131.557 144.468 131.602 143.19 131.602 141.997C131.602 141.017 131.58 140.164 131.535 139.44C131.491 138.716 131.447 138.162 131.402 137.778C130.383 137.438 129.318 136.734 128.209 135.669C127.145 134.603 126.346 133.452 125.814 132.217C128.653 132.516 131.336 132.728 133.864 132.856C136.437 132.941 138.853 132.984 141.116 132.984C145.95 132.984 149.853 132.835 152.824 132.537C155.797 132.238 158.147 132.089 159.877 132.089C160.231 132.089 160.542 132.11 160.808 132.153C161.074 132.153 161.319 132.174 161.54 132.217C161.273 132.728 160.986 133.687 160.675 135.094C160.409 136.5 160.143 138.034 159.877 139.696C159.61 141.357 159.366 142.976 159.145 144.554C158.967 146.131 158.834 147.323 158.746 148.133L158.28 148.325C156.728 147.217 155.597 146.003 154.887 144.681C154.222 143.318 153.711 141.656 153.357 139.696C152.736 139.227 151.959 138.929 151.028 138.801C150.097 138.673 148.921 138.609 147.502 138.609C146.35 138.609 145.24 138.63 144.176 138.673C143.112 138.716 142.268 138.737 141.648 138.737C141.426 139.972 141.227 141.4 141.049 143.02C140.916 144.638 140.783 146.364 140.65 148.197C140.561 150.03 140.472 151.947 140.384 153.949C140.339 155.91 140.317 157.87 140.317 159.83C140.317 162.515 140.339 165.072 140.384 167.5C140.472 169.887 140.605 171.975 140.783 173.765L152.026 174.851C152.647 172.21 153.734 169.865 155.286 167.82C156.883 165.774 158.591 163.793 160.409 161.875L160.808 162.003C160.675 162.983 160.587 163.964 160.542 164.944C160.497 165.881 160.475 166.797 160.475 167.692C160.475 169.908 160.587 171.911 160.808 173.7C161.029 175.49 161.296 176.833 161.606 177.727C160.852 177.812 160.098 177.94 159.344 178.111C158.634 178.239 157.859 178.473 157.016 178.814C156.173 179.155 155.264 179.624 154.288 180.22C153.357 180.816 152.314 181.583 151.161 182.521C147.436 181.456 143.755 180.647 140.118 180.092C136.48 179.581 133.198 179.325 130.271 179.325C128.852 179.325 127.544 179.538 126.346 179.965L126.28 179.773ZM185.359 185.717C185.625 184.865 185.868 183.8 186.091 182.521C186.312 181.286 186.49 180.049 186.623 178.814C186.756 177.535 186.866 176.364 186.956 175.299C187.044 174.233 187.089 173.466 187.089 172.997C187.089 170.568 187.066 168.14 187.022 165.711C187.022 163.282 187.022 160.853 187.022 158.424L186.158 157.529L177.975 161.045V174.148C177.975 176.833 178.573 178.388 179.771 178.814V179.773H167.53V178.814C168.061 178.601 168.482 178.175 168.793 177.535C169.148 176.854 169.326 175.917 169.326 174.723V141.102C169.326 140.036 169.303 139.077 169.259 138.226C169.214 137.374 169.103 136.584 168.926 135.861C168.793 135.136 168.594 134.433 168.328 133.751C168.061 133.069 167.729 132.366 167.33 131.642C168.217 131.94 169.259 132.089 170.457 132.089C171.92 132.089 173.45 131.855 175.047 131.386C176.688 130.918 178.44 130.257 180.303 129.405C179.415 130.427 178.794 131.791 178.44 133.495C178.129 135.2 177.975 137.16 177.975 139.376V156.634C179.881 155.441 181.589 154.248 183.097 153.055C184.604 151.861 186.158 150.455 187.754 148.836C188.508 149.518 189.195 150.135 189.817 150.69C190.437 151.201 191.058 151.669 191.679 152.096C192.344 152.522 193.032 152.948 193.742 153.374C194.451 153.758 195.272 154.162 196.203 154.589C196.026 155.185 195.871 155.824 195.738 156.506C195.648 157.146 195.56 157.976 195.472 158.999C195.427 160.022 195.382 161.279 195.338 162.77C195.294 164.262 195.272 166.115 195.272 168.331C195.272 170.206 195.272 171.762 195.272 172.997C195.316 174.191 195.36 175.171 195.405 175.938C195.449 176.705 195.515 177.344 195.605 177.855C195.693 178.323 195.781 178.771 195.871 179.198C194.983 179.496 194.074 179.901 193.143 180.412C192.255 180.923 191.346 181.499 190.415 182.138C189.527 182.777 188.685 183.437 187.887 184.119C187.089 184.801 186.379 185.461 185.758 186.101L185.359 185.717ZM215.324 181.818C214.481 181.222 213.44 180.668 212.197 180.156C210.955 179.645 209.669 179.219 208.339 178.878C207.053 178.494 205.789 178.196 204.547 177.983C203.349 177.77 202.351 177.664 201.553 177.664C201.907 177.109 202.218 176.342 202.484 175.362C202.75 174.34 202.95 173.253 203.083 172.102C203.261 170.909 203.371 169.695 203.415 168.459C203.504 167.224 203.549 166.094 203.549 165.072C203.549 162.472 203.371 160.32 203.016 158.615C202.705 156.869 202.396 155.504 202.085 154.525C203.992 154.184 205.722 153.523 207.274 152.543C208.871 151.564 210.446 150.327 211.998 148.836C213.815 149.177 216.056 149.475 218.717 149.731C221.378 149.944 224.017 150.093 226.634 150.178C226.501 150.945 226.434 151.904 226.434 153.055C226.434 153.949 226.479 154.929 226.567 155.995C226.656 157.018 226.767 158.04 226.9 159.063C227.033 160.086 227.211 161.065 227.432 162.003C227.654 162.941 227.898 163.75 228.164 164.432C225.458 164.645 222.708 164.944 219.914 165.327C217.12 165.668 214.392 166.051 211.731 166.478C211.687 167.713 211.598 168.928 211.465 170.121C211.332 171.314 211.221 172.358 211.133 173.253C211.665 173.466 212.33 173.657 213.129 173.828C213.971 173.999 214.858 174.169 215.79 174.34C216.721 174.467 217.63 174.595 218.518 174.723C219.404 174.808 220.159 174.872 220.779 174.915C221.001 173.594 221.533 172.465 222.376 171.527C223.263 170.589 224.749 169.822 226.834 169.226C226.789 169.738 226.767 170.249 226.767 170.76C226.767 171.229 226.767 171.698 226.767 172.166C226.767 173.616 226.812 174.766 226.9 175.618C227.033 176.428 227.255 177.237 227.565 178.047C226.722 178.132 225.724 178.303 224.571 178.558C223.419 178.771 222.265 179.07 221.112 179.453C219.959 179.794 218.85 180.156 217.786 180.54C216.766 180.966 215.945 181.392 215.324 181.818ZM211.066 154.589C211.288 156.379 211.444 157.955 211.532 159.319C211.665 160.682 211.753 161.94 211.798 163.09L219.582 161.236C219.36 160.384 219.161 159.49 218.983 158.552C218.85 157.614 218.783 156.655 218.783 155.675C217.764 155.675 216.522 155.591 215.058 155.42C213.639 155.207 212.308 154.929 211.066 154.589ZM242.929 154.014C242.841 154.696 242.774 155.356 242.729 155.995C242.729 156.634 242.729 157.38 242.729 158.232C242.729 159.084 242.752 159.937 242.796 160.789C242.841 161.641 242.907 162.408 242.996 163.09C243.839 162.791 244.704 162.536 245.59 162.323C246.522 162.11 247.542 161.918 248.651 161.748C249.803 161.577 251.091 161.428 252.509 161.3C253.928 161.173 255.592 161.045 257.499 160.917C257.366 162.408 257.299 164.581 257.299 167.436C257.299 169.865 257.344 172.039 257.432 173.956C257.521 175.831 257.677 177.259 257.898 178.239C256.523 178.239 255.126 178.323 253.707 178.494C252.288 178.665 250.935 178.899 249.649 179.198C248.363 179.496 247.165 179.858 246.056 180.284C244.947 180.711 244.015 181.179 243.262 181.69C242.729 181.222 242.131 180.816 241.466 180.476C240.845 180.135 240.09 179.858 239.204 179.645C238.317 179.389 237.274 179.198 236.077 179.07C234.879 178.899 233.46 178.771 231.819 178.686C231.907 177.365 232.173 176.023 232.617 174.659C233.105 173.253 233.703 172.123 234.413 171.272C235.433 171.272 237.03 171.634 239.204 172.358C241.377 173.082 244.26 174.212 247.852 175.746C248.118 174.383 248.318 173.146 248.451 172.039C248.584 170.888 248.651 169.695 248.651 168.459C248.651 167.692 248.651 167.138 248.651 166.797C248.651 166.457 248.629 166.137 248.584 165.839C246.633 166.009 244.371 166.329 241.798 166.797C239.225 167.224 236.809 167.735 234.547 168.331C234.724 166.499 234.834 165.092 234.879 164.113C234.924 163.09 234.946 162.174 234.946 161.364C234.946 159.447 234.834 157.764 234.613 156.315C234.435 154.865 234.126 153.523 233.682 152.288C235.367 152.288 237.186 152.011 239.137 151.457C241.088 150.902 243.528 150.03 246.455 148.836C249.249 150.199 253.419 151.073 258.963 151.457C258.164 153.289 257.255 154.632 256.235 155.483C255.215 156.293 253.951 156.698 252.443 156.698C251.778 156.698 251.024 156.634 250.181 156.506C249.338 156.379 248.473 156.187 247.586 155.931C246.743 155.675 245.901 155.399 245.058 155.1C244.26 154.759 243.55 154.397 242.929 154.014ZM273.53 154.014C273.441 154.696 273.374 155.356 273.331 155.995C273.331 156.634 273.331 157.38 273.331 158.232C273.331 159.084 273.353 159.937 273.397 160.789C273.441 161.641 273.508 162.408 273.597 163.09C274.439 162.791 275.304 162.536 276.191 162.323C277.123 162.11 278.142 161.918 279.252 161.748C280.405 161.577 281.69 161.428 283.11 161.3C284.529 161.173 286.193 161.045 288.1 160.917C287.967 162.408 287.9 164.581 287.9 167.436C287.9 169.865 287.944 172.039 288.033 173.956C288.122 175.831 288.277 177.259 288.499 178.239C287.124 178.239 285.727 178.323 284.308 178.494C282.888 178.665 281.536 178.899 280.25 179.198C278.963 179.496 277.765 179.858 276.657 180.284C275.548 180.711 274.616 181.179 273.863 181.69C273.331 181.222 272.732 180.816 272.067 180.476C271.445 180.135 270.691 179.858 269.805 179.645C268.917 179.389 267.875 179.198 266.678 179.07C265.48 178.899 264.06 178.771 262.42 178.686C262.508 177.365 262.775 176.023 263.218 174.659C263.706 173.253 264.304 172.123 265.015 171.272C266.034 171.272 267.631 171.634 269.805 172.358C271.977 173.082 274.861 174.212 278.453 175.746C278.719 174.383 278.919 173.146 279.052 172.039C279.185 170.888 279.252 169.695 279.252 168.459C279.252 167.692 279.252 167.138 279.252 166.797C279.252 166.457 279.229 166.137 279.185 165.839C277.233 166.009 274.971 166.329 272.399 166.797C269.826 167.224 267.41 167.735 265.148 168.331C265.324 166.499 265.436 165.092 265.48 164.113C265.524 163.09 265.547 162.174 265.547 161.364C265.547 159.447 265.435 157.764 265.214 156.315C265.036 154.865 264.725 153.523 264.283 152.288C265.968 152.288 267.786 152.011 269.738 151.457C271.689 150.902 274.129 150.03 277.056 148.836C279.85 150.199 284.019 151.073 289.564 151.457C288.765 153.289 287.856 154.632 286.836 155.483C285.815 156.293 284.551 156.698 283.044 156.698C282.379 156.698 281.624 156.634 280.782 156.506C279.939 156.379 279.074 156.187 278.187 155.931C277.344 155.675 276.501 155.399 275.659 155.1C274.861 154.759 274.151 154.397 273.53 154.014ZM346.243 183.352C343.715 182.5 341.209 181.562 338.725 180.54C336.285 179.56 333.868 178.388 331.474 177.024C330.897 177.579 330.387 178.047 329.943 178.431C329.499 178.814 329.034 179.155 328.546 179.453C328.059 179.709 327.527 179.922 326.95 180.092C326.417 180.305 325.774 180.497 325.02 180.668C325.464 180.156 325.774 179.538 325.952 178.814C326.129 178.09 326.218 177.344 326.218 176.577C326.218 175.341 326.04 174.148 325.686 172.997C325.375 171.804 325.087 170.803 324.821 169.993L323.224 165.135C321.938 166.754 320.651 168.544 319.366 170.505C318.123 172.465 317.037 174.34 316.105 176.129C315.352 175.107 314.331 173.657 313.045 171.783C311.803 169.908 310.406 167.884 308.854 165.711L307.789 169.034C307.523 169.886 307.302 170.739 307.124 171.591C306.991 172.443 306.924 173.317 306.924 174.212C306.924 175.533 307.102 176.833 307.457 178.111C307.811 179.389 308.388 180.583 309.187 181.69C308.3 181.392 307.545 181.094 306.924 180.795C306.347 180.497 305.793 180.156 305.261 179.773C304.774 179.389 304.263 178.985 303.731 178.558C303.244 178.09 302.667 177.556 302.001 176.96C300.139 178.665 298.298 179.858 296.479 180.54C294.662 181.264 292.621 181.647 290.359 181.69C291.202 181.562 292.089 181.03 293.02 180.092C293.951 179.198 294.861 178.026 295.748 176.577C296.635 175.086 297.477 173.402 298.276 171.527C299.119 169.653 299.85 167.671 300.471 165.583L302.6 158.424C301.048 156.847 299.362 155.504 297.544 154.397C295.726 153.247 294.085 152.671 292.621 152.671C292.532 152.671 292.421 152.671 292.288 152.671C292.155 152.671 291.889 152.692 291.49 152.735L291.424 152.543C293.331 151.605 295.104 151.137 296.745 151.137C297.855 151.137 298.986 151.35 300.139 151.776C301.292 152.16 302.622 152.756 304.13 153.566L307.723 141.741C307.944 141.017 308.1 140.378 308.189 139.823C308.277 139.269 308.322 138.822 308.322 138.481C308.322 137.586 308.034 136.947 307.457 136.563C306.924 136.18 305.948 135.988 304.53 135.988C303.643 135.988 302.688 136.052 301.669 136.18C300.649 136.308 299.429 136.5 298.01 136.755C298.276 136.372 298.919 135.924 299.939 135.413C300.959 134.902 302.179 134.411 303.598 133.943C305.062 133.474 306.614 133.091 308.255 132.792C309.94 132.452 311.56 132.281 313.112 132.281C314.265 132.281 315.373 132.409 316.438 132.664C317.503 132.92 318.301 133.368 318.833 134.007C319.632 133.964 320.496 133.858 321.428 133.687C322.359 133.516 323.246 133.325 324.089 133.112C324.932 132.856 325.686 132.622 326.351 132.409C327.016 132.153 327.46 131.961 327.681 131.834C327.061 132.685 326.595 133.708 326.284 134.902C326.018 136.052 325.885 137.31 325.885 138.673C325.885 140.42 326.085 142.253 326.484 144.17C326.883 146.044 327.349 147.792 327.881 149.411C328.458 151.03 329.057 152.415 329.677 153.566C330.298 154.716 330.83 155.42 331.274 155.675C331.274 158.189 331.718 160.853 332.605 163.665C333.536 166.478 334.712 169.162 336.131 171.719C337.594 174.276 339.213 176.577 340.987 178.622C342.805 180.625 344.58 182.138 346.31 183.16L346.243 183.352ZM316.039 165.647C316.792 164.667 317.636 163.622 318.567 162.515C319.543 161.364 320.43 160.235 321.228 159.127L316.105 143.147L310.85 159.638C311.736 160.533 312.624 161.535 313.511 162.642C314.442 163.75 315.285 164.752 316.039 165.647ZM362.906 132.537C361.975 133.133 361.176 133.943 360.511 134.966C359.89 135.945 359.38 137.032 358.981 138.226C358.627 139.376 358.361 140.59 358.183 141.869C358.005 143.104 357.917 144.298 357.917 145.448C357.917 146.258 357.938 147.131 357.983 148.069C358.071 148.964 358.183 149.902 358.316 150.881C358.494 151.819 358.693 152.756 358.915 153.694C359.18 154.589 359.491 155.42 359.846 156.187C359.136 157.337 358.648 158.723 358.382 160.341C358.161 161.961 358.05 163.58 358.05 165.199C358.05 167.927 358.404 170.526 359.114 172.997C359.824 175.426 361.309 177.812 363.572 180.156C361.176 179.858 359.07 179.666 357.251 179.581C355.477 179.453 353.858 179.389 352.395 179.389C350.399 179.389 348.669 179.453 347.205 179.581C345.742 179.709 344.278 179.88 342.815 180.092C343.746 179.538 344.611 178.814 345.409 177.919C346.207 176.981 346.895 175.959 347.472 174.851C348.049 173.744 348.491 172.571 348.802 171.335C349.157 170.1 349.335 168.886 349.335 167.692C349.335 165.519 349.068 163.409 348.536 161.364C348.004 159.276 347.161 157.55 346.008 156.187C347.25 153.97 348.07 151.947 348.47 150.114C348.869 148.282 349.068 146.386 349.068 144.426C349.068 143.232 349.002 141.954 348.869 140.59C347.139 139.908 345.963 138.844 345.342 137.395C344.722 135.903 344.323 134.262 344.145 132.473C345.609 132.856 346.961 133.133 348.203 133.304C349.489 133.474 350.71 133.56 351.862 133.56C353.903 133.56 355.788 133.452 357.517 133.24C359.247 132.984 361.043 132.749 362.906 132.537ZM368.261 178.367C369.014 177.131 369.924 175.917 370.988 174.723C372.098 173.488 373.317 172.529 374.648 171.847C374.913 172.188 375.313 172.593 375.845 173.061C376.422 173.53 377.021 173.999 377.641 174.467C378.307 174.936 378.927 175.383 379.504 175.81C380.124 176.193 380.591 176.47 380.901 176.641C379.393 177.664 378.107 178.665 377.043 179.645C376.023 180.583 375.135 181.775 374.381 183.225C374.115 182.926 373.694 182.542 373.117 182.074C372.585 181.647 372.008 181.2 371.388 180.732C370.767 180.263 370.168 179.816 369.591 179.389C369.014 178.963 368.572 178.622 368.261 178.367ZM395.818 159.255C396.838 157.678 397.791 156.016 398.679 154.269C399.565 152.522 400.386 150.669 401.14 148.708C401.982 149.22 403.18 149.752 404.733 150.306C406.285 150.817 407.993 151.286 409.856 151.713C409.633 153.502 409.234 155.143 408.658 156.634C408.081 158.083 407.349 159.298 406.463 160.278L402.005 158.04H401.207L395.818 165.327V174.148C395.818 175.639 396.084 176.726 396.616 177.408C397.192 178.047 398.19 178.473 399.61 178.686V179.773H385.373V178.814C386.571 178.388 387.169 177.024 387.169 174.723V152.415L384.708 151.393V150.69C386.26 150.477 387.945 150.199 389.764 149.859C391.582 149.475 393.201 149.113 394.62 148.772L395.818 150.69V159.255ZM411.321 151.457C412.253 151.372 413.295 151.244 414.448 151.073C415.601 150.86 416.755 150.626 417.908 150.37C419.061 150.114 420.125 149.859 421.101 149.603C422.077 149.304 422.853 149.028 423.43 148.772C423.341 149.496 423.252 150.158 423.164 150.754C423.119 151.35 423.075 151.989 423.03 152.671C423.03 153.353 423.009 154.098 422.964 154.908C422.964 155.718 422.964 156.677 422.964 157.785V170.696L425.758 172.742L432.145 170.057V160.086C432.145 158.637 432.1 157.444 432.012 156.506C431.967 155.569 431.834 154.824 431.613 154.269C431.391 153.715 431.08 153.31 430.681 153.055C430.327 152.756 429.816 152.522 429.151 152.352V151.521C431.28 151.393 433.364 151.094 435.405 150.626C437.488 150.158 439.286 149.56 440.793 148.836V163.921C440.793 165.923 440.837 167.564 440.928 168.843C441.014 170.078 441.17 171.08 441.391 171.847C441.612 172.614 441.902 173.168 442.257 173.509C442.656 173.849 443.167 174.084 443.786 174.212V174.915C443.21 175.171 442.569 175.554 441.859 176.066C441.148 176.577 440.46 177.152 439.797 177.791C439.13 178.431 438.532 179.091 438 179.773C437.467 180.412 437.068 181.008 436.802 181.562C435.338 180.369 434.274 179.261 433.609 178.239C432.988 177.216 432.566 175.959 432.344 174.467C431.014 175.107 429.838 175.703 428.819 176.257C427.842 176.812 426.934 177.365 426.091 177.919C425.292 178.473 424.539 179.049 423.829 179.645C423.164 180.241 422.476 180.88 421.766 181.562C420.88 180.795 420.081 180.156 419.371 179.645C418.706 179.091 418.041 178.601 417.375 178.175C416.755 177.748 416.111 177.365 415.446 177.024C414.825 176.641 414.116 176.236 413.317 175.81C413.495 175.554 413.65 174.979 413.783 174.084C413.96 173.189 414.116 172.102 414.249 170.824C414.381 169.546 414.47 168.183 414.515 166.733C414.603 165.242 414.648 163.814 414.648 162.451C414.648 160.917 414.581 159.595 414.448 158.488C414.36 157.337 414.182 156.358 413.916 155.548C413.65 154.737 413.295 154.077 412.852 153.566C412.452 153.012 411.92 152.543 411.255 152.16L411.321 151.457Z" fill="#D1A954"/>
<path d="M125.034 188.905L126.606 188.902L126.626 195.948C126.627 196.343 126.621 196.788 126.61 197.279C126.599 197.771 126.582 198.22 126.558 198.627C126.547 199.035 126.529 199.335 126.504 199.526H126.579L133.903 188.883L135.774 188.879L135.81 201.714L134.238 201.719L134.219 194.744C134.217 194.3 134.222 193.827 134.234 193.322C134.257 192.819 134.281 192.357 134.305 191.938C134.329 191.518 134.346 191.219 134.359 191.039H134.284L126.941 201.736L125.07 201.741L125.034 188.905ZM145.281 192.055L145.284 193.385L140.812 193.396L140.835 201.702L139.188 201.705L139.162 192.07L145.281 192.055ZM152.027 191.858C153.262 191.855 154.256 192.266 155.007 193.091C155.769 193.917 156.153 195.162 156.158 196.828C156.163 198.47 155.785 199.717 155.026 200.57C154.281 201.422 153.284 201.851 152.037 201.853C151.263 201.855 150.62 201.72 150.108 201.445C149.608 201.158 149.214 200.83 148.926 200.459H148.814C148.84 200.663 148.865 200.921 148.891 201.232C148.917 201.544 148.931 201.813 148.931 202.041L148.942 205.996L147.296 206L147.257 192.05L148.604 192.047L148.832 193.358H148.907C149.205 192.938 149.597 192.583 150.083 192.294C150.569 192.006 151.216 191.86 152.027 191.858ZM151.732 193.189C150.709 193.191 149.987 193.469 149.563 194.021C149.154 194.574 148.938 195.413 148.916 196.54L148.917 196.846C148.92 198.032 149.122 198.948 149.523 199.594C149.937 200.228 150.691 200.544 151.789 200.542C152.4 200.54 152.899 200.377 153.285 200.053C153.683 199.728 153.975 199.29 154.162 198.738C154.359 198.174 154.456 197.533 154.456 196.814C154.453 195.711 154.225 194.831 153.775 194.173C153.336 193.515 152.655 193.188 151.732 193.189ZM162.567 191.85C163.789 191.847 164.693 192.102 165.282 192.616C165.869 193.13 166.164 193.95 166.168 195.077L166.185 201.639L164.988 201.642L164.667 200.277H164.592C164.156 200.805 163.696 201.195 163.21 201.448C162.737 201.701 162.076 201.828 161.228 201.831C160.317 201.832 159.562 201.607 158.962 201.153C158.362 200.687 158.061 199.963 158.058 198.98C158.055 198.021 158.446 197.283 159.231 196.766C160.015 196.237 161.224 195.946 162.858 195.894L164.561 195.836L164.56 195.261C164.557 194.458 164.375 193.9 164.012 193.59C163.649 193.279 163.138 193.124 162.476 193.127C161.953 193.128 161.454 193.208 160.981 193.364C160.506 193.509 160.065 193.678 159.653 193.87L159.145 192.685C159.58 192.456 160.098 192.263 160.696 192.106C161.294 191.937 161.918 191.851 162.567 191.85ZM163.067 196.99C161.819 197.041 160.953 197.235 160.468 197.572C159.995 197.908 159.759 198.383 159.761 198.994C159.762 199.533 159.932 199.928 160.27 200.179C160.619 200.43 161.063 200.555 161.599 200.553C162.447 200.551 163.151 200.327 163.711 199.883C164.272 199.427 164.55 198.731 164.547 197.795L164.545 196.933L163.067 196.99ZM177.366 187.984C177.282 188.883 176.966 189.567 176.418 190.035C175.883 190.492 175.023 190.723 173.838 190.726C172.616 190.728 171.748 190.503 171.235 190.048C170.735 189.594 170.452 188.912 170.387 188.001L171.922 187.997C171.986 188.644 172.162 189.082 172.45 189.308C172.749 189.523 173.224 189.63 173.872 189.629C174.446 189.627 174.895 189.512 175.219 189.283C175.555 189.043 175.753 188.611 175.813 187.988L177.366 187.984ZM170.826 197.869C170.827 198.013 170.821 198.229 170.809 198.517C170.798 198.804 170.78 199.092 170.755 199.38C170.743 199.667 170.732 199.895 170.72 200.063L176.068 191.978L178.089 191.973L178.115 201.609L176.58 201.613L176.565 195.932C176.565 195.74 176.564 195.489 176.563 195.177C176.575 194.865 176.587 194.56 176.598 194.26C176.61 193.948 176.622 193.715 176.634 193.559L171.323 201.626L169.283 201.631L169.257 191.995L170.81 191.991L170.826 197.869ZM190.008 191.943L191.804 191.939L187.532 196.587L192.185 201.574L190.277 201.579L185.735 196.7L185.749 201.59L184.102 201.594L184.076 191.958L185.723 191.954L185.735 196.628L190.008 191.943ZM198.751 191.741C199.986 191.738 200.979 192.15 201.729 192.975C202.492 193.799 202.876 195.045 202.881 196.711C202.885 198.353 202.508 199.6 201.75 200.453C201.004 201.306 200.007 201.733 198.76 201.736C197.986 201.739 197.344 201.603 196.831 201.328C196.331 201.042 195.937 200.713 195.649 200.342H195.537C195.563 200.546 195.588 200.804 195.614 201.115C195.64 201.427 195.654 201.697 195.654 201.924L195.665 205.879L194.018 205.883L193.98 191.933L195.327 191.93L195.556 193.241H195.631C195.928 192.821 196.321 192.466 196.806 192.178C197.292 191.889 197.94 191.743 198.751 191.741ZM198.455 193.072C197.432 193.076 196.71 193.353 196.286 193.906C195.877 194.458 195.66 195.297 195.639 196.423L195.64 196.729C195.643 197.915 195.845 198.832 196.246 199.479C196.66 200.113 197.414 200.428 198.512 200.425C199.123 200.424 199.622 200.26 200.008 199.936C200.406 199.611 200.698 199.174 200.884 198.622C201.082 198.058 201.18 197.416 201.179 196.697C201.175 195.594 200.948 194.714 200.498 194.056C200.059 193.398 199.378 193.07 198.455 193.072ZM209.29 191.733C210.512 191.73 211.418 191.986 212.005 192.499C212.592 193.014 212.887 193.834 212.89 194.96L212.909 201.522L211.712 201.525L211.39 200.159H211.315C210.879 200.688 210.418 201.078 209.933 201.332C209.46 201.585 208.799 201.712 207.951 201.714C207.04 201.717 206.284 201.491 205.685 201.036C205.085 200.571 204.783 199.846 204.781 198.863C204.778 197.904 205.169 197.166 205.954 196.649C206.738 196.12 207.947 195.829 209.581 195.777L211.283 195.719L211.283 195.144C211.28 194.341 211.097 193.785 210.735 193.473C210.373 193.162 209.86 193.009 209.199 193.01C208.675 193.011 208.176 193.09 207.703 193.247C207.229 193.392 206.788 193.561 206.376 193.754L205.868 192.569C206.303 192.341 206.821 192.147 207.42 191.99C208.017 191.82 208.641 191.735 209.29 191.733ZM209.79 196.874C208.542 196.925 207.676 197.118 207.191 197.455C206.718 197.793 206.482 198.266 206.484 198.877C206.485 199.417 206.655 199.812 206.992 200.063C207.342 200.313 207.786 200.438 208.322 200.437C209.17 200.434 209.874 200.211 210.434 199.766C210.995 199.31 211.273 198.613 211.27 197.679L211.268 196.816L209.79 196.874ZM220.03 201.684C219.144 201.687 218.351 201.515 217.653 201.168C216.965 200.823 216.421 200.284 216.019 199.554C215.631 198.824 215.435 197.89 215.432 196.752C215.429 195.565 215.632 194.6 216.041 193.856C216.451 193.111 217.005 192.565 217.702 192.216C218.412 191.866 219.217 191.69 220.115 191.688C220.626 191.687 221.119 191.74 221.593 191.846C222.067 191.941 222.455 192.06 222.754 192.203L222.252 193.517C221.953 193.409 221.604 193.308 221.205 193.213C220.804 193.119 220.43 193.071 220.081 193.072C218.11 193.078 217.128 194.297 217.135 196.73C217.138 197.893 217.377 198.784 217.853 199.407C218.342 200.017 219.059 200.32 220.007 200.317C220.556 200.316 221.036 200.261 221.448 200.153C221.872 200.044 222.258 199.911 222.607 199.754L222.611 201.156C222.274 201.325 221.9 201.452 221.489 201.537C221.09 201.634 220.604 201.683 220.03 201.684ZM226.539 197.731C226.539 197.874 226.534 198.09 226.523 198.378C226.51 198.665 226.492 198.953 226.469 199.241C226.457 199.528 226.445 199.756 226.433 199.924L231.78 191.839L233.801 191.834L233.828 201.47L232.294 201.474L232.278 195.793C232.277 195.601 232.277 195.35 232.276 195.038C232.288 194.726 232.299 194.421 232.311 194.121C232.323 193.809 232.334 193.576 232.347 193.42L227.036 201.487L224.997 201.492L224.969 191.856L226.523 191.852L226.539 197.731ZM245.064 194.233C245.067 194.832 244.88 195.3 244.507 195.636C244.134 195.973 243.654 196.201 243.069 196.323V196.395C243.692 196.477 244.236 196.692 244.698 197.038C245.16 197.373 245.393 197.899 245.395 198.619C245.397 199.433 245.081 200.112 244.446 200.652C243.823 201.181 242.789 201.447 241.342 201.451L237.02 201.462L236.994 191.826L241.297 191.815C242.008 191.813 242.645 191.89 243.206 192.044C243.781 192.187 244.23 192.437 244.555 192.796C244.893 193.142 245.063 193.622 245.064 194.233ZM243.4 194.435C243.399 193.979 243.223 193.65 242.873 193.447C242.536 193.232 241.98 193.126 241.207 193.128L238.643 193.134L238.651 195.777L240.915 195.771C242.574 195.767 243.402 195.322 243.4 194.435ZM243.692 198.622C243.69 198.071 243.471 197.677 243.034 197.438C242.597 197.199 241.954 197.081 241.106 197.084L238.655 197.089L238.663 200.181L241.152 200.176C241.975 200.174 242.605 200.058 243.04 199.829C243.476 199.588 243.693 199.186 243.692 198.622ZM256.507 196.577C256.512 198.171 256.091 199.407 255.244 200.283C254.412 201.16 253.277 201.601 251.843 201.605C250.957 201.607 250.164 201.417 249.465 201.035C248.778 200.642 248.234 200.074 247.833 199.331C247.432 198.578 247.229 197.667 247.227 196.6C247.221 195.006 247.636 193.777 248.47 192.912C249.304 192.047 250.437 191.613 251.871 191.609C252.782 191.607 253.581 191.803 254.268 192.197C254.968 192.578 255.512 193.14 255.9 193.883C256.302 194.613 256.504 195.511 256.507 196.577ZM248.929 196.596C248.932 197.735 249.165 198.64 249.629 199.309C250.104 199.967 250.853 200.294 251.876 200.292C252.887 200.289 253.628 199.958 254.101 199.298C254.573 198.625 254.808 197.72 254.805 196.581C254.802 195.443 254.561 194.551 254.085 193.905C253.61 193.258 252.861 192.937 251.838 192.94C250.815 192.942 250.074 193.267 249.613 193.916C249.154 194.565 248.926 195.458 248.929 196.596ZM261.765 199.961C261.766 200.2 261.718 200.467 261.622 200.76C261.525 201.053 261.403 201.342 261.258 201.63C261.113 201.916 260.949 202.183 260.767 202.43C260.592 202.675 260.421 202.872 260.257 203.019L258.402 202.813C258.597 202.666 258.776 202.501 258.94 202.32C259.104 202.138 259.256 201.947 259.395 201.749C259.169 201.732 258.963 201.674 258.773 201.575C258.591 201.475 258.431 201.347 258.297 201.189C258.162 201.032 258.058 200.851 257.984 200.646C257.911 200.435 257.874 200.21 257.873 199.97C257.873 199.771 257.905 199.566 257.972 199.356C258.038 199.139 258.145 198.939 258.29 198.757C258.442 198.575 258.643 198.427 258.892 198.309C259.142 198.191 259.449 198.132 259.814 198.131C260.143 198.13 260.429 198.173 260.674 198.26C260.923 198.348 261.128 198.473 261.287 198.636C261.445 198.794 261.565 198.987 261.645 199.215C261.725 199.437 261.764 199.685 261.765 199.961ZM274.979 191.731L275.006 201.367L273.36 201.371L273.337 193.083L268.154 193.097L268.177 201.384L266.53 201.388L266.503 191.752L274.979 191.731ZM286.912 196.501C286.917 198.095 286.496 199.331 285.65 200.208C284.816 201.085 283.683 201.525 282.249 201.529C281.363 201.531 280.57 201.341 279.87 200.959C279.183 200.566 278.639 199.998 278.238 199.256C277.837 198.502 277.634 197.591 277.631 196.524C277.627 194.93 278.042 193.701 278.875 192.836C279.708 191.971 280.842 191.536 282.277 191.534C283.187 191.532 283.987 191.727 284.674 192.121C285.374 192.502 285.917 193.065 286.306 193.807C286.707 194.537 286.91 195.434 286.912 196.501ZM279.334 196.52C279.337 197.659 279.571 198.563 280.034 199.234C280.51 199.891 281.259 200.218 282.282 200.217C283.292 200.214 284.034 199.883 284.507 199.222C284.979 198.55 285.213 197.645 285.209 196.506C285.206 195.368 284.967 194.475 284.491 193.828C284.016 193.183 283.266 192.861 282.243 192.864C281.221 192.867 280.479 193.191 280.019 193.84C279.559 194.489 279.331 195.382 279.334 196.52ZM288.995 195.543C288.99 193.434 289.315 191.791 289.973 190.616C290.631 189.427 291.696 188.681 293.168 188.378C293.977 188.209 294.769 188.057 295.542 187.923C296.315 187.789 297.039 187.667 297.711 187.558L297.996 188.942C297.56 189.003 297.067 189.082 296.519 189.179C295.97 189.264 295.427 189.355 294.891 189.452C294.356 189.538 293.894 189.623 293.508 189.708C292.697 189.878 292.056 190.286 291.583 190.935C291.112 191.572 290.847 192.566 290.787 193.921L290.899 193.92C291.073 193.693 291.31 193.458 291.608 193.218C291.92 192.978 292.287 192.773 292.711 192.604C293.147 192.435 293.639 192.351 294.189 192.349C295.486 192.345 296.466 192.744 297.129 193.546C297.792 194.347 298.126 195.389 298.129 196.671C298.132 197.737 297.941 198.632 297.557 199.351C297.172 200.072 296.638 200.612 295.952 200.974C295.268 201.322 294.469 201.498 293.558 201.501C292.174 201.504 291.069 200.997 290.242 199.981C289.416 198.964 289 197.485 288.995 195.543ZM293.686 200.188C294.497 200.186 295.151 199.933 295.649 199.429C296.146 198.923 296.393 198.06 296.39 196.838C296.387 195.855 296.191 195.082 295.804 194.52C295.427 193.946 294.803 193.66 293.93 193.662C293.381 193.663 292.883 193.784 292.434 194.025C291.986 194.254 291.612 194.519 291.313 194.818C291.015 195.119 290.804 195.372 290.679 195.575C290.681 196.162 290.726 196.732 290.815 197.283C290.904 197.834 291.055 198.331 291.268 198.773C291.494 199.205 291.801 199.551 292.188 199.814C292.588 200.065 293.088 200.189 293.686 200.188ZM304.582 191.477C305.443 191.475 306.18 191.653 306.793 192.012C307.416 192.37 307.892 192.878 308.219 193.536C308.556 194.182 308.727 194.943 308.73 195.818L308.732 196.771L301.865 196.788C301.893 197.878 302.182 198.711 302.733 199.285C303.296 199.846 304.076 200.126 305.074 200.124C305.71 200.122 306.272 200.067 306.757 199.958C307.256 199.837 307.768 199.667 308.29 199.45L308.295 200.835C307.783 201.051 307.279 201.208 306.78 201.306C306.281 201.415 305.689 201.47 305.003 201.472C304.054 201.475 303.212 201.291 302.475 200.921C301.751 200.551 301.182 200.002 300.769 199.272C300.367 198.53 300.165 197.625 300.161 196.558C300.159 195.503 300.337 194.599 300.697 193.843C301.069 193.087 301.586 192.504 302.246 192.095C302.918 191.685 303.697 191.48 304.582 191.477ZM304.568 192.772C303.782 192.774 303.158 193.021 302.698 193.514C302.251 193.994 301.984 194.666 301.9 195.53L307.008 195.516C306.993 194.702 306.791 194.043 306.404 193.541C306.015 193.027 305.403 192.77 304.568 192.772ZM323.303 191.61L319.18 196.295L323.685 201.246L321.814 201.25L317.459 196.371L317.472 201.261L315.938 201.265L315.925 196.375L311.597 201.276L309.726 201.28L314.203 196.308L310.055 191.644L311.852 191.639L315.925 196.303L315.912 191.629L317.446 191.625L317.459 196.299L321.526 191.615L323.303 191.61ZM332.752 191.587L332.774 199.893L334.234 199.889L334.247 204.563L332.657 204.567L332.647 201.223L325.668 201.241L325.677 204.585L324.106 204.588L324.093 199.915L324.898 199.912C325.755 198.771 326.394 197.476 326.814 196.025C327.246 194.562 327.467 193.087 327.476 191.6L332.752 191.587ZM328.938 192.837C328.891 193.653 328.761 194.498 328.553 195.373C328.343 196.237 328.07 197.065 327.735 197.855C327.413 198.647 327.035 199.331 326.599 199.908L331.183 199.897L331.165 192.832L328.938 192.837ZM339.975 191.408C341.197 191.405 342.103 191.66 342.69 192.174C343.278 192.688 343.574 193.508 343.577 194.635L343.594 201.196L342.397 201.199L342.075 199.834H342C341.565 200.362 341.105 200.753 340.618 201.005C340.145 201.258 339.484 201.386 338.636 201.388C337.725 201.39 336.971 201.164 336.371 200.711C335.77 200.245 335.468 199.52 335.466 198.538C335.463 197.579 335.854 196.841 336.639 196.323C337.424 195.794 338.633 195.503 340.267 195.452L341.97 195.393L341.968 194.818C341.965 194.015 341.783 193.458 341.421 193.148C341.058 192.837 340.546 192.682 339.885 192.684C339.361 192.685 338.862 192.765 338.389 192.922C337.916 193.067 337.473 193.235 337.061 193.428L336.553 192.243C336.989 192.014 337.506 191.821 338.104 191.663C338.702 191.495 339.326 191.409 339.975 191.408ZM340.476 196.548C339.228 196.599 338.361 196.793 337.876 197.129C337.403 197.466 337.167 197.94 337.169 198.552C337.17 199.091 337.34 199.485 337.677 199.737C338.028 199.988 338.47 200.113 339.007 200.11C339.855 200.109 340.559 199.885 341.119 199.44C341.68 198.984 341.958 198.288 341.956 197.353L341.954 196.49L340.476 196.548ZM354.775 187.542C354.69 188.44 354.374 189.124 353.826 189.593C353.291 190.05 352.431 190.28 351.246 190.283C350.024 190.286 349.157 190.06 348.643 189.606C348.143 189.152 347.86 188.469 347.796 187.558L349.33 187.555C349.395 188.202 349.57 188.639 349.857 188.866C350.158 189.081 350.632 189.187 351.28 189.186C351.854 189.184 352.303 189.07 352.626 188.841C352.963 188.6 353.162 188.169 353.222 187.546L354.775 187.542ZM348.234 197.427C348.234 197.571 348.229 197.786 348.218 198.074C348.205 198.362 348.188 198.65 348.164 198.937C348.153 199.225 348.14 199.452 348.129 199.62L353.476 191.535L355.497 191.531L355.524 201.166L353.989 201.17L353.974 195.49C353.973 195.298 353.973 195.046 353.972 194.734C353.983 194.423 353.995 194.117 354.006 193.818C354.018 193.506 354.03 193.272 354.042 193.117L348.732 201.183L346.692 201.188L346.665 191.553L348.218 191.548L348.234 197.427ZM359.913 191.519L361.671 191.515L363.857 196.993C364.045 197.472 364.215 197.933 364.366 198.376C364.517 198.807 364.631 199.22 364.707 199.615H364.782C364.855 199.316 364.973 198.925 365.133 198.446C365.294 197.954 365.461 197.462 365.635 196.97L367.659 191.501L369.437 191.495L365.144 202.472C364.797 203.385 364.344 204.111 363.785 204.651C363.237 205.192 362.477 205.464 361.504 205.466C361.205 205.467 360.942 205.45 360.718 205.414C360.494 205.391 360.3 205.361 360.138 205.326L360.134 204.067C360.271 204.091 360.433 204.115 360.62 204.137C360.82 204.162 361.027 204.173 361.239 204.173C361.813 204.17 362.273 204.014 362.621 203.701C362.982 203.388 363.262 202.975 363.46 202.459L363.981 201.181L359.913 191.519ZM379.094 193.898C379.096 194.498 378.91 194.966 378.536 195.303C378.163 195.638 377.684 195.868 377.098 195.989V196.061C377.721 196.144 378.265 196.358 378.728 196.704C379.19 197.038 379.422 197.565 379.424 198.284C379.426 199.099 379.11 199.777 378.475 200.318C377.854 200.847 376.818 201.113 375.371 201.116L371.049 201.127L371.023 191.492L375.326 191.482C376.037 191.48 376.674 191.555 377.236 191.71C377.81 191.852 378.26 192.103 378.585 192.461C378.922 192.809 379.092 193.287 379.094 193.898ZM377.429 194.1C377.428 193.645 377.252 193.316 376.902 193.113C376.565 192.898 376.009 192.792 375.236 192.794L372.672 192.8L372.68 195.443L374.944 195.438C376.603 195.433 377.431 194.987 377.429 194.1ZM377.721 198.289C377.719 197.737 377.5 197.342 377.064 197.103C376.626 196.865 375.983 196.747 375.135 196.749L372.684 196.755L372.692 199.847L375.181 199.841C376.004 199.839 376.634 199.723 377.07 199.494C377.505 199.254 377.722 198.852 377.721 198.289ZM385.677 191.276C386.537 191.274 387.273 191.452 387.886 191.809C388.51 192.168 388.985 192.675 389.312 193.334C389.651 193.98 389.821 194.74 389.824 195.615L389.825 196.568L382.959 196.586C382.987 197.676 383.276 198.509 383.826 199.082C384.39 199.644 385.17 199.924 386.167 199.922C386.804 199.92 387.365 199.865 387.852 199.755C388.35 199.634 388.861 199.465 389.385 199.248L389.388 200.632C388.878 200.85 388.372 201.006 387.873 201.103C387.375 201.213 386.783 201.268 386.097 201.27C385.149 201.272 384.305 201.088 383.569 200.719C382.844 200.349 382.275 199.799 381.862 199.069C381.461 198.327 381.259 197.423 381.256 196.356C381.253 195.302 381.431 194.396 381.791 193.64C382.163 192.884 382.679 192.302 383.339 191.893C384.011 191.484 384.791 191.278 385.677 191.276ZM385.661 192.57C384.875 192.572 384.253 192.819 383.792 193.311C383.344 193.793 383.078 194.464 382.993 195.327L388.101 195.315C388.086 194.5 387.885 193.84 387.497 193.338C387.109 192.824 386.497 192.568 385.661 192.57ZM397.136 191.247C398.371 191.244 399.364 191.655 400.115 192.48C400.877 193.305 401.261 194.551 401.266 196.217C401.27 197.858 400.893 199.106 400.135 199.959C399.389 200.812 398.392 201.239 397.145 201.242C396.371 201.244 395.729 201.108 395.216 200.834C394.716 200.547 394.322 200.218 394.034 199.848H393.922C393.948 200.052 393.973 200.309 393.999 200.621C394.025 200.933 394.039 201.202 394.039 201.43L394.05 205.385L392.403 205.389L392.365 191.439L393.712 191.436L393.941 192.747H394.016C394.314 192.326 394.706 191.972 395.191 191.683C395.677 191.395 396.326 191.249 397.136 191.247ZM396.84 192.578C395.817 192.58 395.095 192.858 394.672 193.41C394.262 193.962 394.046 194.802 394.024 195.929L394.025 196.234C394.028 197.421 394.23 198.337 394.631 198.983C395.045 199.617 395.801 199.933 396.898 199.931C397.509 199.929 398.008 199.766 398.393 199.441C398.791 199.117 399.083 198.678 399.269 198.127C399.467 197.563 399.565 196.922 399.564 196.202C399.56 195.1 399.334 194.22 398.883 193.562C398.444 192.904 397.763 192.576 396.84 192.578ZM407.75 191.221C408.611 191.218 409.346 191.397 409.959 191.754C410.583 192.113 411.059 192.62 411.385 193.279C411.724 193.926 411.894 194.685 411.896 195.561L411.899 196.513L405.032 196.53C405.061 197.621 405.349 198.454 405.9 199.027C406.463 199.589 407.244 199.869 408.241 199.866C408.878 199.865 409.438 199.809 409.924 199.7C410.423 199.579 410.934 199.41 411.457 199.193L411.461 200.577C410.95 200.795 410.445 200.952 409.947 201.048C409.448 201.157 408.856 201.213 408.17 201.215C407.221 201.217 406.379 201.034 405.643 200.664C404.918 200.294 404.348 199.744 403.935 199.014C403.533 198.272 403.332 197.368 403.328 196.301C403.325 195.247 403.504 194.341 403.864 193.585C404.236 192.829 404.753 192.247 405.412 191.837C406.084 191.429 406.864 191.223 407.75 191.221ZM407.734 192.515C406.948 192.517 406.326 192.764 405.865 193.256C405.417 193.737 405.151 194.409 405.067 195.272L410.174 195.26C410.159 194.445 409.959 193.786 409.57 193.283C409.182 192.769 408.57 192.513 407.734 192.515ZM416.085 191.38L416.096 195.389L421.541 195.374L421.529 191.366L423.176 191.362L423.203 200.997L421.556 201.002L421.544 196.705L416.1 196.719L416.111 201.015L414.465 201.019L414.438 191.384L416.085 191.38ZM427.998 191.35L428.01 195.359L433.455 195.344L433.443 191.336L435.09 191.332L435.117 200.967L433.47 200.972L433.458 196.675L428.013 196.689L428.026 200.985L426.379 200.989L426.352 191.354L427.998 191.35ZM447 196.103C447.004 197.697 446.58 198.932 445.735 199.809C444.904 200.686 443.769 201.126 442.335 201.129C441.447 201.132 440.655 200.942 439.957 200.56C439.269 200.167 438.723 199.598 438.324 198.856C437.922 198.102 437.722 197.192 437.718 196.126C437.714 194.532 438.125 193.302 438.961 192.437C439.793 191.573 440.928 191.138 442.361 191.134C443.275 191.132 444.072 191.328 444.761 191.721C445.458 192.103 446.004 192.665 446.394 193.407C446.792 194.137 446.996 195.036 447 196.103ZM439.42 196.122C439.425 197.26 439.658 198.164 440.122 198.834C440.594 199.492 441.348 199.82 442.37 199.817C443.379 199.815 444.12 199.483 444.592 198.823C445.064 198.15 445.298 197.245 445.298 196.107C445.293 194.968 445.055 194.075 444.579 193.43C444.102 192.784 443.353 192.462 442.331 192.464C441.304 192.467 440.564 192.793 440.105 193.441C439.645 194.089 439.416 194.983 439.42 196.122Z" fill="#D1A954"/>
</g>
<defs>
<filter id="filter0_d" x="0" y="0" width="451" height="214" filterUnits="userSpaceOnUse" color-interpolation-filters="sRGB">
<feFlood flood-opacity="0" result="BackgroundImageFix"/>
<feColorMatrix in="SourceAlpha" type="matrix" values="0 0 0 0 0 0 0 0 0 0 0 0 0 0 0 0 0 0 127 0"/>
<feOffset dy="4"/>
<feGaussianBlur stdDeviation="2"/>
<feColorMatrix type="matrix" values="0 0 0 0 0 0 0 0 0 0 0 0 0 0 0 0 0 0 0.25 0"/>
<feBlend mode="normal" in2="BackgroundImageFix" result="effect1_dropShadow"/>
<feBlend mode="normal" in="SourceGraphic" in2="effect1_dropShadow" result="shape"/>
</filter>
</defs>
</svg>
