<svg width="148" height="60" viewBox="0 0 148 60" fill="none" xmlns="http://www.w3.org/2000/svg">
<g filter="url(#filter0_d)">
<path d="M13.3033 2.17428C12.2134 3.37342 11.2666 4.41855 11.1985 4.49788L11.0759 4.64252L11.9954 5.61302C12.4995 6.14493 12.9695 6.64884 13.0444 6.72348C13.1194 6.80281 13.1466 6.85412 13.1126 6.84012C13.0036 6.79348 9.40018 5.68301 9.35933 5.68301C9.33887 5.68301 9.33887 5.82299 9.35933 5.99562C9.37975 6.17293 9.43426 7.4187 9.48193 8.7718C9.52281 10.1296 9.5841 11.2354 9.61135 11.2354C9.63178 11.2354 10.4219 11.0114 11.3483 10.7408C12.2816 10.4701 13.1126 10.2275 13.1943 10.2042C13.3374 10.1669 13.3169 10.2042 13.0444 10.5495C12.8742 10.7594 12.5131 11.212 12.2475 11.548L11.757 12.1685H11.4369C11.1849 12.1685 11.0827 12.1919 10.9396 12.2898C10.6944 12.4625 10.6944 12.7144 10.9465 12.8871C11.0418 12.9524 11.1099 13.0177 11.0963 13.027C11.0827 13.0317 10.8238 13.111 10.5241 13.195C8.56235 13.7456 7.74495 14.2448 7.74495 14.8934C7.74495 15.0567 7.87438 15.4066 8.16046 16.0179C9.13455 18.0941 10.7081 22.2981 10.5514 22.4101C10.5377 22.4194 10.2653 22.4521 9.94511 22.4801C9.31845 22.536 9.09367 22.606 8.97786 22.7833C8.81438 23.0353 9.12092 23.2779 9.68628 23.3432C9.90423 23.3712 9.93833 23.3852 9.8702 23.4412C9.82932 23.4786 9.81569 23.5579 9.83614 23.6232C9.87702 23.7305 9.8634 23.7398 9.65903 23.7398C9.35933 23.7445 8.88251 23.8938 8.78713 24.0198C8.74625 24.0711 8.71904 24.1597 8.73262 24.2157C8.75307 24.2997 8.64406 24.337 7.84713 24.5377C7.34306 24.659 6.80491 24.813 6.64142 24.883C5.78997 25.2236 5.89215 25.7321 6.87304 26.0681C7.08419 26.1427 8.20134 26.4693 9.3525 26.7959L11.4573 27.3932L11.0554 27.4772C10.6059 27.5752 10.4219 27.6965 10.4219 27.9158C10.4219 28.0977 10.5718 28.2004 11.0078 28.3077L11.3415 28.387L11.362 29.8522C11.4437 35.5632 10.0473 42.5246 8.22177 45.4965C7.9493 45.9354 7.92205 45.9632 7.61551 46.0704C7.18637 46.22 7.07056 46.3504 7.04335 46.7145C7.03651 46.9012 6.98201 47.0644 6.90709 47.1391C6.82536 47.2229 6.78449 47.3675 6.77769 47.5962C6.77086 47.7922 6.72318 48.007 6.65505 48.1142C6.3758 48.5528 5.43576 49.5933 3.69199 51.3942C2.44542 52.682 1.95499 53.3678 1.7302 54.1191C1.57353 54.6464 1.62802 55.0244 1.92093 55.4209C2.06397 55.6122 2.24108 55.7707 2.425 55.8641C2.75877 56.0368 3.0653 56.2933 3.0653 56.4055C3.0653 56.4661 2.97674 56.4988 2.67021 56.5406C1.92774 56.6435 0.987722 56.8252 0.613077 56.942C-0.00678946 57.138 2.22399e-05 57.1241 2.22399e-05 57.8006C2.22399e-05 58.4771 -0.0136012 58.4632 0.633513 58.6638C2.20021 59.1583 6.66188 59.5316 12.52 59.667C20.8574 59.8583 29.8626 59.3962 32.199 58.6638C32.8461 58.4632 32.8325 58.4771 32.8325 57.8006C32.8325 57.1241 32.8461 57.138 32.199 56.9374C31.7903 56.8067 30.4757 56.5641 29.9103 56.5128C29.4812 56.4754 29.4676 56.4101 29.8489 56.1768C30.4824 55.7896 30.7958 55.5377 30.9934 55.267C31.5247 54.511 31.5383 53.7319 31.0274 53.0415C30.9388 52.9246 30.4143 52.4116 29.8626 51.8983C27.7782 49.9667 26.5726 48.758 26.1433 48.1655C26.048 48.0348 25.9527 47.8064 25.9322 47.6383C25.905 47.4797 25.8436 47.2884 25.7892 47.2183C25.7415 47.1484 25.6801 46.9617 25.6598 46.8032C25.6189 46.4626 25.4554 46.2432 25.1488 46.1125C24.638 45.8887 23.7388 44.3023 22.9283 42.1699C21.5386 38.5165 20.2989 32.451 20.2989 29.2641V28.3683L20.5918 28.317C21.0278 28.247 21.2526 28.1071 21.2526 27.9158C21.2526 27.6778 21.0687 27.5658 20.5305 27.4725C20.1081 27.3979 20.0742 27.3839 20.2308 27.3419C20.3261 27.3185 21.2934 27.0759 22.3765 26.8053C24.7266 26.2221 24.8355 26.1894 25.1216 26.0401C25.5984 25.7928 25.6598 25.5082 25.292 25.2282C24.999 25.0043 24.8083 24.9343 23.5344 24.575C22.6557 24.3277 22.5809 24.2997 22.54 24.1737C22.5195 24.0944 22.4787 24.0104 22.4446 23.9778C22.356 23.8751 21.8452 23.7398 21.5386 23.7398C21.2662 23.7398 21.2526 23.7352 21.3207 23.6465C21.3684 23.5812 21.3751 23.5252 21.3207 23.4646C21.2593 23.3806 21.2798 23.3712 21.5727 23.3386C21.9678 23.3012 22.1313 23.2499 22.2879 23.1146C22.615 22.844 22.2676 22.564 21.4909 22.4754L20.9801 22.4147V22.2468C20.9801 21.7755 22.1518 17.9075 22.9691 15.6912C23.5618 14.0722 23.4596 13.9882 19.6995 13.0457L19.536 13.0084L19.7131 12.8637C20.0809 12.5698 19.8221 12.1685 19.2704 12.1685H19.0047L18.2895 11.1887C17.8944 10.6475 17.5947 10.2089 17.6219 10.2089C17.656 10.2089 19.4815 10.6941 21.1028 11.128C21.164 11.1467 21.1845 10.5728 21.1845 8.34719C21.1845 6.80281 21.1571 5.54301 21.13 5.54301C21.1028 5.54301 20.2785 5.83232 19.3113 6.1869C18.3371 6.54617 17.5266 6.83081 17.5197 6.82148C17.5061 6.81681 17.8876 6.28957 18.3643 5.65035L19.2294 4.49322L17.5402 2.58021C16.607 1.52573 15.7147 0.51791 15.5648 0.331275L15.2856 0L13.3033 2.17428Z" fill="#D1A954"/>
<path d="M39.5772 52.1741C39.7925 52.0628 39.9792 51.8527 40.1369 51.5434C40.3092 51.2341 40.4529 50.8817 40.5676 50.486C40.6968 50.0904 40.79 49.6822 40.8475 49.2617C40.9051 48.8289 40.9337 48.433 40.9337 48.0744C40.9337 47.5179 40.862 46.986 40.7184 46.4791C40.5892 45.9721 40.4024 45.5886 40.1585 45.3289C40.3883 45.1309 40.5747 44.8712 40.7184 44.5498C40.8761 44.2159 40.9982 43.8634 41.0844 43.4924C41.1705 43.1089 41.2281 42.7193 41.2567 42.3237C41.2853 41.928 41.2998 41.557 41.2998 41.2106C41.2998 40.9263 41.2926 40.6788 41.2782 40.4686C41.2637 40.2585 41.2496 40.0976 41.2351 39.9863C40.9051 39.8875 40.5606 39.6834 40.2015 39.3741C39.8571 39.0648 39.5986 38.7309 39.4265 38.3724C40.3452 38.4591 41.2136 38.5208 42.0318 38.5579C42.8645 38.5825 43.6468 38.595 44.379 38.595C45.9437 38.595 47.2068 38.5518 48.1686 38.4651C49.1306 38.3785 49.8913 38.3353 50.4512 38.3353C50.5658 38.3353 50.6665 38.3414 50.7526 38.3538C50.8388 38.3538 50.9179 38.3599 50.9895 38.3724C50.9033 38.5208 50.8102 38.7991 50.7095 39.2072C50.6235 39.6153 50.5372 40.0605 50.4512 40.5428C50.365 41.0251 50.2859 41.495 50.2143 41.9527C50.1568 42.4104 50.1137 42.7564 50.0851 42.9915L49.9343 43.0472C49.432 42.7257 49.066 42.3733 48.8362 41.9898C48.6209 41.5941 48.4556 41.1118 48.3409 40.5428C48.14 40.4069 47.8887 40.3202 47.5873 40.2831C47.2859 40.246 46.9053 40.2275 46.446 40.2275C46.073 40.2275 45.714 40.2335 45.3694 40.246C45.025 40.2585 44.752 40.2646 44.5511 40.2646C44.4795 40.6231 44.4149 41.0376 44.3574 41.5075C44.3143 41.9773 44.2713 42.4782 44.2281 43.0101C44.1995 43.542 44.1707 44.0985 44.1421 44.6796C44.1276 45.2486 44.1205 45.8173 44.1205 46.3863C44.1205 47.1654 44.1276 47.9075 44.1421 48.6124C44.1707 49.3049 44.2137 49.9109 44.2713 50.4304L47.9103 50.7457C48.1112 49.9791 48.463 49.2988 48.9653 48.7051C49.4822 48.1115 50.035 47.5364 50.6235 46.9799L50.7526 47.017C50.7095 47.3014 50.6809 47.586 50.6665 47.8704C50.6521 48.1425 50.6449 48.4083 50.6449 48.668C50.6449 49.3112 50.6809 49.8924 50.7526 50.4118C50.8242 50.9312 50.9104 51.3208 51.0109 51.5805C50.767 51.6051 50.5228 51.6422 50.2789 51.6918C50.0491 51.7289 49.798 51.797 49.5252 51.8959C49.2524 51.9947 48.9583 52.1309 48.6423 52.304C48.3409 52.477 48.0035 52.6996 47.6303 52.9718C46.4246 52.6625 45.2331 52.4278 44.056 52.2669C42.8787 52.1185 41.8165 52.0443 40.8691 52.0443C40.4099 52.0443 39.9862 52.106 39.5986 52.2298L39.5772 52.1741ZM58.6988 53.8993C58.785 53.6521 58.8636 53.3428 58.9357 52.9718C59.0073 52.6133 59.065 52.2544 59.108 51.8959C59.151 51.5248 59.1866 51.1849 59.2157 50.8756C59.2443 50.5663 59.2587 50.3437 59.2587 50.2077C59.2587 49.5028 59.2513 48.7979 59.2371 48.093C59.2371 47.388 59.2371 46.6831 59.2371 45.9782L58.9573 45.7185L56.3087 46.7388V50.5417C56.3087 51.3208 56.5025 51.7721 56.8901 51.8959V52.1741H52.9281V51.8959C53.1003 51.8341 53.2365 51.7104 53.3372 51.5248C53.4519 51.3269 53.5095 51.055 53.5095 50.7086V40.9509C53.5095 40.6417 53.5021 40.3634 53.4879 40.1162C53.4735 39.8689 53.4374 39.6399 53.3802 39.4298C53.3372 39.2196 53.2726 39.0156 53.1865 38.8176C53.1003 38.6196 52.9926 38.4156 52.8635 38.2054C53.1505 38.2921 53.4879 38.3353 53.8755 38.3353C54.3492 38.3353 54.8445 38.2672 55.3612 38.1312C55.8922 37.9953 56.4594 37.8034 57.0624 37.5562C56.775 37.853 56.5741 38.2486 56.4594 38.7434C56.3588 39.2382 56.3087 39.8069 56.3087 40.4501V45.4588C56.9257 45.1124 57.4786 44.7663 57.9667 44.4199C58.4546 44.0735 58.9573 43.6654 59.474 43.1956C59.7179 43.3935 59.9403 43.5727 60.1416 43.7335C60.3423 43.882 60.5432 44.0179 60.7444 44.1417C60.9597 44.2654 61.1822 44.3889 61.412 44.5127C61.6415 44.624 61.9072 44.7414 62.2086 44.8651C62.1512 45.0382 62.101 45.2237 62.0579 45.4217C62.0291 45.6072 62.0005 45.8483 61.9719 46.1451C61.9573 46.442 61.9429 46.8069 61.9287 47.2396C61.9143 47.6724 61.9072 48.2104 61.9072 48.8535C61.9072 49.3976 61.9072 49.8492 61.9072 50.2077C61.9214 50.5541 61.9358 50.8385 61.9503 51.0611C61.9644 51.2837 61.9859 51.4692 62.0149 51.6176C62.0435 51.7535 62.0721 51.8834 62.101 52.0072C61.8137 52.0938 61.5196 52.2112 61.2182 52.3596C60.9308 52.508 60.6367 52.675 60.3353 52.8605C60.0479 53.046 59.7754 53.2376 59.5171 53.4356C59.2587 53.6335 59.0289 53.8251 58.828 54.0106L58.6988 53.8993ZM68.3973 52.7677C68.1244 52.5947 67.7874 52.4338 67.3853 52.2854C66.9833 52.137 66.5671 52.0133 66.1364 51.9144C65.7202 51.8031 65.3111 51.7164 64.9091 51.6547C64.5215 51.593 64.1985 51.562 63.9401 51.562C64.0548 51.4011 64.1554 51.1785 64.2415 50.8941C64.3276 50.5973 64.3922 50.282 64.4352 49.948C64.4929 49.6017 64.5285 49.2492 64.5429 48.8906C64.5715 48.5321 64.5861 48.2043 64.5861 47.9075C64.5861 47.153 64.5285 46.5286 64.4138 46.0338C64.3131 45.5269 64.2129 45.1309 64.1122 44.8466C64.7296 44.7477 65.2895 44.5559 65.7918 44.2715C66.3087 43.9872 66.8184 43.6283 67.3207 43.1956C67.9091 43.2944 68.6341 43.3811 69.4954 43.4553C70.3567 43.517 71.211 43.5605 72.0579 43.5851C72.0149 43.8077 71.9933 44.086 71.9933 44.4199C71.9933 44.6796 72.0077 44.964 72.0363 45.2733C72.0649 45.5701 72.1009 45.8669 72.144 46.1637C72.187 46.4605 72.2446 46.7448 72.3163 47.017C72.3879 47.2892 72.467 47.524 72.5532 47.722C71.6773 47.7837 70.7874 47.8704 69.883 47.9817C68.9787 48.0805 68.0958 48.1918 67.2345 48.3156C67.2201 48.6741 67.1915 49.0266 67.1484 49.373C67.1054 49.7193 67.0693 50.0222 67.0407 50.282C67.213 50.3437 67.4284 50.3993 67.6867 50.4489C67.9595 50.4985 68.2466 50.5477 68.548 50.5973C68.8494 50.6344 69.1438 50.6715 69.4309 50.7086C69.7179 50.7333 69.9621 50.7518 70.163 50.7643C70.2346 50.3808 70.4069 50.0533 70.6797 49.7811C70.9668 49.5089 71.4479 49.2863 72.1225 49.1133C72.1079 49.2617 72.1009 49.4101 72.1009 49.5585C72.1009 49.6944 72.1009 49.8306 72.1009 49.9666C72.1009 50.3872 72.1154 50.7211 72.144 50.9683C72.187 51.2034 72.2588 51.4382 72.3593 51.6733C72.0865 51.6979 71.7635 51.7475 71.3903 51.8217C71.0173 51.8834 70.6438 51.9701 70.2707 52.0814C69.8975 52.1802 69.5386 52.2854 69.194 52.3967C68.864 52.5205 68.5982 52.644 68.3973 52.7677ZM67.0192 44.8651C67.0909 45.3846 67.1414 45.8422 67.17 46.2379C67.213 46.6335 67.2416 46.9985 67.2561 47.3324L69.7754 46.7944C69.7037 46.5472 69.6391 46.2875 69.5816 46.0153C69.5386 45.7431 69.517 45.4648 69.517 45.1805C69.187 45.1805 68.785 45.1559 68.3111 45.1063C67.8519 45.0446 67.4212 44.964 67.0192 44.8651ZM77.332 44.6982C77.3034 44.8962 77.282 45.0877 77.2674 45.2733C77.2674 45.4588 77.2674 45.6753 77.2674 45.9225C77.2674 46.1698 77.2745 46.4173 77.289 46.6646C77.3034 46.9118 77.325 47.1344 77.3536 47.3324C77.6264 47.2457 77.9064 47.1715 78.1933 47.1098C78.4949 47.048 78.8249 46.9924 79.1839 46.9428C79.5569 46.8933 79.9736 46.8501 80.4328 46.813C80.8921 46.7759 81.4304 46.7388 82.0478 46.7017C82.0046 47.1344 81.9831 47.7651 81.9831 48.5938C81.9831 49.2988 81.9976 49.9295 82.0262 50.486C82.0548 51.0301 82.1052 51.4446 82.1769 51.7289C81.7318 51.7289 81.2795 51.7535 80.8203 51.8031C80.361 51.8527 79.9231 51.9205 79.5069 52.0072C79.0907 52.0938 78.703 52.1988 78.344 52.3225C77.9851 52.4463 77.6836 52.5822 77.4397 52.7306C77.2674 52.5947 77.0736 52.477 76.8583 52.3782C76.6574 52.2793 76.4132 52.1988 76.1263 52.137C75.8392 52.0628 75.5017 52.0072 75.1141 51.9701C74.7266 51.9205 74.2674 51.8834 73.7361 51.8588C73.7647 51.4753 73.8508 51.0857 73.9944 50.6901C74.1523 50.282 74.346 49.9541 74.5758 49.7069C74.9059 49.7069 75.4227 49.8121 76.1263 50.0222C76.8297 50.2324 77.7627 50.5602 78.9255 51.0054C79.0116 50.6098 79.0762 50.2509 79.1193 49.9295C79.1623 49.5956 79.1839 49.2492 79.1839 48.8906C79.1839 48.668 79.1839 48.5072 79.1839 48.4083C79.1839 48.3095 79.1767 48.2167 79.1623 48.1301C78.5308 48.1796 77.7987 48.2724 76.966 48.4083C76.1333 48.5321 75.351 48.6805 74.619 48.8535C74.6765 48.3217 74.7121 47.9135 74.7266 47.6292C74.7411 47.3324 74.7481 47.0666 74.7481 46.8315C74.7481 46.275 74.7121 45.7866 74.6404 45.366C74.5829 44.9454 74.4827 44.5559 74.339 44.1973C74.8843 44.1973 75.4731 44.117 76.1047 43.9562C76.7362 43.7953 77.5259 43.542 78.4733 43.1956C79.3776 43.5912 80.7272 43.8448 82.5215 43.9562C82.2631 44.488 81.9687 44.8776 81.6386 45.1248C81.3086 45.3599 80.8994 45.4773 80.4112 45.4773C80.1959 45.4773 79.952 45.4588 79.6792 45.4217C79.4062 45.3846 79.1263 45.3289 78.8393 45.2547C78.5665 45.1805 78.294 45.1002 78.021 45.0135C77.7627 44.9147 77.5329 44.8095 77.332 44.6982ZM87.2364 44.6982C87.2075 44.8962 87.1859 45.0877 87.1719 45.2733C87.1719 45.4588 87.1719 45.6753 87.1719 45.9225C87.1719 46.1698 87.1789 46.4173 87.1933 46.6646C87.2075 46.9118 87.2291 47.1344 87.2579 47.3324C87.5305 47.2457 87.8104 47.1715 88.0977 47.1098C88.3992 47.048 88.7292 46.9924 89.0882 46.9428C89.4614 46.8933 89.8775 46.8501 90.3372 46.813C90.7964 46.7759 91.3347 46.7388 91.9521 46.7017C91.9091 47.1344 91.8875 47.7651 91.8875 48.5938C91.8875 49.2988 91.9016 49.9295 91.9305 50.486C91.9591 51.0301 92.0093 51.4446 92.0812 51.7289C91.6361 51.7289 91.184 51.7535 90.7248 51.8031C90.2651 51.8527 89.8274 51.9205 89.4112 52.0072C88.9947 52.0938 88.6071 52.1988 88.2485 52.3225C87.8895 52.4463 87.5879 52.5822 87.344 52.7306C87.1719 52.5947 86.978 52.477 86.7627 52.3782C86.5615 52.2793 86.3176 52.1988 86.0306 52.137C85.7432 52.0628 85.4061 52.0072 85.0186 51.9701C84.631 51.9205 84.1713 51.8834 83.6404 51.8588C83.669 51.4753 83.7552 51.0857 83.8988 50.6901C84.0566 50.282 84.2504 49.9541 84.4803 49.7069C84.8103 49.7069 85.327 49.8121 86.0306 50.0222C86.7338 50.2324 87.667 50.5602 88.8299 51.0054C88.9159 50.6098 88.9806 50.2509 89.0236 49.9295C89.0666 49.5956 89.0882 49.2492 89.0882 48.8906C89.0882 48.668 89.0882 48.5072 89.0882 48.4083C89.0882 48.3095 89.0808 48.2167 89.0666 48.1301C88.4348 48.1796 87.7028 48.2724 86.8703 48.4083C86.0376 48.5321 85.2554 48.6805 84.5233 48.8535C84.5805 48.3217 84.6165 47.9135 84.631 47.6292C84.6451 47.3324 84.6524 47.0666 84.6524 46.8315C84.6524 46.275 84.6164 45.7866 84.5448 45.366C84.4873 44.9454 84.3866 44.5559 84.2434 44.1973C84.7887 44.1973 85.3772 44.117 86.009 43.9562C86.6406 43.7953 87.4302 43.542 88.3776 43.1956C89.282 43.5912 90.6311 43.8448 92.4258 43.9562C92.1674 44.488 91.873 44.8776 91.5429 45.1248C91.2126 45.3599 90.8034 45.4773 90.3156 45.4773C90.1002 45.4773 89.856 45.4588 89.5835 45.4217C89.3106 45.3846 89.0307 45.3289 88.7436 45.2547C88.4708 45.1805 88.198 45.1002 87.9255 45.0135C87.667 44.9147 87.4372 44.8095 87.2364 44.6982ZM110.771 53.213C109.952 52.9657 109.141 52.6935 108.337 52.3967C107.548 52.1124 106.766 51.7721 105.99 51.3764C105.804 51.5373 105.639 51.6733 105.495 51.7846C105.351 51.8959 105.201 51.9947 105.043 52.0814C104.885 52.1556 104.713 52.2173 104.526 52.2669C104.354 52.3286 104.146 52.3843 103.902 52.4338C104.045 52.2854 104.146 52.106 104.203 51.8959C104.261 51.6857 104.289 51.4692 104.289 51.2466C104.289 50.888 104.232 50.5417 104.117 50.2077C104.016 49.8614 103.923 49.5709 103.837 49.3359L103.32 47.926C102.904 48.3959 102.488 48.9153 102.071 49.4843C101.669 50.0533 101.318 50.5973 101.016 51.1167C100.772 50.8199 100.442 50.3993 100.026 49.8553C99.6238 49.3112 99.1716 48.7237 98.6693 48.093L98.3247 49.0576C98.2386 49.3048 98.167 49.5524 98.1094 49.7996C98.0664 50.0469 98.0448 50.3005 98.0448 50.5602C98.0448 50.9437 98.1024 51.3208 98.2171 51.6918C98.3319 52.0628 98.5186 52.4092 98.777 52.7306C98.49 52.644 98.2457 52.5576 98.0448 52.4709C97.858 52.3843 97.6787 52.2854 97.5065 52.1741C97.3487 52.0628 97.1835 51.9454 97.0112 51.8217C96.8535 51.6857 96.6667 51.5309 96.4514 51.3579C95.8485 51.8527 95.2527 52.1988 94.6642 52.3967C94.0758 52.6069 93.4152 52.7182 92.6832 52.7306C92.956 52.6935 93.2431 52.5391 93.5445 52.2669C93.8459 52.0072 94.1403 51.6672 94.4274 51.2466C94.7144 50.8138 94.9872 50.3251 95.2455 49.7811C95.5185 49.237 95.7552 48.662 95.9561 48.0559L96.6451 45.9782C96.1429 45.5205 95.5971 45.1309 95.0087 44.8095C94.4202 44.4756 93.8891 44.3086 93.4152 44.3086C93.3866 44.3086 93.3508 44.3086 93.3076 44.3086C93.2645 44.3086 93.1785 44.3147 93.0492 44.3272L93.0278 44.2715C93.6451 43.9993 94.2191 43.8634 94.7502 43.8634C95.1093 43.8634 95.4754 43.9251 95.8485 44.0489C96.2216 44.1602 96.6523 44.3333 97.1404 44.5683L98.3031 41.1364C98.3749 40.9263 98.4254 40.7408 98.454 40.5799C98.4826 40.4191 98.497 40.2892 98.497 40.1904C98.497 39.9306 98.4038 39.7451 98.2171 39.6338C98.0448 39.5225 97.7289 39.4669 97.2697 39.4669C96.9827 39.4669 96.6737 39.4854 96.3437 39.5225C96.0137 39.5596 95.6187 39.6153 95.1594 39.6895C95.2455 39.5782 95.4538 39.4483 95.7838 39.2999C96.114 39.1515 96.5089 39.0092 96.9681 38.8733C97.442 38.7373 97.9443 38.626 98.4754 38.5393C99.0209 38.4405 99.5451 38.3909 100.047 38.3909C100.421 38.3909 100.779 38.428 101.124 38.5022C101.469 38.5764 101.727 38.7063 101.899 38.8918C102.158 38.8793 102.438 38.8486 102.739 38.7991C103.04 38.7495 103.327 38.6938 103.6 38.6321C103.873 38.5579 104.117 38.4898 104.332 38.428C104.548 38.3538 104.691 38.2982 104.763 38.2611C104.562 38.5083 104.412 38.8051 104.311 39.1515C104.225 39.4854 104.182 39.8504 104.182 40.246C104.182 40.753 104.246 41.2849 104.375 41.8414C104.505 42.3854 104.655 42.8927 104.828 43.3625C105.014 43.8324 105.208 44.2344 105.409 44.5683C105.61 44.9022 105.782 45.1063 105.926 45.1805C105.926 45.9101 106.069 46.6831 106.356 47.4993C106.658 48.3156 107.038 49.0947 107.498 49.8367C107.971 50.5788 108.495 51.2466 109.069 51.8402C109.658 52.4214 110.232 52.8605 110.792 53.1573L110.771 53.213ZM100.995 48.0744C101.239 47.7901 101.512 47.4869 101.813 47.1654C102.129 46.8315 102.416 46.5037 102.674 46.1822L101.016 41.5446L99.3153 46.3306C99.6023 46.5904 99.8896 46.8811 100.177 47.2025C100.478 47.524 100.751 47.8147 100.995 48.0744ZM116.164 38.4651C115.863 38.6382 115.604 38.8733 115.389 39.1701C115.188 39.4544 115.023 39.7698 114.894 40.1162C114.779 40.4501 114.693 40.8025 114.635 41.1735C114.578 41.5321 114.549 41.8785 114.549 42.2124C114.549 42.4475 114.556 42.7008 114.57 42.973C114.599 43.2327 114.635 43.5049 114.678 43.7892C114.736 44.0614 114.8 44.3333 114.872 44.6054C114.958 44.8651 115.059 45.1063 115.173 45.3289C114.944 45.6628 114.786 46.0649 114.7 46.5347C114.628 47.0046 114.592 47.4747 114.592 47.9446C114.592 48.7362 114.707 49.4904 114.937 50.2077C115.166 50.9127 115.647 51.6051 116.379 52.2854C115.604 52.1988 114.922 52.1431 114.334 52.1185C113.759 52.0814 113.235 52.0628 112.762 52.0628C112.116 52.0628 111.556 52.0814 111.082 52.1185C110.608 52.1556 110.135 52.2051 109.661 52.2669C109.962 52.106 110.242 51.8959 110.501 51.6362C110.759 51.364 110.982 51.0672 111.168 50.7457C111.355 50.4243 111.498 50.084 111.599 49.7254C111.714 49.3669 111.771 49.0144 111.771 48.668C111.771 48.0373 111.685 47.4251 111.513 46.8315C111.341 46.2254 111.068 45.7246 110.695 45.3289C111.097 44.6857 111.362 44.0985 111.491 43.5666C111.62 43.0347 111.685 42.4846 111.685 41.9156C111.685 41.5692 111.664 41.1982 111.62 40.8025C111.061 40.6046 110.68 40.2956 110.479 39.875C110.278 39.4422 110.149 38.966 110.092 38.4466C110.565 38.5579 111.003 38.6382 111.405 38.6877C111.821 38.7373 112.216 38.762 112.589 38.762C113.25 38.762 113.86 38.7309 114.42 38.6692C114.98 38.595 115.561 38.5269 116.164 38.4651ZM117.897 51.766C118.141 51.4075 118.435 51.055 118.78 50.7086C119.139 50.3501 119.533 50.0718 119.964 49.8738C120.05 49.9727 120.179 50.0904 120.352 50.2263C120.538 50.3622 120.732 50.4985 120.933 50.6344C121.148 50.7704 121.349 50.9002 121.536 51.024C121.737 51.1353 121.888 51.2156 121.988 51.2651C121.5 51.562 121.084 51.8527 120.739 52.137C120.409 52.4092 120.122 52.7553 119.878 53.1759C119.792 53.0892 119.656 52.9779 119.469 52.842C119.297 52.7182 119.11 52.5883 118.909 52.4524C118.708 52.3164 118.514 52.1866 118.328 52.0628C118.141 51.9391 117.998 51.8402 117.897 51.766ZM126.816 46.2193C127.146 45.7617 127.455 45.2793 127.742 44.7724C128.029 44.2654 128.295 43.7275 128.539 43.1585C128.811 43.3069 129.199 43.4614 129.702 43.6222C130.204 43.7706 130.757 43.9066 131.36 44.0304C131.288 44.5498 131.158 45.026 130.972 45.4588C130.785 45.8793 130.548 46.2318 130.261 46.5162L128.819 45.8669H128.56L126.816 47.9817V50.5417C126.816 50.9744 126.902 51.2898 127.075 51.4877C127.261 51.6733 127.584 51.797 128.044 51.8588V52.1741H123.436V51.8959C123.823 51.7721 124.017 51.3764 124.017 50.7086V44.2344L123.22 43.9376V43.7335C123.723 43.6718 124.268 43.5912 124.857 43.4924C125.445 43.3811 125.969 43.2759 126.429 43.177L126.816 43.7335V46.2193ZM131.834 43.9562C132.135 43.9315 132.473 43.8944 132.846 43.8449C133.219 43.7831 133.593 43.715 133.966 43.6408C134.339 43.5666 134.683 43.4924 134.999 43.4182C135.315 43.3315 135.566 43.2512 135.753 43.177C135.724 43.3872 135.695 43.5791 135.667 43.7521C135.652 43.9251 135.638 44.1106 135.624 44.3086C135.624 44.5066 135.617 44.7228 135.602 44.9579C135.602 45.193 135.602 45.4712 135.602 45.7927V49.5399L136.507 50.1335L138.574 49.3544V46.4605C138.574 46.0399 138.559 45.6938 138.531 45.4217C138.516 45.1495 138.473 44.9333 138.402 44.7724C138.33 44.6115 138.229 44.4941 138.1 44.4199C137.985 44.3333 137.82 44.2654 137.605 44.2159V43.9747C138.294 43.9376 138.968 43.8509 139.629 43.715C140.303 43.5791 140.885 43.4057 141.373 43.1956V47.5735C141.373 48.1547 141.387 48.6309 141.416 49.002C141.444 49.3605 141.495 49.6512 141.566 49.8738C141.638 50.0964 141.732 50.2573 141.847 50.3562C141.976 50.455 142.141 50.5231 142.342 50.5602V50.7643C142.155 50.8385 141.948 50.9498 141.718 51.0982C141.488 51.2466 141.265 51.4135 141.05 51.5991C140.835 51.7846 140.641 51.9762 140.469 52.1741C140.296 52.3596 140.167 52.5327 140.081 52.6935C139.607 52.3472 139.263 52.0257 139.047 51.7289C138.847 51.4321 138.71 51.0672 138.638 50.6344C138.208 50.8199 137.827 50.993 137.497 51.1538C137.181 51.3147 136.887 51.4753 136.614 51.6362C136.356 51.797 136.112 51.964 135.882 52.137C135.667 52.3101 135.444 52.4956 135.215 52.6935C134.928 52.4709 134.669 52.2854 134.439 52.137C134.224 51.9762 134.009 51.8341 133.793 51.7104C133.593 51.5866 133.384 51.4753 133.169 51.3764C132.968 51.2651 132.738 51.1477 132.48 51.024C132.537 50.9498 132.588 50.7828 132.631 50.5231C132.688 50.2634 132.738 49.948 132.781 49.577C132.824 49.206 132.853 48.8104 132.868 48.3898C132.896 47.957 132.911 47.5425 132.911 47.1469C132.911 46.7017 132.889 46.3182 132.846 45.9967C132.817 45.6628 132.76 45.3785 132.674 45.1434C132.588 44.9083 132.473 44.7167 132.329 44.5683C132.2 44.4075 132.028 44.2715 131.812 44.1602L131.834 43.9562Z" fill="#D1A954"/>
<path d="M39.1741 54.8244L39.6827 54.8235L39.6892 56.8684C39.6895 56.9832 39.6878 57.1122 39.6841 57.2548C39.6805 57.3974 39.675 57.5278 39.6673 57.6461C39.6637 57.7644 39.6579 57.8513 39.6498 57.907H39.674L42.0446 54.818L42.6502 54.8168L42.6617 58.542L42.153 58.5432L42.1469 56.5189C42.1462 56.3902 42.1479 56.2528 42.1517 56.1064C42.159 55.9603 42.1668 55.8264 42.1746 55.7046C42.1823 55.5829 42.188 55.496 42.1921 55.4438H42.1678L39.7911 58.5484L39.1855 58.5496L39.1741 54.8244ZM45.727 55.7386L45.7282 56.1247L44.2807 56.1278L44.2881 58.5383L43.7552 58.5394L43.7467 55.7429L45.727 55.7386ZM47.9106 55.6815C48.3104 55.6806 48.632 55.8 48.8749 56.0394C49.1218 56.2789 49.246 56.6403 49.2477 57.1238C49.2491 57.6003 49.1268 57.9623 48.8812 58.2099C48.6401 58.4571 48.3174 58.5815 47.9137 58.5823C47.6633 58.5829 47.4551 58.5435 47.2896 58.4638C47.1278 58.3806 47.0002 58.2852 46.907 58.1777H46.8707C46.8791 58.2368 46.8872 58.3116 46.8956 58.402C46.904 58.4925 46.9084 58.5707 46.9084 58.6368L46.912 59.7846L46.3792 59.7858L46.3667 55.7371L46.8027 55.7362L46.8764 56.1168H46.9007C46.9971 55.9948 47.124 55.8919 47.2814 55.8081C47.4386 55.7244 47.6482 55.682 47.9106 55.6815ZM47.8151 56.0678C47.484 56.0684 47.2502 56.149 47.1132 56.3093C46.9807 56.4696 46.9108 56.7133 46.9036 57.0403L46.904 57.129C46.905 57.4733 46.9702 57.7391 47.1002 57.9267C47.234 58.1107 47.4782 58.2023 47.8336 58.2017C48.0314 58.2012 48.1929 58.1539 48.3177 58.0597C48.4467 57.9655 48.5411 57.8383 48.6014 57.6783C48.6653 57.5145 48.6969 57.3284 48.6966 57.1197C48.6956 56.7997 48.6219 56.5444 48.4762 56.3533C48.3342 56.1623 48.1139 56.0673 47.8151 56.0678ZM51.3219 55.6791C51.7175 55.6783 52.0102 55.7522 52.2007 55.9015C52.3908 56.0507 52.4863 56.2887 52.4874 56.6157L52.493 58.52L52.1055 58.5209L52.0015 58.1247H51.9773C51.8364 58.278 51.6872 58.3913 51.5302 58.4646C51.3771 58.538 51.1631 58.5751 50.8886 58.5757C50.5938 58.5762 50.3493 58.5107 50.1551 58.3791C49.961 58.2438 49.8634 58.0336 49.8624 57.7484C49.8617 57.4702 49.9882 57.256 50.2422 57.1058C50.4959 56.9522 50.8872 56.8678 51.4161 56.8528L51.9672 56.836L51.9669 56.669C51.9662 56.436 51.907 56.2742 51.7896 56.1841C51.6721 56.0939 51.5067 56.049 51.2926 56.0496C51.1231 56.0499 50.9616 56.0731 50.8085 56.1186C50.655 56.1606 50.512 56.2096 50.3789 56.2655L50.2143 55.9215C50.3553 55.8551 50.5228 55.7991 50.7163 55.7533C50.91 55.7044 51.1119 55.6794 51.3219 55.6791ZM51.4837 57.171C51.0799 57.1858 50.7997 57.242 50.6425 57.3397C50.4895 57.4374 50.4132 57.5751 50.4138 57.7525C50.4142 57.909 50.469 58.0235 50.5783 58.0965C50.6913 58.1693 50.835 58.2055 51.0087 58.2049C51.2832 58.2044 51.511 58.1394 51.6923 58.0104C51.8737 57.878 51.9638 57.676 51.9628 57.4046L51.9621 57.1542L51.4837 57.171ZM56.1119 54.5571C56.0846 54.818 55.9824 55.0165 55.8051 55.1525C55.6318 55.2849 55.3535 55.3519 54.97 55.3528C54.5744 55.3536 54.2934 55.2881 54.1276 55.1562C53.9657 55.0244 53.8741 54.8264 53.853 54.562L54.3496 54.5609C54.3704 54.7487 54.4273 54.8757 54.5205 54.9415C54.6174 55.0038 54.7712 55.0348 54.981 55.0345C55.1668 55.0339 55.3119 55.0006 55.4168 54.9342C55.5255 54.8644 55.5897 54.7391 55.6092 54.5583L56.1119 54.5571ZM53.995 57.4261C53.9953 57.4678 53.9933 57.5304 53.9896 57.6139C53.9859 57.6974 53.9801 57.7809 53.9721 57.8644C53.9683 57.9478 53.9647 58.0139 53.9606 58.0626L55.6917 55.7162L56.3458 55.7148L56.3542 58.5113L55.8575 58.5125L55.8524 56.8638C55.8524 56.8081 55.8522 56.7351 55.8519 56.6447C55.8558 56.5542 55.8596 56.4655 55.8632 56.3786C55.867 56.2881 55.871 56.2203 55.8747 56.1751L54.1558 58.5162L53.4956 58.5177L53.4872 55.7212L53.9899 55.72L53.995 57.4261ZM60.2034 55.7061L60.7848 55.7049L59.402 57.0539L60.9083 58.5012L60.2906 58.5026L58.8206 57.0867L58.825 58.5058L58.2921 58.507L58.2837 55.7104L58.8166 55.7093L58.8206 57.0658L60.2034 55.7061ZM63.0334 55.6476C63.4331 55.6467 63.7544 55.7661 63.9973 56.0055C64.2442 56.2449 64.3684 56.6064 64.3701 57.0899C64.3713 57.5664 64.2492 57.9284 64.004 58.176C63.7624 58.4235 63.4398 58.5475 63.036 58.5484C62.7857 58.549 62.5778 58.5096 62.4119 58.4299C62.25 58.3467 62.1226 58.2513 62.0294 58.1438H61.9931C62.0015 58.2029 62.0095 58.2777 62.0179 58.3681C62.0263 58.4586 62.0308 58.5368 62.0308 58.6029L62.0344 59.7507L61.5014 59.7519L61.4891 55.7032L61.9251 55.7023L61.9991 56.0829H62.0233C62.1195 55.9609 62.2467 55.858 62.4038 55.7742C62.561 55.6904 62.771 55.6481 63.0334 55.6476ZM62.9375 56.0339C62.6064 56.0348 62.3725 56.1154 62.2356 56.2757C62.1031 56.436 62.033 56.6794 62.026 57.0064L62.0263 57.0951C62.0274 57.4394 62.0926 57.7055 62.2225 57.8931C62.3564 58.0771 62.6006 58.1687 62.956 58.1678C63.1538 58.1675 63.3153 58.12 63.4401 58.0258C63.5689 57.9316 63.6635 57.8046 63.7237 57.6444C63.7876 57.4809 63.8196 57.2945 63.819 57.0858C63.8179 56.7658 63.7443 56.5104 63.5986 56.3194C63.4566 56.1284 63.2362 56.0333 62.9375 56.0339ZM66.4443 55.6452C66.8399 55.6444 67.133 55.7186 67.3231 55.8676C67.5132 56.0168 67.6087 56.2548 67.6096 56.5818L67.6158 58.4861L67.2282 58.487L67.1239 58.0907H67.0996C66.9586 58.2441 66.8096 58.3574 66.6524 58.431C66.4994 58.5044 66.2854 58.5412 66.011 58.5418C65.7161 58.5426 65.4715 58.4771 65.2775 58.3452C65.0833 58.2102 64.9858 57.9997 64.9851 57.7145C64.9841 57.4362 65.1105 57.222 65.3646 57.0719C65.6183 56.9183 66.0098 56.8339 66.5385 56.8189L67.0896 56.802L67.0893 56.6351C67.0886 56.402 67.0293 56.2406 66.9119 56.1502C66.7949 56.06 66.6289 56.0154 66.415 56.0157C66.2453 56.0162 66.0839 56.0391 65.9308 56.0847C65.7774 56.1267 65.6344 56.1757 65.5012 56.2316L65.3367 55.8878C65.4777 55.8215 65.6452 55.7652 65.8389 55.7197C66.0324 55.6704 66.2343 55.6458 66.4443 55.6452ZM66.606 57.1371C66.2023 57.1519 65.9221 57.2081 65.7649 57.3058C65.6118 57.4038 65.5354 57.5412 65.5361 57.7186C65.5366 57.8751 65.5914 57.9899 65.7007 58.0626C65.8137 58.1354 65.9574 58.1716 66.131 58.1713C66.4056 58.1704 66.6334 58.1058 66.8146 57.9765C66.996 57.8441 67.0862 57.642 67.0852 57.3707L67.0845 57.1203L66.606 57.1371ZM69.9205 58.5331C69.6338 58.5339 69.3771 58.4841 69.151 58.3835C68.9285 58.2832 68.7523 58.127 68.6224 57.9151C68.4966 57.7032 68.4334 57.4322 68.4323 57.1018C68.4313 56.7574 68.4969 56.4771 68.6295 56.2612C68.762 56.0452 68.9414 55.8867 69.1671 55.7852C69.3969 55.6838 69.6574 55.6328 69.948 55.6322C70.1135 55.6319 70.2731 55.6473 70.4264 55.678C70.5799 55.7055 70.7054 55.74 70.8023 55.7815L70.6398 56.1629C70.5429 56.1316 70.4298 56.1023 70.3007 56.0748C70.1711 56.0473 70.05 56.0336 69.9369 56.0339C69.299 56.0354 68.9811 56.3893 68.9835 57.0954C68.9845 57.4328 69.0618 57.6916 69.2159 57.8722C69.374 58.0493 69.6062 58.1374 69.9131 58.1365C70.0907 58.1362 70.2461 58.1203 70.3793 58.0887C70.5166 58.0571 70.6415 58.0186 70.7545 57.9731L70.7559 58.38C70.6468 58.429 70.5257 58.4658 70.3928 58.4904C70.2637 58.5186 70.1061 58.5328 69.9205 58.5331ZM72.0272 57.3858C72.0272 57.4275 72.0255 57.4902 72.0219 57.5736C72.0178 57.6571 72.0121 57.7406 72.0044 57.8241C72.0007 57.9075 71.9967 57.9736 71.993 58.0223L73.7236 55.676L74.3777 55.6745L74.3864 58.471L73.8899 58.4722L73.8848 56.8235C73.8844 56.7678 73.8844 56.6948 73.8841 56.6044C73.8878 56.5139 73.8916 56.4252 73.8952 56.3383C73.8993 56.2478 73.9029 56.18 73.907 56.1348L72.1882 58.476L71.528 58.4774L71.5192 55.6809L72.0219 55.6797L72.0272 57.3858ZM78.0232 56.3707C78.0239 56.5446 77.9636 56.6803 77.8427 56.778C77.722 56.8757 77.5666 56.942 77.3772 56.9774V56.9983C77.579 57.022 77.755 57.0844 77.9047 57.1849C78.0541 57.282 78.1294 57.4348 78.1301 57.6435C78.1308 57.88 78.0285 58.0768 77.823 58.2336C77.6214 58.3873 77.2866 58.4644 76.8182 58.4655L75.4193 58.4687L75.4109 55.6722L76.8038 55.669C77.034 55.6684 77.2399 55.6907 77.4216 55.7354C77.6076 55.7768 77.753 55.8496 77.8583 55.9536C77.9676 56.0542 78.0227 56.1933 78.0232 56.3707ZM77.4844 56.4293C77.4841 56.2971 77.4272 56.2015 77.3139 56.1426C77.2049 56.0803 77.0249 56.0493 76.7745 56.0499L75.9449 56.0519L75.9473 56.8189L76.68 56.8171C77.2169 56.816 77.4851 56.6867 77.4844 56.4293ZM77.579 57.6446C77.5783 57.4846 77.5074 57.3702 77.3661 57.3009C77.2244 57.2316 77.0165 57.1974 76.742 57.198L75.9485 57.1997L75.9513 58.0971L76.7567 58.0954C77.0232 58.0948 77.227 58.0612 77.3681 57.9948C77.5091 57.9249 77.5793 57.8081 77.579 57.6446ZM81.7267 57.051C81.7281 57.5136 81.5919 57.8722 81.318 58.1267C81.0485 58.3812 80.6814 58.509 80.2171 58.5102C79.9304 58.5107 79.6737 58.4557 79.4473 58.3449C79.225 58.2307 79.0489 58.0658 78.9191 57.8504C78.7893 57.6316 78.7237 57.3673 78.723 57.0577C78.7213 56.5951 78.8554 56.2383 79.1253 55.9873C79.3952 55.7362 79.7619 55.6102 80.2262 55.6093C80.5209 55.6087 80.7796 55.6655 81.002 55.7797C81.2285 55.8904 81.4045 56.0536 81.5302 56.269C81.6602 56.4809 81.7258 56.7415 81.7267 57.051ZM79.274 57.0565C79.275 57.387 79.3504 57.6496 79.5004 57.8438C79.6542 58.0348 79.8967 58.1299 80.2279 58.1293C80.5549 58.1284 80.7948 58.0322 80.9479 57.8406C81.1007 57.6455 81.1767 57.3826 81.1757 57.0522C81.1747 56.7218 81.0969 56.4629 80.9428 56.2754C80.789 56.0878 80.5465 55.9945 80.2154 55.9954C79.8844 55.996 79.6444 56.0904 79.4954 56.2786C79.3467 56.467 79.2731 56.7261 79.274 57.0565ZM83.4285 58.0331C83.4289 58.1026 83.4133 58.18 83.3821 58.2649C83.3508 58.3499 83.3114 58.4339 83.2643 58.5174C83.2175 58.6006 83.1644 58.678 83.1055 58.7496C83.0487 58.8209 82.9935 58.878 82.9403 58.9206L82.3401 58.8609C82.403 58.8183 82.4609 58.7704 82.514 58.7177C82.5672 58.6649 82.6164 58.6096 82.6614 58.5519C82.5883 58.547 82.5215 58.5302 82.4602 58.5015C82.401 58.4725 82.3495 58.4354 82.3061 58.3896C82.2624 58.3438 82.2288 58.2913 82.2048 58.2319C82.181 58.1707 82.1692 58.1055 82.1689 58.0357C82.1689 57.978 82.1793 57.9186 82.2009 57.8574C82.2223 57.7945 82.2567 57.7365 82.3038 57.6838C82.3528 57.631 82.4179 57.5878 82.4986 57.5536C82.5794 57.5194 82.6789 57.5023 82.7969 57.502C82.9036 57.5017 82.9961 57.5142 83.0752 57.5394C83.156 57.5649 83.2223 57.6012 83.2737 57.6487C83.3249 57.6945 83.3636 57.7504 83.3895 57.8165C83.4154 57.8809 83.4282 57.9531 83.4285 58.0331ZM87.7054 55.6447L87.7141 58.4412L87.1813 58.4423L87.1738 56.0371L85.4964 56.0409L85.5037 58.4461L84.9708 58.4473L84.962 55.6507L87.7054 55.6447ZM91.5676 57.029C91.5693 57.4916 91.433 57.8502 91.1591 58.1047C90.8892 58.3594 90.5225 58.487 90.0582 58.4881C89.7715 58.4887 89.5148 58.4336 89.2884 58.3229C89.0661 58.2087 88.89 58.0438 88.7602 57.8284C88.6304 57.6096 88.5648 57.3452 88.5637 57.0357C88.5624 56.5731 88.6966 56.2162 88.9664 55.9652C89.236 55.7142 89.603 55.5881 90.0673 55.5873C90.362 55.5867 90.6208 55.6435 90.8431 55.7577C91.0696 55.8684 91.2456 56.0316 91.3713 56.247C91.5013 56.4589 91.5669 56.7194 91.5676 57.029ZM89.1149 57.0345C89.1159 57.3649 89.1916 57.6275 89.3416 57.822C89.4953 58.0128 89.7379 58.1078 90.069 58.1073C90.396 58.1064 90.6359 58.0104 90.789 57.8186C90.9418 57.6235 91.0175 57.3609 91.0164 57.0304C91.0154 56.7 90.938 56.4409 90.7839 56.2533C90.6302 56.0661 90.3876 55.9725 90.0565 55.9733C89.7255 55.9742 89.4855 56.0684 89.3365 56.2568C89.1878 56.4449 89.1138 56.7041 89.1149 57.0345ZM92.2418 56.751C92.2401 56.1389 92.3453 55.662 92.5584 55.3209C92.7714 54.976 93.1158 54.7594 93.5923 54.6716C93.8543 54.6223 94.1107 54.5783 94.3607 54.5394C94.611 54.5006 94.8452 54.4652 95.0629 54.4334L95.1551 54.8351C95.0138 54.8528 94.8543 54.8757 94.6769 54.9038C94.4993 54.9287 94.3237 54.9551 94.1501 54.9832C93.9768 55.0081 93.8274 55.0328 93.7024 55.0574C93.4399 55.1067 93.2326 55.2252 93.0795 55.4136C92.9268 55.5983 92.841 55.887 92.8218 56.2803L92.8582 56.28C92.9144 56.2139 92.991 56.1458 93.0876 56.0762C93.1886 56.0064 93.3073 55.947 93.4445 55.898C93.5856 55.849 93.745 55.8244 93.9227 55.8238C94.3426 55.8229 94.6598 55.9386 94.8745 56.1713C95.0891 56.4038 95.1972 56.7061 95.1981 57.0783C95.1991 57.3878 95.1373 57.6473 95.0128 57.8562C94.8883 58.0652 94.7154 58.222 94.4936 58.327C94.2719 58.4281 94.0136 58.4791 93.7188 58.48C93.2706 58.4809 92.913 58.3339 92.6455 58.0389C92.378 57.7438 92.2434 57.3145 92.2418 56.751ZM93.7601 58.0989C94.0225 58.0983 94.2342 58.0249 94.3954 57.8786C94.5562 57.7319 94.6363 57.4815 94.6353 57.1267C94.6343 56.8415 94.571 56.6171 94.4455 56.4539C94.3237 56.2873 94.1215 56.2044 93.8389 56.2049C93.6613 56.2052 93.5001 56.2403 93.3547 56.3104C93.2097 56.3768 93.0889 56.4536 92.992 56.5406C92.8954 56.6278 92.8272 56.7012 92.7868 56.7603C92.7875 56.9307 92.8019 57.096 92.831 57.256C92.8595 57.4157 92.9086 57.56 92.9776 57.6884C93.0506 57.8136 93.1499 57.9142 93.2753 57.9904C93.4046 58.0632 93.5664 58.0994 93.7601 58.0989ZM97.2868 55.571C97.5654 55.5704 97.8039 55.622 98.0022 55.7261C98.204 55.8299 98.3581 55.9774 98.4637 56.1684C98.573 56.356 98.6282 56.5768 98.6292 56.8307L98.6299 57.1073L96.4074 57.1122C96.4164 57.4287 96.51 57.6702 96.6883 57.8368C96.8703 57.9997 97.1229 58.0809 97.4459 58.0803C97.6518 58.0797 97.8335 58.0638 97.9907 58.0322C98.1522 57.9971 98.3177 57.9478 98.4869 57.8849L98.4883 58.2867C98.3228 58.3496 98.1596 58.3951 97.9981 58.4235C97.8366 58.4551 97.6448 58.471 97.4228 58.4716C97.1159 58.4725 96.8434 58.4191 96.6048 58.3116C96.3704 58.2044 96.1863 58.0449 96.0525 57.8331C95.9225 57.6177 95.8569 57.3551 95.8559 57.0455C95.8552 56.7394 95.9128 56.4768 96.0292 56.2574C96.1496 56.038 96.3168 55.869 96.5305 55.7502C96.7482 55.6313 97.0001 55.5716 97.2868 55.571ZM97.2822 55.9467C97.0277 55.9473 96.8259 56.0191 96.6768 56.162C96.5322 56.3015 96.4457 56.4965 96.4185 56.747L98.0717 56.7432C98.0671 56.5067 98.0017 56.3157 97.8763 56.1699C97.7504 56.0206 97.5523 55.9461 97.2822 55.9467ZM103.346 55.6096L102.012 56.9693L103.469 58.4061L102.864 58.4073L101.454 56.9913L101.459 58.4104L100.962 58.4116L100.958 56.9925L99.5571 58.4148L98.9515 58.416L100.401 56.9728L99.0582 55.6194L99.6396 55.618L100.958 56.9716L100.954 55.6151L101.45 55.6139L101.454 56.9704L102.771 55.611L103.346 55.6096ZM106.404 55.6029L106.411 58.0133L106.884 58.0122L106.888 59.3687L106.373 59.3699L106.37 58.3994L104.111 58.4046L104.114 59.3751L103.606 59.3759L103.602 58.0197L103.862 58.0189C104.14 57.6878 104.346 57.3119 104.482 56.8907C104.622 56.4661 104.694 56.038 104.696 55.6067L106.404 55.6029ZM105.17 55.9655C105.154 56.2023 105.113 56.4476 105.045 56.7015C104.977 56.9522 104.889 57.1925 104.78 57.422C104.676 57.6519 104.554 57.8504 104.413 58.0177L105.897 58.0145L105.89 55.9641L105.17 55.9655ZM108.742 55.5507C109.137 55.5499 109.431 55.6241 109.621 55.7731C109.811 55.9223 109.907 56.1603 109.908 56.4873L109.913 58.3916L109.526 58.3925L109.422 57.9962H109.397C109.257 58.1496 109.108 58.2629 108.95 58.3362C108.797 58.4096 108.583 58.4467 108.309 58.4473C108.014 58.4478 107.77 58.3823 107.575 58.2507C107.381 58.1154 107.283 57.9052 107.283 57.62C107.282 57.3417 107.408 57.1275 107.662 56.9774C107.916 56.8238 108.308 56.7394 108.836 56.7244L109.388 56.7075L109.387 56.5406C109.386 56.3075 109.327 56.1458 109.21 56.0557C109.092 55.9655 108.927 55.9206 108.713 55.9212C108.543 55.9215 108.382 55.9446 108.229 55.9902C108.075 56.0322 107.932 56.0812 107.799 56.1371L107.634 55.7931C107.776 55.7267 107.943 55.6707 108.137 55.6249C108.33 55.576 108.532 55.551 108.742 55.5507ZM108.904 57.0426C108.5 57.0574 108.22 57.1136 108.063 57.2113C107.909 57.309 107.833 57.4467 107.834 57.6241C107.834 57.7806 107.889 57.8951 107.998 57.9681C108.112 58.0409 108.255 58.0771 108.429 58.0765C108.703 58.076 108.931 58.011 109.112 57.882C109.294 57.7496 109.384 57.5475 109.383 57.2762L109.383 57.0258L108.904 57.0426ZM113.532 54.4287C113.505 54.6896 113.402 54.8881 113.225 55.0241C113.052 55.1568 112.774 55.2235 112.39 55.2244C111.994 55.2252 111.714 55.1597 111.548 55.0278C111.386 54.896 111.294 54.698 111.273 54.4336L111.77 54.4325C111.791 54.6203 111.848 54.7473 111.941 54.8131C112.038 54.8754 112.191 54.9064 112.401 54.9061C112.587 54.9055 112.732 54.8722 112.837 54.8058C112.946 54.736 113.01 54.6107 113.03 54.4299L113.532 54.4287ZM111.415 57.2977C111.415 57.3394 111.414 57.402 111.41 57.4855C111.406 57.569 111.4 57.6525 111.392 57.736C111.389 57.8194 111.385 57.8855 111.381 57.9342L113.112 55.5878L113.766 55.5864L113.774 58.3829L113.278 58.3841L113.273 56.7354C113.272 56.6797 113.272 56.6067 113.272 56.5162C113.276 56.4258 113.28 56.3371 113.283 56.2502C113.287 56.1597 113.291 56.0919 113.295 56.0467L111.576 58.3878L110.916 58.3893L110.907 55.5928L111.41 55.5916L111.415 57.2977ZM115.195 55.5832L115.764 55.582L116.472 57.1716C116.533 57.3107 116.588 57.4444 116.636 57.5731C116.685 57.6983 116.722 57.818 116.747 57.9328H116.771C116.795 57.8458 116.833 57.7325 116.885 57.5933C116.937 57.4507 116.991 57.3078 117.047 57.1652L117.702 55.5777L118.278 55.5762L116.888 58.762C116.776 59.0267 116.629 59.2374 116.448 59.3942C116.271 59.5513 116.025 59.6302 115.71 59.6307C115.613 59.631 115.528 59.6261 115.456 59.6157C115.383 59.609 115.32 59.6003 115.268 59.5902L115.267 59.2249C115.311 59.2316 115.363 59.2386 115.424 59.2452C115.489 59.2522 115.556 59.2554 115.624 59.2554C115.81 59.2548 115.959 59.2093 116.072 59.1186C116.188 59.0278 116.279 58.9078 116.343 58.758L116.512 58.3873L115.195 55.5832ZM121.403 56.2736C121.404 56.4476 121.344 56.5835 121.223 56.6812C121.102 56.7786 120.947 56.8452 120.757 56.8803V56.9012C120.959 56.9252 121.135 56.9873 121.285 57.0878C121.434 57.1849 121.509 57.3377 121.51 57.5464C121.511 57.7829 121.408 57.9797 121.203 58.1368C121.002 58.2902 120.667 58.3675 120.198 58.3684L118.799 58.3716L118.791 55.5751L120.184 55.5722C120.414 55.5716 120.62 55.5936 120.802 55.6386C120.988 55.6797 121.133 55.7525 121.239 55.8565C121.348 55.9574 121.403 56.0962 121.403 56.2736ZM120.864 56.3322C120.864 56.2 120.807 56.1046 120.694 56.0458C120.585 55.9832 120.405 55.9525 120.154 55.9531L119.325 55.9548L119.327 56.7218L120.06 56.7203C120.597 56.7189 120.865 56.5896 120.864 56.3322ZM120.959 57.5478C120.958 57.3878 120.887 57.2731 120.746 57.2038C120.604 57.1345 120.396 57.1003 120.122 57.1009L119.329 57.1026L119.331 58L120.137 57.9983C120.403 57.9977 120.607 57.9641 120.748 57.8977C120.889 57.8278 120.959 57.7113 120.959 57.5478ZM123.534 55.5125C123.812 55.5119 124.051 55.5635 124.249 55.6673C124.451 55.7713 124.605 55.9186 124.71 56.1099C124.82 56.2974 124.875 56.518 124.876 56.7719L124.877 57.0484L122.654 57.0536C122.663 57.3699 122.757 57.6116 122.935 57.778C123.117 57.9412 123.37 58.0223 123.693 58.0217C123.899 58.0212 124.08 58.0052 124.238 57.9733C124.399 57.9383 124.564 57.8893 124.734 57.8261L124.735 58.2278C124.57 58.291 124.406 58.3365 124.245 58.3646C124.084 58.3965 123.892 58.4125 123.67 58.4131C123.363 58.4136 123.09 58.3603 122.852 58.2531C122.617 58.1458 122.433 57.9861 122.299 57.7742C122.169 57.5589 122.104 57.2965 122.103 56.987C122.102 56.6809 122.16 56.418 122.276 56.1986C122.397 55.9791 122.563 55.8102 122.777 55.6916C122.995 55.5728 123.247 55.5131 123.534 55.5125ZM123.529 55.8881C123.275 55.8887 123.073 55.9603 122.924 56.1032C122.779 56.2429 122.693 56.4377 122.665 56.6881L124.318 56.6847C124.314 56.4481 124.249 56.2568 124.123 56.111C123.997 55.9618 123.799 55.8876 123.529 55.8881ZM127.243 55.5041C127.643 55.5032 127.964 55.6226 128.207 55.862C128.454 56.1015 128.578 56.4629 128.58 56.9464C128.581 57.4229 128.459 57.7849 128.214 58.0325C127.972 58.28 127.649 58.4041 127.246 58.4049C126.995 58.4055 126.787 58.3661 126.621 58.2864C126.46 58.2032 126.332 58.1078 126.239 58.0003H126.203C126.211 58.0594 126.219 58.1342 126.227 58.2246C126.236 58.3151 126.24 58.3933 126.24 58.4594L126.244 59.6073L125.711 59.6084L125.699 55.5597L126.135 55.5589L126.209 55.9394H126.233C126.329 55.8174 126.456 55.7145 126.613 55.6307C126.77 55.547 126.98 55.5047 127.243 55.5041ZM127.147 55.8904C126.816 55.891 126.582 55.9716 126.445 56.1319C126.313 56.2922 126.243 56.536 126.236 56.8629L126.236 56.9516C126.237 57.296 126.302 57.5617 126.432 57.7493C126.566 57.9333 126.811 58.0249 127.166 58.0244C127.364 58.0238 127.525 57.9765 127.65 57.8823C127.778 57.7881 127.873 57.6609 127.933 57.5009C127.997 57.3371 128.029 57.151 128.029 56.9423C128.027 56.6223 127.954 56.367 127.808 56.176C127.666 55.9849 127.446 55.8899 127.147 55.8904ZM130.678 55.4965C130.957 55.4957 131.195 55.5476 131.393 55.6513C131.595 55.7554 131.749 55.9026 131.854 56.0939C131.964 56.2815 132.019 56.502 132.02 56.756L132.021 57.0325L129.799 57.0374C129.808 57.3539 129.901 57.5957 130.079 57.762C130.261 57.9252 130.514 58.0064 130.837 58.0055C131.043 58.0052 131.224 57.989 131.382 57.9574C131.543 57.9223 131.709 57.8733 131.878 57.8102L131.879 58.2119C131.714 58.2751 131.55 58.3206 131.389 58.3487C131.228 58.3803 131.036 58.3965 130.814 58.3971C130.507 58.3977 130.235 58.3444 129.996 58.2371C129.762 58.1299 129.577 57.9702 129.443 57.7583C129.313 57.5429 129.248 57.2806 129.247 56.971C129.246 56.6649 129.304 56.402 129.42 56.1826C129.541 55.9632 129.708 55.7942 129.921 55.6754C130.139 55.5568 130.391 55.4971 130.678 55.4965ZM130.673 55.8722C130.419 55.8728 130.217 55.9444 130.068 56.0873C129.923 56.2267 129.837 56.4218 129.81 56.6722L131.463 56.6687C131.458 56.4322 131.393 56.2409 131.267 56.0951C131.142 55.9458 130.943 55.8716 130.673 55.8722ZM133.376 55.5426L133.379 56.7061L135.142 56.702L135.138 55.5386L135.671 55.5374L135.68 58.3339L135.147 58.3351L135.143 57.0881L133.381 57.0922L133.384 58.3391L132.852 58.3403L132.843 55.5438L133.376 55.5426ZM137.232 55.5339L137.235 56.6974L138.998 56.6933L138.994 55.5299L139.527 55.5287L139.536 58.3252L139.003 58.3264L138.999 57.0794L137.236 57.0835L137.24 58.3304L136.707 58.3316L136.699 55.5351L137.232 55.5339ZM143.382 56.9133C143.383 57.376 143.246 57.7345 142.972 57.989C142.703 58.2435 142.336 58.3713 141.872 58.3722C141.585 58.3731 141.328 58.3177 141.102 58.207C140.879 58.0928 140.703 57.9278 140.574 57.7125C140.443 57.4936 140.379 57.2296 140.378 56.92C140.376 56.4574 140.509 56.1006 140.78 55.8496C141.049 55.5986 141.416 55.4725 141.88 55.4713C142.176 55.4707 142.434 55.5275 142.657 55.6418C142.883 55.7525 143.059 55.9157 143.186 56.131C143.315 56.3429 143.38 56.6038 143.382 56.9133ZM140.929 56.9189C140.93 57.2493 141.006 57.5116 141.156 57.7061C141.308 57.8971 141.552 57.9922 141.883 57.9913C142.21 57.9907 142.45 57.8945 142.602 57.7029C142.755 57.5075 142.831 57.2449 142.831 56.9145C142.829 56.5841 142.752 56.3249 142.598 56.1377C142.444 55.9502 142.201 55.8568 141.871 55.8574C141.538 55.8583 141.299 55.9528 141.15 56.1409C141.001 56.329 140.927 56.5884 140.929 56.9189Z" fill="#D1A954"/>
</g>
<defs>
<filter id="filter0_d" x="-4" y="0" width="151.382" height="67.7858" filterUnits="userSpaceOnUse" color-interpolation-filters="sRGB">
<feFlood flood-opacity="0" result="BackgroundImageFix"/>
<feColorMatrix in="SourceAlpha" type="matrix" values="0 0 0 0 0 0 0 0 0 0 0 0 0 0 0 0 0 0 127 0"/>
<feOffset dy="4"/>
<feGaussianBlur stdDeviation="2"/>
<feColorMatrix type="matrix" values="0 0 0 0 0 0 0 0 0 0 0 0 0 0 0 0 0 0 0.25 0"/>
<feBlend mode="normal" in2="BackgroundImageFix" result="effect1_dropShadow"/>
<feBlend mode="normal" in="SourceGraphic" in2="effect1_dropShadow" result="shape"/>
</filter>
</defs>
</svg>
